<mxfile host="Electron" agent="Mozilla/5.0 (Windows NT 10.0; Win64; x64) AppleWebKit/537.36 (KHTML, like Gecko) draw.io/26.0.9 Chrome/128.0.6613.186 Electron/32.2.5 Safari/537.36" version="26.0.9">
  <diagram name="Page-1" id="KTNEHckb0gnk1J8CN77S">
    <mxGraphModel dx="2625" dy="1553" grid="1" gridSize="10" guides="1" tooltips="1" connect="1" arrows="1" fold="1" page="1" pageScale="1" pageWidth="2500" pageHeight="2500" math="0" shadow="0">
      <root>
        <mxCell id="0" />
        <mxCell id="1" parent="0" />
        <mxCell id="NyVXkolvV2H5l8ZxX0Ff-1" value="" style="endArrow=classic;html=1;rounded=0;" parent="1" edge="1">
          <mxGeometry width="50" height="50" relative="1" as="geometry">
            <mxPoint x="28" y="530" as="sourcePoint" />
            <mxPoint x="168" y="530" as="targetPoint" />
          </mxGeometry>
        </mxCell>
        <mxCell id="NyVXkolvV2H5l8ZxX0Ff-2" value="" style="endArrow=none;html=1;rounded=0;" parent="1" edge="1">
          <mxGeometry width="50" height="50" relative="1" as="geometry">
            <mxPoint x="78" y="540" as="sourcePoint" />
            <mxPoint x="98" y="520" as="targetPoint" />
          </mxGeometry>
        </mxCell>
        <mxCell id="NyVXkolvV2H5l8ZxX0Ff-3" value="num&lt;div&gt;&lt;br&gt;&lt;/div&gt;" style="text;strokeColor=none;align=center;fillColor=none;html=1;verticalAlign=middle;whiteSpace=wrap;rounded=0;fontStyle=1" parent="1" vertex="1">
          <mxGeometry x="10" y="520" width="10" height="20" as="geometry" />
        </mxCell>
        <mxCell id="NyVXkolvV2H5l8ZxX0Ff-5" value="" style="endArrow=classic;html=1;rounded=0;entryX=0;entryY=0.5;entryDx=0;entryDy=0;" parent="1" target="NyVXkolvV2H5l8ZxX0Ff-20" edge="1">
          <mxGeometry width="50" height="50" relative="1" as="geometry">
            <mxPoint x="140" y="530" as="sourcePoint" />
            <mxPoint x="247" y="530" as="targetPoint" />
            <Array as="points">
              <mxPoint x="150" y="530" />
            </Array>
          </mxGeometry>
        </mxCell>
        <mxCell id="NyVXkolvV2H5l8ZxX0Ff-6" value="" style="endArrow=classic;html=1;rounded=0;entryX=0;entryY=0.5;entryDx=0;entryDy=0;" parent="1" target="NyVXkolvV2H5l8ZxX0Ff-22" edge="1">
          <mxGeometry width="50" height="50" relative="1" as="geometry">
            <mxPoint x="168" y="640" as="sourcePoint" />
            <mxPoint x="265" y="600" as="targetPoint" />
          </mxGeometry>
        </mxCell>
        <mxCell id="NyVXkolvV2H5l8ZxX0Ff-7" value="num[3]" style="text;strokeColor=none;align=center;fillColor=none;html=1;verticalAlign=middle;whiteSpace=wrap;rounded=0;fontStyle=1" parent="1" vertex="1">
          <mxGeometry x="189" y="508" width="10" height="20" as="geometry" />
        </mxCell>
        <mxCell id="NyVXkolvV2H5l8ZxX0Ff-8" value="num[2]" style="text;strokeColor=none;align=center;fillColor=none;html=1;verticalAlign=middle;whiteSpace=wrap;rounded=0;fontStyle=1" parent="1" vertex="1">
          <mxGeometry x="189" y="613.63" width="10" height="20" as="geometry" />
        </mxCell>
        <mxCell id="NyVXkolvV2H5l8ZxX0Ff-13" value="" style="endArrow=none;html=1;rounded=0;" parent="1" edge="1">
          <mxGeometry width="50" height="50" relative="1" as="geometry">
            <mxPoint x="168" y="600" as="sourcePoint" />
            <mxPoint x="168" y="530" as="targetPoint" />
          </mxGeometry>
        </mxCell>
        <mxCell id="NyVXkolvV2H5l8ZxX0Ff-14" value="" style="endArrow=classic;html=1;rounded=0;entryX=0;entryY=0.5;entryDx=0;entryDy=0;" parent="1" target="NyVXkolvV2H5l8ZxX0Ff-24" edge="1">
          <mxGeometry width="50" height="50" relative="1" as="geometry">
            <mxPoint x="168" y="759" as="sourcePoint" />
            <mxPoint x="300" y="670" as="targetPoint" />
          </mxGeometry>
        </mxCell>
        <mxCell id="NyVXkolvV2H5l8ZxX0Ff-15" value="num[1]" style="text;strokeColor=none;align=center;fillColor=none;html=1;verticalAlign=middle;whiteSpace=wrap;rounded=0;fontStyle=1" parent="1" vertex="1">
          <mxGeometry x="190" y="732.63" width="10" height="20" as="geometry" />
        </mxCell>
        <mxCell id="NyVXkolvV2H5l8ZxX0Ff-16" value="" style="endArrow=none;html=1;rounded=0;" parent="1" edge="1">
          <mxGeometry width="50" height="50" relative="1" as="geometry">
            <mxPoint x="168" y="670" as="sourcePoint" />
            <mxPoint x="168" y="600" as="targetPoint" />
          </mxGeometry>
        </mxCell>
        <mxCell id="NyVXkolvV2H5l8ZxX0Ff-17" value="" style="endArrow=classic;html=1;rounded=0;entryX=0;entryY=0.5;entryDx=0;entryDy=0;" parent="1" edge="1">
          <mxGeometry width="50" height="50" relative="1" as="geometry">
            <mxPoint x="170" y="880" as="sourcePoint" />
            <mxPoint x="310" y="880" as="targetPoint" />
          </mxGeometry>
        </mxCell>
        <mxCell id="NyVXkolvV2H5l8ZxX0Ff-18" value="num[0]" style="text;strokeColor=none;align=center;fillColor=none;html=1;verticalAlign=middle;whiteSpace=wrap;rounded=0;fontStyle=1" parent="1" vertex="1">
          <mxGeometry x="190" y="860" width="10" height="20" as="geometry" />
        </mxCell>
        <mxCell id="NyVXkolvV2H5l8ZxX0Ff-19" value="" style="endArrow=none;html=1;rounded=0;" parent="1" edge="1">
          <mxGeometry width="50" height="50" relative="1" as="geometry">
            <mxPoint x="170" y="880" as="sourcePoint" />
            <mxPoint x="168" y="670" as="targetPoint" />
          </mxGeometry>
        </mxCell>
        <mxCell id="NyVXkolvV2H5l8ZxX0Ff-20" value="" style="triangle;whiteSpace=wrap;html=1;" parent="1" vertex="1">
          <mxGeometry x="310" y="500" width="70" height="60" as="geometry" />
        </mxCell>
        <mxCell id="NyVXkolvV2H5l8ZxX0Ff-67" style="edgeStyle=orthogonalEdgeStyle;rounded=0;orthogonalLoop=1;jettySize=auto;html=1;exitX=1;exitY=0.5;exitDx=0;exitDy=0;entryX=0.175;entryY=0.25;entryDx=0;entryDy=0;entryPerimeter=0;" parent="1" source="NyVXkolvV2H5l8ZxX0Ff-21" target="NyVXkolvV2H5l8ZxX0Ff-43" edge="1">
          <mxGeometry relative="1" as="geometry">
            <mxPoint x="500" y="490" as="targetPoint" />
            <Array as="points">
              <mxPoint x="470" y="530" />
              <mxPoint x="470" y="273" />
              <mxPoint x="917" y="273" />
            </Array>
          </mxGeometry>
        </mxCell>
        <mxCell id="NyVXkolvV2H5l8ZxX0Ff-21" value="" style="ellipse;whiteSpace=wrap;html=1;aspect=fixed;" parent="1" vertex="1">
          <mxGeometry x="381.2450980392157" y="523.26" width="12.75" height="12.75" as="geometry" />
        </mxCell>
        <mxCell id="NyVXkolvV2H5l8ZxX0Ff-22" value="" style="triangle;whiteSpace=wrap;html=1;" parent="1" vertex="1">
          <mxGeometry x="310" y="610" width="70" height="60" as="geometry" />
        </mxCell>
        <mxCell id="NyVXkolvV2H5l8ZxX0Ff-23" value="" style="ellipse;whiteSpace=wrap;html=1;aspect=fixed;" parent="1" vertex="1">
          <mxGeometry x="379.9950980392157" y="633.6299999999999" width="12.75" height="12.75" as="geometry" />
        </mxCell>
        <mxCell id="NyVXkolvV2H5l8ZxX0Ff-24" value="" style="triangle;whiteSpace=wrap;html=1;" parent="1" vertex="1">
          <mxGeometry x="310" y="729" width="70" height="60" as="geometry" />
        </mxCell>
        <mxCell id="NyVXkolvV2H5l8ZxX0Ff-25" value="" style="ellipse;whiteSpace=wrap;html=1;aspect=fixed;" parent="1" vertex="1">
          <mxGeometry x="379.9950980392157" y="752.6299999999999" width="12.75" height="12.75" as="geometry" />
        </mxCell>
        <mxCell id="NyVXkolvV2H5l8ZxX0Ff-26" value="" style="triangle;whiteSpace=wrap;html=1;" parent="1" vertex="1">
          <mxGeometry x="310" y="847" width="70" height="60" as="geometry" />
        </mxCell>
        <mxCell id="NyVXkolvV2H5l8ZxX0Ff-27" value="" style="ellipse;whiteSpace=wrap;html=1;aspect=fixed;" parent="1" vertex="1">
          <mxGeometry x="381.2450980392157" y="870.6299999999999" width="12.75" height="12.75" as="geometry" />
        </mxCell>
        <mxCell id="NyVXkolvV2H5l8ZxX0Ff-29" value="NOT" style="text;strokeColor=none;align=center;fillColor=none;html=1;verticalAlign=middle;whiteSpace=wrap;rounded=0;fontStyle=1" parent="1" vertex="1">
          <mxGeometry x="330" y="519.63" width="10" height="20" as="geometry" />
        </mxCell>
        <mxCell id="NyVXkolvV2H5l8ZxX0Ff-30" value="NOT" style="text;strokeColor=none;align=center;fillColor=none;html=1;verticalAlign=middle;whiteSpace=wrap;rounded=0;fontStyle=1" parent="1" vertex="1">
          <mxGeometry x="330" y="630" width="10" height="20" as="geometry" />
        </mxCell>
        <mxCell id="NyVXkolvV2H5l8ZxX0Ff-31" value="NOT" style="text;strokeColor=none;align=center;fillColor=none;html=1;verticalAlign=middle;whiteSpace=wrap;rounded=0;fontStyle=1" parent="1" vertex="1">
          <mxGeometry x="330" y="749" width="10" height="20" as="geometry" />
        </mxCell>
        <mxCell id="NyVXkolvV2H5l8ZxX0Ff-32" value="NOT" style="text;strokeColor=none;align=center;fillColor=none;html=1;verticalAlign=middle;whiteSpace=wrap;rounded=0;fontStyle=1" parent="1" vertex="1">
          <mxGeometry x="330" y="867" width="10" height="20" as="geometry" />
        </mxCell>
        <mxCell id="NyVXkolvV2H5l8ZxX0Ff-36" value="~num[3]" style="text;strokeColor=none;align=center;fillColor=none;html=1;verticalAlign=middle;whiteSpace=wrap;rounded=0;fontStyle=1" parent="1" vertex="1">
          <mxGeometry x="400" y="508" width="10" height="20" as="geometry" />
        </mxCell>
        <mxCell id="NyVXkolvV2H5l8ZxX0Ff-37" value="~num[2]" style="text;strokeColor=none;align=center;fillColor=none;html=1;verticalAlign=middle;whiteSpace=wrap;rounded=0;fontStyle=1" parent="1" vertex="1">
          <mxGeometry x="401" y="610" width="10" height="20" as="geometry" />
        </mxCell>
        <mxCell id="NyVXkolvV2H5l8ZxX0Ff-38" value="~num[1]" style="text;strokeColor=none;align=center;fillColor=none;html=1;verticalAlign=middle;whiteSpace=wrap;rounded=0;fontStyle=1" parent="1" vertex="1">
          <mxGeometry x="401" y="729" width="10" height="20" as="geometry" />
        </mxCell>
        <mxCell id="NyVXkolvV2H5l8ZxX0Ff-39" value="~num[0]" style="text;strokeColor=none;align=center;fillColor=none;html=1;verticalAlign=middle;whiteSpace=wrap;rounded=0;fontStyle=1" parent="1" vertex="1">
          <mxGeometry x="401" y="847" width="10" height="20" as="geometry" />
        </mxCell>
        <mxCell id="NyVXkolvV2H5l8ZxX0Ff-48" style="edgeStyle=orthogonalEdgeStyle;rounded=0;orthogonalLoop=1;jettySize=auto;html=1;entryX=0.175;entryY=0.25;entryDx=0;entryDy=0;entryPerimeter=0;" parent="1" target="NyVXkolvV2H5l8ZxX0Ff-40" edge="1">
          <mxGeometry relative="1" as="geometry">
            <mxPoint x="230" y="530" as="sourcePoint" />
            <Array as="points">
              <mxPoint x="230" y="164" />
            </Array>
          </mxGeometry>
        </mxCell>
        <mxCell id="NyVXkolvV2H5l8ZxX0Ff-40" value="" style="shape=xor;whiteSpace=wrap;html=1;" parent="1" vertex="1">
          <mxGeometry x="1195" y="154" width="40" height="41.46" as="geometry" />
        </mxCell>
        <mxCell id="NyVXkolvV2H5l8ZxX0Ff-206" style="edgeStyle=orthogonalEdgeStyle;rounded=0;orthogonalLoop=1;jettySize=auto;html=1;entryX=0.175;entryY=0.75;entryDx=0;entryDy=0;entryPerimeter=0;" parent="1" target="NyVXkolvV2H5l8ZxX0Ff-42" edge="1">
          <mxGeometry relative="1" as="geometry">
            <mxPoint x="1100" y="240.45999999999998" as="targetPoint" />
            <mxPoint x="540" y="195" as="sourcePoint" />
            <Array as="points">
              <mxPoint x="540" y="235" />
            </Array>
          </mxGeometry>
        </mxCell>
        <mxCell id="NyVXkolvV2H5l8ZxX0Ff-42" value="" style="shape=xor;whiteSpace=wrap;html=1;" parent="1" vertex="1">
          <mxGeometry x="1195" y="204" width="40" height="41.46" as="geometry" />
        </mxCell>
        <mxCell id="NyVXkolvV2H5l8ZxX0Ff-68" style="edgeStyle=orthogonalEdgeStyle;rounded=0;orthogonalLoop=1;jettySize=auto;html=1;entryX=0.175;entryY=0.75;entryDx=0;entryDy=0;entryPerimeter=0;" parent="1" target="NyVXkolvV2H5l8ZxX0Ff-43" edge="1">
          <mxGeometry relative="1" as="geometry">
            <mxPoint x="260" y="880" as="sourcePoint" />
            <Array as="points">
              <mxPoint x="260" y="293" />
            </Array>
          </mxGeometry>
        </mxCell>
        <mxCell id="NyVXkolvV2H5l8ZxX0Ff-43" value="" style="shape=xor;whiteSpace=wrap;html=1;" parent="1" vertex="1">
          <mxGeometry x="1195" y="262.17" width="40" height="41.46" as="geometry" />
        </mxCell>
        <mxCell id="NyVXkolvV2H5l8ZxX0Ff-77" style="edgeStyle=orthogonalEdgeStyle;rounded=0;orthogonalLoop=1;jettySize=auto;html=1;exitX=0.175;exitY=0.25;exitDx=0;exitDy=0;exitPerimeter=0;entryX=0.175;entryY=0.25;entryDx=0;entryDy=0;entryPerimeter=0;" parent="1" target="NyVXkolvV2H5l8ZxX0Ff-44" edge="1">
          <mxGeometry relative="1" as="geometry">
            <mxPoint x="470" y="323" as="sourcePoint" />
          </mxGeometry>
        </mxCell>
        <mxCell id="NyVXkolvV2H5l8ZxX0Ff-80" style="edgeStyle=orthogonalEdgeStyle;rounded=0;orthogonalLoop=1;jettySize=auto;html=1;exitX=0.25;exitY=0.5;exitDx=0;exitDy=0;exitPerimeter=0;entryX=0.25;entryY=0.5;entryDx=0;entryDy=0;entryPerimeter=0;" parent="1" target="NyVXkolvV2H5l8ZxX0Ff-44" edge="1">
          <mxGeometry relative="1" as="geometry">
            <mxPoint x="280" y="640" as="sourcePoint" />
            <Array as="points">
              <mxPoint x="280" y="333" />
            </Array>
          </mxGeometry>
        </mxCell>
        <mxCell id="NyVXkolvV2H5l8ZxX0Ff-84" style="edgeStyle=orthogonalEdgeStyle;rounded=0;orthogonalLoop=1;jettySize=auto;html=1;entryX=0.175;entryY=0.75;entryDx=0;entryDy=0;entryPerimeter=0;" parent="1" target="NyVXkolvV2H5l8ZxX0Ff-44" edge="1">
          <mxGeometry relative="1" as="geometry">
            <mxPoint x="919" y="343.275" as="targetPoint" />
            <mxPoint x="290" y="880" as="sourcePoint" />
            <Array as="points">
              <mxPoint x="290" y="880" />
              <mxPoint x="290" y="881" />
              <mxPoint x="293" y="881" />
              <mxPoint x="293" y="344" />
            </Array>
          </mxGeometry>
        </mxCell>
        <mxCell id="NyVXkolvV2H5l8ZxX0Ff-44" value="" style="shape=xor;whiteSpace=wrap;html=1;" parent="1" vertex="1">
          <mxGeometry x="1195" y="312.53999999999996" width="40" height="41.46" as="geometry" />
        </mxCell>
        <mxCell id="NyVXkolvV2H5l8ZxX0Ff-86" style="edgeStyle=orthogonalEdgeStyle;rounded=0;orthogonalLoop=1;jettySize=auto;html=1;exitX=0.175;exitY=0.25;exitDx=0;exitDy=0;exitPerimeter=0;entryX=0.175;entryY=0.25;entryDx=0;entryDy=0;entryPerimeter=0;" parent="1" target="NyVXkolvV2H5l8ZxX0Ff-45" edge="1">
          <mxGeometry relative="1" as="geometry">
            <mxPoint x="250" y="640" as="sourcePoint" />
            <Array as="points">
              <mxPoint x="250" y="374" />
            </Array>
          </mxGeometry>
        </mxCell>
        <mxCell id="NyVXkolvV2H5l8ZxX0Ff-92" style="edgeStyle=orthogonalEdgeStyle;rounded=0;orthogonalLoop=1;jettySize=auto;html=1;entryX=0.25;entryY=0.5;entryDx=0;entryDy=0;entryPerimeter=0;" parent="1" target="NyVXkolvV2H5l8ZxX0Ff-45" edge="1">
          <mxGeometry relative="1" as="geometry">
            <mxPoint x="220" y="760" as="sourcePoint" />
            <Array as="points">
              <mxPoint x="220" y="760" />
              <mxPoint x="220" y="384" />
            </Array>
          </mxGeometry>
        </mxCell>
        <mxCell id="NyVXkolvV2H5l8ZxX0Ff-95" style="edgeStyle=orthogonalEdgeStyle;rounded=0;orthogonalLoop=1;jettySize=auto;html=1;entryX=0.175;entryY=0.75;entryDx=0;entryDy=0;entryPerimeter=0;" parent="1" target="NyVXkolvV2H5l8ZxX0Ff-45" edge="1">
          <mxGeometry relative="1" as="geometry">
            <mxPoint x="480" y="300" as="sourcePoint" />
            <Array as="points">
              <mxPoint x="480" y="394" />
            </Array>
          </mxGeometry>
        </mxCell>
        <mxCell id="NyVXkolvV2H5l8ZxX0Ff-45" value="" style="shape=xor;whiteSpace=wrap;html=1;" parent="1" vertex="1">
          <mxGeometry x="1195" y="363.27" width="40" height="41.46" as="geometry" />
        </mxCell>
        <mxCell id="NyVXkolvV2H5l8ZxX0Ff-97" style="edgeStyle=orthogonalEdgeStyle;rounded=0;orthogonalLoop=1;jettySize=auto;html=1;entryX=0.175;entryY=0.25;entryDx=0;entryDy=0;entryPerimeter=0;" parent="1" target="NyVXkolvV2H5l8ZxX0Ff-46" edge="1">
          <mxGeometry relative="1" as="geometry">
            <mxPoint x="500" y="170" as="sourcePoint" />
            <Array as="points">
              <mxPoint x="500" y="170" />
              <mxPoint x="500" y="429" />
            </Array>
          </mxGeometry>
        </mxCell>
        <mxCell id="NyVXkolvV2H5l8ZxX0Ff-99" style="edgeStyle=orthogonalEdgeStyle;rounded=0;orthogonalLoop=1;jettySize=auto;html=1;exitX=0.25;exitY=0.5;exitDx=0;exitDy=0;exitPerimeter=0;entryX=0.25;entryY=0.5;entryDx=0;entryDy=0;entryPerimeter=0;" parent="1" target="NyVXkolvV2H5l8ZxX0Ff-46" edge="1">
          <mxGeometry relative="1" as="geometry">
            <mxPoint x="440" y="440" as="sourcePoint" />
          </mxGeometry>
        </mxCell>
        <mxCell id="NyVXkolvV2H5l8ZxX0Ff-46" value="" style="shape=xor;whiteSpace=wrap;html=1;" parent="1" vertex="1">
          <mxGeometry x="1195" y="418.91999999999996" width="40" height="41.46" as="geometry" />
        </mxCell>
        <mxCell id="NyVXkolvV2H5l8ZxX0Ff-50" style="edgeStyle=orthogonalEdgeStyle;rounded=0;orthogonalLoop=1;jettySize=auto;html=1;exitX=1;exitY=0.5;exitDx=0;exitDy=0;entryX=0.175;entryY=0.75;entryDx=0;entryDy=0;entryPerimeter=0;" parent="1" source="NyVXkolvV2H5l8ZxX0Ff-25" target="NyVXkolvV2H5l8ZxX0Ff-40" edge="1">
          <mxGeometry relative="1" as="geometry">
            <Array as="points">
              <mxPoint x="393" y="760" />
              <mxPoint x="450" y="760" />
              <mxPoint x="450" y="185" />
            </Array>
          </mxGeometry>
        </mxCell>
        <mxCell id="NyVXkolvV2H5l8ZxX0Ff-51" value="OR" style="text;strokeColor=none;align=center;fillColor=none;html=1;verticalAlign=middle;whiteSpace=wrap;rounded=0;fontStyle=1" parent="1" vertex="1">
          <mxGeometry x="1210" y="164.73000000000002" width="10" height="20" as="geometry" />
        </mxCell>
        <mxCell id="NyVXkolvV2H5l8ZxX0Ff-53" value="OR" style="text;strokeColor=none;align=center;fillColor=none;html=1;verticalAlign=middle;whiteSpace=wrap;rounded=0;fontStyle=1" parent="1" vertex="1">
          <mxGeometry x="1210" y="214.73000000000002" width="10" height="20" as="geometry" />
        </mxCell>
        <mxCell id="NyVXkolvV2H5l8ZxX0Ff-54" value="OR" style="text;strokeColor=none;align=center;fillColor=none;html=1;verticalAlign=middle;whiteSpace=wrap;rounded=0;fontStyle=1" parent="1" vertex="1">
          <mxGeometry x="1210" y="272.9" width="10" height="20" as="geometry" />
        </mxCell>
        <mxCell id="NyVXkolvV2H5l8ZxX0Ff-55" value="OR" style="text;strokeColor=none;align=center;fillColor=none;html=1;verticalAlign=middle;whiteSpace=wrap;rounded=0;fontStyle=1" parent="1" vertex="1">
          <mxGeometry x="1210" y="323.27" width="10" height="20" as="geometry" />
        </mxCell>
        <mxCell id="NyVXkolvV2H5l8ZxX0Ff-56" value="OR" style="text;strokeColor=none;align=center;fillColor=none;html=1;verticalAlign=middle;whiteSpace=wrap;rounded=0;fontStyle=1" parent="1" vertex="1">
          <mxGeometry x="1210" y="374" width="10" height="20" as="geometry" />
        </mxCell>
        <mxCell id="NyVXkolvV2H5l8ZxX0Ff-57" value="OR" style="text;strokeColor=none;align=center;fillColor=none;html=1;verticalAlign=middle;whiteSpace=wrap;rounded=0;fontStyle=1" parent="1" vertex="1">
          <mxGeometry x="1210" y="429.65" width="10" height="20" as="geometry" />
        </mxCell>
        <mxCell id="NyVXkolvV2H5l8ZxX0Ff-58" style="edgeStyle=orthogonalEdgeStyle;rounded=0;orthogonalLoop=1;jettySize=auto;html=1;exitX=1;exitY=0.5;exitDx=0;exitDy=0;entryX=0.175;entryY=0.25;entryDx=0;entryDy=0;entryPerimeter=0;" parent="1" source="NyVXkolvV2H5l8ZxX0Ff-23" target="NyVXkolvV2H5l8ZxX0Ff-42" edge="1">
          <mxGeometry relative="1" as="geometry">
            <Array as="points">
              <mxPoint x="440" y="640" />
              <mxPoint x="440" y="214" />
            </Array>
          </mxGeometry>
        </mxCell>
        <mxCell id="NyVXkolvV2H5l8ZxX0Ff-62" value="" style="endArrow=none;html=1;rounded=0;startArrow=oval;startFill=1;" parent="1" edge="1">
          <mxGeometry width="50" height="50" relative="1" as="geometry">
            <mxPoint x="450" y="450.73" as="sourcePoint" />
            <mxPoint x="450" y="500.73" as="targetPoint" />
          </mxGeometry>
        </mxCell>
        <mxCell id="NyVXkolvV2H5l8ZxX0Ff-75" value="" style="endArrow=none;html=1;rounded=0;startArrow=oval;startFill=1;" parent="1" edge="1">
          <mxGeometry width="50" height="50" relative="1" as="geometry">
            <mxPoint x="230" y="529" as="sourcePoint" />
            <mxPoint x="230" y="479" as="targetPoint" />
          </mxGeometry>
        </mxCell>
        <mxCell id="NyVXkolvV2H5l8ZxX0Ff-76" value="" style="endArrow=none;html=1;rounded=0;startArrow=oval;startFill=1;" parent="1" edge="1">
          <mxGeometry width="50" height="50" relative="1" as="geometry">
            <mxPoint x="260" y="880" as="sourcePoint" />
            <mxPoint x="260" y="830" as="targetPoint" />
          </mxGeometry>
        </mxCell>
        <mxCell id="NyVXkolvV2H5l8ZxX0Ff-81" value="" style="endArrow=none;html=1;rounded=0;startArrow=oval;startFill=1;" parent="1" edge="1">
          <mxGeometry width="50" height="50" relative="1" as="geometry">
            <mxPoint x="470" y="323" as="sourcePoint" />
            <mxPoint x="470" y="373" as="targetPoint" />
          </mxGeometry>
        </mxCell>
        <mxCell id="NyVXkolvV2H5l8ZxX0Ff-82" value="" style="endArrow=none;html=1;rounded=0;startArrow=oval;startFill=1;" parent="1" edge="1">
          <mxGeometry width="50" height="50" relative="1" as="geometry">
            <mxPoint x="280" y="639" as="sourcePoint" />
            <mxPoint x="280" y="589" as="targetPoint" />
          </mxGeometry>
        </mxCell>
        <mxCell id="NyVXkolvV2H5l8ZxX0Ff-85" value="" style="endArrow=none;html=1;rounded=0;startArrow=oval;startFill=1;" parent="1" edge="1">
          <mxGeometry width="50" height="50" relative="1" as="geometry">
            <mxPoint x="293" y="880" as="sourcePoint" />
            <mxPoint x="293" y="830" as="targetPoint" />
          </mxGeometry>
        </mxCell>
        <mxCell id="NyVXkolvV2H5l8ZxX0Ff-93" value="" style="endArrow=none;html=1;rounded=0;startArrow=oval;startFill=1;" parent="1" edge="1">
          <mxGeometry width="50" height="50" relative="1" as="geometry">
            <mxPoint x="250" y="640" as="sourcePoint" />
            <mxPoint x="250" y="590" as="targetPoint" />
          </mxGeometry>
        </mxCell>
        <mxCell id="NyVXkolvV2H5l8ZxX0Ff-94" value="" style="endArrow=none;html=1;rounded=0;startArrow=oval;startFill=1;" parent="1" edge="1">
          <mxGeometry width="50" height="50" relative="1" as="geometry">
            <mxPoint x="220" y="760" as="sourcePoint" />
            <mxPoint x="220" y="710" as="targetPoint" />
          </mxGeometry>
        </mxCell>
        <mxCell id="NyVXkolvV2H5l8ZxX0Ff-96" value="" style="endArrow=none;html=1;rounded=0;startArrow=oval;startFill=1;" parent="1" edge="1">
          <mxGeometry width="50" height="50" relative="1" as="geometry">
            <mxPoint x="480" y="293.27" as="sourcePoint" />
            <mxPoint x="480" y="343.27" as="targetPoint" />
          </mxGeometry>
        </mxCell>
        <mxCell id="NyVXkolvV2H5l8ZxX0Ff-98" value="" style="endArrow=none;html=1;rounded=0;startArrow=oval;startFill=1;" parent="1" edge="1">
          <mxGeometry width="50" height="50" relative="1" as="geometry">
            <mxPoint x="500" y="164.73" as="sourcePoint" />
            <mxPoint x="500" y="214.73" as="targetPoint" />
          </mxGeometry>
        </mxCell>
        <mxCell id="NyVXkolvV2H5l8ZxX0Ff-100" value="" style="endArrow=none;html=1;rounded=0;startArrow=oval;startFill=1;" parent="1" edge="1">
          <mxGeometry width="50" height="50" relative="1" as="geometry">
            <mxPoint x="440" y="440.37" as="sourcePoint" />
            <mxPoint x="470" y="440.37" as="targetPoint" />
          </mxGeometry>
        </mxCell>
        <mxCell id="NyVXkolvV2H5l8ZxX0Ff-101" style="edgeStyle=orthogonalEdgeStyle;rounded=0;orthogonalLoop=1;jettySize=auto;html=1;exitX=1;exitY=0.5;exitDx=0;exitDy=0;entryX=0.175;entryY=0.75;entryDx=0;entryDy=0;entryPerimeter=0;" parent="1" source="NyVXkolvV2H5l8ZxX0Ff-27" target="NyVXkolvV2H5l8ZxX0Ff-46" edge="1">
          <mxGeometry relative="1" as="geometry">
            <Array as="points">
              <mxPoint x="490" y="877" />
              <mxPoint x="490" y="450" />
            </Array>
          </mxGeometry>
        </mxCell>
        <mxCell id="NyVXkolvV2H5l8ZxX0Ff-115" style="edgeStyle=orthogonalEdgeStyle;rounded=0;orthogonalLoop=1;jettySize=auto;html=1;exitX=1;exitY=0.5;exitDx=0;exitDy=0;exitPerimeter=0;" parent="1" source="NyVXkolvV2H5l8ZxX0Ff-102" edge="1">
          <mxGeometry relative="1" as="geometry">
            <mxPoint x="1506" y="297.38461538461536" as="targetPoint" />
          </mxGeometry>
        </mxCell>
        <mxCell id="NyVXkolvV2H5l8ZxX0Ff-102" value="" style="shape=or;whiteSpace=wrap;html=1;" parent="1" vertex="1">
          <mxGeometry x="1366" y="245.46" width="80" height="104.54" as="geometry" />
        </mxCell>
        <mxCell id="NyVXkolvV2H5l8ZxX0Ff-103" style="edgeStyle=orthogonalEdgeStyle;rounded=0;orthogonalLoop=1;jettySize=auto;html=1;exitX=1;exitY=0.5;exitDx=0;exitDy=0;exitPerimeter=0;entryX=-0.013;entryY=0.081;entryDx=0;entryDy=0;entryPerimeter=0;" parent="1" source="NyVXkolvV2H5l8ZxX0Ff-40" target="NyVXkolvV2H5l8ZxX0Ff-102" edge="1">
          <mxGeometry relative="1" as="geometry" />
        </mxCell>
        <mxCell id="NyVXkolvV2H5l8ZxX0Ff-104" style="edgeStyle=orthogonalEdgeStyle;rounded=0;orthogonalLoop=1;jettySize=auto;html=1;exitX=1;exitY=0.5;exitDx=0;exitDy=0;exitPerimeter=0;" parent="1" edge="1">
          <mxGeometry relative="1" as="geometry">
            <mxPoint x="1235" y="221.73000000000002" as="sourcePoint" />
            <mxPoint x="1366" y="275" as="targetPoint" />
            <Array as="points">
              <mxPoint x="1276" y="222" />
              <mxPoint x="1276" y="275" />
            </Array>
          </mxGeometry>
        </mxCell>
        <mxCell id="NyVXkolvV2H5l8ZxX0Ff-111" style="edgeStyle=orthogonalEdgeStyle;rounded=0;orthogonalLoop=1;jettySize=auto;html=1;exitX=1;exitY=0.5;exitDx=0;exitDy=0;exitPerimeter=0;entryX=-0.006;entryY=0.458;entryDx=0;entryDy=0;entryPerimeter=0;" parent="1" source="NyVXkolvV2H5l8ZxX0Ff-43" target="NyVXkolvV2H5l8ZxX0Ff-102" edge="1">
          <mxGeometry relative="1" as="geometry" />
        </mxCell>
        <mxCell id="NyVXkolvV2H5l8ZxX0Ff-112" style="edgeStyle=orthogonalEdgeStyle;rounded=0;orthogonalLoop=1;jettySize=auto;html=1;exitX=1;exitY=0.5;exitDx=0;exitDy=0;exitPerimeter=0;entryX=-0.006;entryY=0.623;entryDx=0;entryDy=0;entryPerimeter=0;" parent="1" source="NyVXkolvV2H5l8ZxX0Ff-44" target="NyVXkolvV2H5l8ZxX0Ff-102" edge="1">
          <mxGeometry relative="1" as="geometry" />
        </mxCell>
        <mxCell id="NyVXkolvV2H5l8ZxX0Ff-113" style="edgeStyle=orthogonalEdgeStyle;rounded=0;orthogonalLoop=1;jettySize=auto;html=1;exitX=1;exitY=0.5;exitDx=0;exitDy=0;exitPerimeter=0;entryX=0;entryY=0.75;entryDx=0;entryDy=0;entryPerimeter=0;" parent="1" source="NyVXkolvV2H5l8ZxX0Ff-45" target="NyVXkolvV2H5l8ZxX0Ff-102" edge="1">
          <mxGeometry relative="1" as="geometry">
            <Array as="points">
              <mxPoint x="1316" y="384" />
              <mxPoint x="1316" y="324" />
            </Array>
          </mxGeometry>
        </mxCell>
        <mxCell id="NyVXkolvV2H5l8ZxX0Ff-114" style="edgeStyle=orthogonalEdgeStyle;rounded=0;orthogonalLoop=1;jettySize=auto;html=1;exitX=1;exitY=0.5;exitDx=0;exitDy=0;exitPerimeter=0;entryX=0;entryY=0.904;entryDx=0;entryDy=0;entryPerimeter=0;" parent="1" source="NyVXkolvV2H5l8ZxX0Ff-46" target="NyVXkolvV2H5l8ZxX0Ff-102" edge="1">
          <mxGeometry relative="1" as="geometry">
            <Array as="points">
              <mxPoint x="1336" y="440" />
              <mxPoint x="1336" y="340" />
            </Array>
          </mxGeometry>
        </mxCell>
        <mxCell id="NyVXkolvV2H5l8ZxX0Ff-116" value="AND" style="text;strokeColor=none;align=center;fillColor=none;html=1;verticalAlign=middle;whiteSpace=wrap;rounded=0;fontStyle=1" parent="1" vertex="1">
          <mxGeometry x="1396" y="287.72999999999996" width="10" height="20" as="geometry" />
        </mxCell>
        <mxCell id="NyVXkolvV2H5l8ZxX0Ff-117" value="segA" style="text;strokeColor=none;align=center;fillColor=none;html=1;verticalAlign=middle;whiteSpace=wrap;rounded=0;fontStyle=1" parent="1" vertex="1">
          <mxGeometry x="1516" y="287.72999999999996" width="10" height="20" as="geometry" />
        </mxCell>
        <mxCell id="NyVXkolvV2H5l8ZxX0Ff-140" style="edgeStyle=orthogonalEdgeStyle;rounded=0;orthogonalLoop=1;jettySize=auto;html=1;entryX=0.175;entryY=0.25;entryDx=0;entryDy=0;entryPerimeter=0;" parent="1" target="NyVXkolvV2H5l8ZxX0Ff-118" edge="1">
          <mxGeometry relative="1" as="geometry">
            <mxPoint x="520" y="169" as="sourcePoint" />
            <Array as="points">
              <mxPoint x="520" y="169" />
              <mxPoint x="520" y="546" />
            </Array>
          </mxGeometry>
        </mxCell>
        <mxCell id="NyVXkolvV2H5l8ZxX0Ff-142" style="edgeStyle=orthogonalEdgeStyle;rounded=0;orthogonalLoop=1;jettySize=auto;html=1;entryX=0.175;entryY=0.75;entryDx=0;entryDy=0;entryPerimeter=0;" parent="1" target="NyVXkolvV2H5l8ZxX0Ff-118" edge="1">
          <mxGeometry relative="1" as="geometry">
            <mxPoint x="530" y="341" as="sourcePoint" />
            <Array as="points">
              <mxPoint x="530" y="341" />
              <mxPoint x="530" y="567" />
            </Array>
          </mxGeometry>
        </mxCell>
        <mxCell id="NyVXkolvV2H5l8ZxX0Ff-118" value="" style="shape=xor;whiteSpace=wrap;html=1;" parent="1" vertex="1">
          <mxGeometry x="1195" y="536.01" width="40" height="41.46" as="geometry" />
        </mxCell>
        <mxCell id="NyVXkolvV2H5l8ZxX0Ff-144" style="edgeStyle=orthogonalEdgeStyle;rounded=0;orthogonalLoop=1;jettySize=auto;html=1;entryX=0.175;entryY=0.25;entryDx=0;entryDy=0;entryPerimeter=0;" parent="1" target="NyVXkolvV2H5l8ZxX0Ff-119" edge="1">
          <mxGeometry relative="1" as="geometry">
            <mxPoint x="540" y="550" as="sourcePoint" />
            <Array as="points">
              <mxPoint x="540" y="596" />
            </Array>
          </mxGeometry>
        </mxCell>
        <mxCell id="NyVXkolvV2H5l8ZxX0Ff-146" style="edgeStyle=orthogonalEdgeStyle;rounded=0;orthogonalLoop=1;jettySize=auto;html=1;entryX=0.25;entryY=0.5;entryDx=0;entryDy=0;entryPerimeter=0;" parent="1" target="NyVXkolvV2H5l8ZxX0Ff-119" edge="1">
          <mxGeometry relative="1" as="geometry">
            <mxPoint x="550" y="390" as="sourcePoint" />
            <Array as="points">
              <mxPoint x="550" y="607" />
            </Array>
          </mxGeometry>
        </mxCell>
        <mxCell id="NyVXkolvV2H5l8ZxX0Ff-148" style="edgeStyle=orthogonalEdgeStyle;rounded=0;orthogonalLoop=1;jettySize=auto;html=1;entryX=0.175;entryY=0.75;entryDx=0;entryDy=0;entryPerimeter=0;" parent="1" target="NyVXkolvV2H5l8ZxX0Ff-119" edge="1">
          <mxGeometry relative="1" as="geometry">
            <mxPoint x="570" y="350" as="sourcePoint" />
            <Array as="points">
              <mxPoint x="570" y="617" />
            </Array>
          </mxGeometry>
        </mxCell>
        <mxCell id="NyVXkolvV2H5l8ZxX0Ff-119" value="" style="shape=xor;whiteSpace=wrap;html=1;" parent="1" vertex="1">
          <mxGeometry x="1195" y="586.01" width="40" height="41.46" as="geometry" />
        </mxCell>
        <mxCell id="NyVXkolvV2H5l8ZxX0Ff-150" style="edgeStyle=orthogonalEdgeStyle;rounded=0;orthogonalLoop=1;jettySize=auto;html=1;entryX=0.175;entryY=0.25;entryDx=0;entryDy=0;entryPerimeter=0;" parent="1" target="NyVXkolvV2H5l8ZxX0Ff-120" edge="1">
          <mxGeometry relative="1" as="geometry">
            <mxPoint x="600" y="600" as="sourcePoint" />
            <Array as="points">
              <mxPoint x="600" y="655" />
            </Array>
          </mxGeometry>
        </mxCell>
        <mxCell id="NyVXkolvV2H5l8ZxX0Ff-152" style="edgeStyle=orthogonalEdgeStyle;rounded=0;orthogonalLoop=1;jettySize=auto;html=1;exitX=0.25;exitY=0.5;exitDx=0;exitDy=0;exitPerimeter=0;entryX=0.25;entryY=0.5;entryDx=0;entryDy=0;entryPerimeter=0;" parent="1" target="NyVXkolvV2H5l8ZxX0Ff-120" edge="1">
          <mxGeometry relative="1" as="geometry">
            <mxPoint x="460" y="664.4444444444443" as="sourcePoint" />
          </mxGeometry>
        </mxCell>
        <mxCell id="NyVXkolvV2H5l8ZxX0Ff-155" style="edgeStyle=orthogonalEdgeStyle;rounded=0;orthogonalLoop=1;jettySize=auto;html=1;exitX=0.175;exitY=0.75;exitDx=0;exitDy=0;exitPerimeter=0;entryX=0.175;entryY=0.75;entryDx=0;entryDy=0;entryPerimeter=0;" parent="1" target="NyVXkolvV2H5l8ZxX0Ff-120" edge="1">
          <mxGeometry relative="1" as="geometry">
            <mxPoint x="490" y="675.6521739130435" as="sourcePoint" />
          </mxGeometry>
        </mxCell>
        <mxCell id="NyVXkolvV2H5l8ZxX0Ff-120" value="" style="shape=xor;whiteSpace=wrap;html=1;" parent="1" vertex="1">
          <mxGeometry x="1195" y="644.1800000000001" width="40" height="41.46" as="geometry" />
        </mxCell>
        <mxCell id="NyVXkolvV2H5l8ZxX0Ff-157" style="edgeStyle=orthogonalEdgeStyle;rounded=0;orthogonalLoop=1;jettySize=auto;html=1;entryX=0.175;entryY=0.25;entryDx=0;entryDy=0;entryPerimeter=0;" parent="1" target="NyVXkolvV2H5l8ZxX0Ff-121" edge="1">
          <mxGeometry relative="1" as="geometry">
            <mxPoint x="470" y="540" as="sourcePoint" />
            <Array as="points">
              <mxPoint x="470" y="705" />
            </Array>
          </mxGeometry>
        </mxCell>
        <mxCell id="NyVXkolvV2H5l8ZxX0Ff-159" style="edgeStyle=orthogonalEdgeStyle;rounded=0;orthogonalLoop=1;jettySize=auto;html=1;entryX=0.25;entryY=0.5;entryDx=0;entryDy=0;entryPerimeter=0;" parent="1" target="NyVXkolvV2H5l8ZxX0Ff-121" edge="1">
          <mxGeometry relative="1" as="geometry">
            <mxPoint x="620" y="581" as="sourcePoint" />
            <Array as="points">
              <mxPoint x="620" y="715" />
            </Array>
          </mxGeometry>
        </mxCell>
        <mxCell id="NyVXkolvV2H5l8ZxX0Ff-164" style="edgeStyle=orthogonalEdgeStyle;rounded=0;orthogonalLoop=1;jettySize=auto;html=1;exitX=0.175;exitY=0.75;exitDx=0;exitDy=0;exitPerimeter=0;entryX=0.175;entryY=0.75;entryDx=0;entryDy=0;entryPerimeter=0;" parent="1" target="NyVXkolvV2H5l8ZxX0Ff-121" edge="1">
          <mxGeometry relative="1" as="geometry">
            <mxPoint x="650" y="620" as="sourcePoint" />
            <Array as="points">
              <mxPoint x="650" y="726" />
            </Array>
          </mxGeometry>
        </mxCell>
        <mxCell id="NyVXkolvV2H5l8ZxX0Ff-121" value="" style="shape=xor;whiteSpace=wrap;html=1;" parent="1" vertex="1">
          <mxGeometry x="1195" y="694.55" width="40" height="41.46" as="geometry" />
        </mxCell>
        <mxCell id="NyVXkolvV2H5l8ZxX0Ff-166" style="edgeStyle=orthogonalEdgeStyle;rounded=0;orthogonalLoop=1;jettySize=auto;html=1;entryX=0.175;entryY=0.25;entryDx=0;entryDy=0;entryPerimeter=0;" parent="1" target="NyVXkolvV2H5l8ZxX0Ff-122" edge="1">
          <mxGeometry relative="1" as="geometry">
            <mxPoint x="660" y="710" as="sourcePoint" />
            <Array as="points">
              <mxPoint x="660" y="756" />
            </Array>
          </mxGeometry>
        </mxCell>
        <mxCell id="NyVXkolvV2H5l8ZxX0Ff-168" style="edgeStyle=orthogonalEdgeStyle;rounded=0;orthogonalLoop=1;jettySize=auto;html=1;entryX=0.25;entryY=0.5;entryDx=0;entryDy=0;entryPerimeter=0;" parent="1" target="NyVXkolvV2H5l8ZxX0Ff-122" edge="1">
          <mxGeometry relative="1" as="geometry">
            <mxPoint x="680" y="610" as="sourcePoint" />
            <Array as="points">
              <mxPoint x="680" y="610" />
              <mxPoint x="680" y="766" />
            </Array>
          </mxGeometry>
        </mxCell>
        <mxCell id="NyVXkolvV2H5l8ZxX0Ff-171" style="edgeStyle=orthogonalEdgeStyle;rounded=0;orthogonalLoop=1;jettySize=auto;html=1;exitX=0.175;exitY=0.75;exitDx=0;exitDy=0;exitPerimeter=0;entryX=0.175;entryY=0.75;entryDx=0;entryDy=0;entryPerimeter=0;" parent="1" target="NyVXkolvV2H5l8ZxX0Ff-122" edge="1">
          <mxGeometry relative="1" as="geometry">
            <mxPoint x="490" y="776.4827586206898" as="sourcePoint" />
          </mxGeometry>
        </mxCell>
        <mxCell id="NyVXkolvV2H5l8ZxX0Ff-122" value="" style="shape=xor;whiteSpace=wrap;html=1;" parent="1" vertex="1">
          <mxGeometry x="1195" y="745.28" width="40" height="41.46" as="geometry" />
        </mxCell>
        <mxCell id="NyVXkolvV2H5l8ZxX0Ff-124" value="OR" style="text;strokeColor=none;align=center;fillColor=none;html=1;verticalAlign=middle;whiteSpace=wrap;rounded=0;fontStyle=1" parent="1" vertex="1">
          <mxGeometry x="1210" y="546.74" width="10" height="20" as="geometry" />
        </mxCell>
        <mxCell id="NyVXkolvV2H5l8ZxX0Ff-125" value="OR" style="text;strokeColor=none;align=center;fillColor=none;html=1;verticalAlign=middle;whiteSpace=wrap;rounded=0;fontStyle=1" parent="1" vertex="1">
          <mxGeometry x="1210" y="596.74" width="10" height="20" as="geometry" />
        </mxCell>
        <mxCell id="NyVXkolvV2H5l8ZxX0Ff-126" value="OR" style="text;strokeColor=none;align=center;fillColor=none;html=1;verticalAlign=middle;whiteSpace=wrap;rounded=0;fontStyle=1" parent="1" vertex="1">
          <mxGeometry x="1210" y="654.91" width="10" height="20" as="geometry" />
        </mxCell>
        <mxCell id="NyVXkolvV2H5l8ZxX0Ff-127" value="OR" style="text;strokeColor=none;align=center;fillColor=none;html=1;verticalAlign=middle;whiteSpace=wrap;rounded=0;fontStyle=1" parent="1" vertex="1">
          <mxGeometry x="1210" y="705.28" width="10" height="20" as="geometry" />
        </mxCell>
        <mxCell id="NyVXkolvV2H5l8ZxX0Ff-128" value="OR" style="text;strokeColor=none;align=center;fillColor=none;html=1;verticalAlign=middle;whiteSpace=wrap;rounded=0;fontStyle=1" parent="1" vertex="1">
          <mxGeometry x="1210" y="756.01" width="10" height="20" as="geometry" />
        </mxCell>
        <mxCell id="NyVXkolvV2H5l8ZxX0Ff-130" style="edgeStyle=orthogonalEdgeStyle;rounded=0;orthogonalLoop=1;jettySize=auto;html=1;exitX=1;exitY=0.5;exitDx=0;exitDy=0;exitPerimeter=0;" parent="1" source="NyVXkolvV2H5l8ZxX0Ff-131" edge="1">
          <mxGeometry relative="1" as="geometry">
            <mxPoint x="1506" y="679.3946153846153" as="targetPoint" />
          </mxGeometry>
        </mxCell>
        <mxCell id="NyVXkolvV2H5l8ZxX0Ff-131" value="" style="shape=or;whiteSpace=wrap;html=1;" parent="1" vertex="1">
          <mxGeometry x="1366" y="627.47" width="80" height="104.54" as="geometry" />
        </mxCell>
        <mxCell id="NyVXkolvV2H5l8ZxX0Ff-132" style="edgeStyle=orthogonalEdgeStyle;rounded=0;orthogonalLoop=1;jettySize=auto;html=1;exitX=1;exitY=0.5;exitDx=0;exitDy=0;exitPerimeter=0;entryX=-0.013;entryY=0.081;entryDx=0;entryDy=0;entryPerimeter=0;" parent="1" source="NyVXkolvV2H5l8ZxX0Ff-118" target="NyVXkolvV2H5l8ZxX0Ff-131" edge="1">
          <mxGeometry relative="1" as="geometry" />
        </mxCell>
        <mxCell id="NyVXkolvV2H5l8ZxX0Ff-133" style="edgeStyle=orthogonalEdgeStyle;rounded=0;orthogonalLoop=1;jettySize=auto;html=1;exitX=1;exitY=0.5;exitDx=0;exitDy=0;exitPerimeter=0;" parent="1" edge="1">
          <mxGeometry relative="1" as="geometry">
            <mxPoint x="1235" y="603.74" as="sourcePoint" />
            <mxPoint x="1366" y="657.01" as="targetPoint" />
            <Array as="points">
              <mxPoint x="1276" y="604.01" />
              <mxPoint x="1276" y="657.01" />
            </Array>
          </mxGeometry>
        </mxCell>
        <mxCell id="NyVXkolvV2H5l8ZxX0Ff-134" style="edgeStyle=orthogonalEdgeStyle;rounded=0;orthogonalLoop=1;jettySize=auto;html=1;exitX=1;exitY=0.5;exitDx=0;exitDy=0;exitPerimeter=0;entryX=-0.006;entryY=0.458;entryDx=0;entryDy=0;entryPerimeter=0;" parent="1" source="NyVXkolvV2H5l8ZxX0Ff-120" target="NyVXkolvV2H5l8ZxX0Ff-131" edge="1">
          <mxGeometry relative="1" as="geometry" />
        </mxCell>
        <mxCell id="NyVXkolvV2H5l8ZxX0Ff-135" style="edgeStyle=orthogonalEdgeStyle;rounded=0;orthogonalLoop=1;jettySize=auto;html=1;exitX=1;exitY=0.5;exitDx=0;exitDy=0;exitPerimeter=0;entryX=0;entryY=0.714;entryDx=0;entryDy=0;entryPerimeter=0;" parent="1" source="NyVXkolvV2H5l8ZxX0Ff-121" target="NyVXkolvV2H5l8ZxX0Ff-131" edge="1">
          <mxGeometry relative="1" as="geometry">
            <Array as="points">
              <mxPoint x="1301" y="715" />
              <mxPoint x="1301" y="702" />
            </Array>
          </mxGeometry>
        </mxCell>
        <mxCell id="NyVXkolvV2H5l8ZxX0Ff-136" style="edgeStyle=orthogonalEdgeStyle;rounded=0;orthogonalLoop=1;jettySize=auto;html=1;exitX=1;exitY=0.5;exitDx=0;exitDy=0;exitPerimeter=0;" parent="1" source="NyVXkolvV2H5l8ZxX0Ff-122" edge="1">
          <mxGeometry relative="1" as="geometry">
            <Array as="points">
              <mxPoint x="1316" y="766" />
              <mxPoint x="1316" y="720" />
            </Array>
            <mxPoint x="1366" y="720" as="targetPoint" />
          </mxGeometry>
        </mxCell>
        <mxCell id="NyVXkolvV2H5l8ZxX0Ff-138" value="AND" style="text;strokeColor=none;align=center;fillColor=none;html=1;verticalAlign=middle;whiteSpace=wrap;rounded=0;fontStyle=1" parent="1" vertex="1">
          <mxGeometry x="1376" y="669.74" width="30" height="20" as="geometry" />
        </mxCell>
        <mxCell id="NyVXkolvV2H5l8ZxX0Ff-139" value="segB" style="text;strokeColor=none;align=center;fillColor=none;html=1;verticalAlign=middle;whiteSpace=wrap;rounded=0;fontStyle=1" parent="1" vertex="1">
          <mxGeometry x="1516" y="669.74" width="10" height="20" as="geometry" />
        </mxCell>
        <mxCell id="NyVXkolvV2H5l8ZxX0Ff-141" value="" style="endArrow=none;html=1;rounded=0;startArrow=oval;startFill=1;" parent="1" edge="1">
          <mxGeometry width="50" height="50" relative="1" as="geometry">
            <mxPoint x="520" y="164.73" as="sourcePoint" />
            <mxPoint x="520" y="214.73" as="targetPoint" />
          </mxGeometry>
        </mxCell>
        <mxCell id="NyVXkolvV2H5l8ZxX0Ff-143" value="" style="endArrow=none;html=1;rounded=0;startArrow=oval;startFill=1;" parent="1" edge="1">
          <mxGeometry width="50" height="50" relative="1" as="geometry">
            <mxPoint x="530" y="333" as="sourcePoint" />
            <mxPoint x="530" y="383" as="targetPoint" />
          </mxGeometry>
        </mxCell>
        <mxCell id="NyVXkolvV2H5l8ZxX0Ff-145" value="" style="endArrow=none;html=1;rounded=0;startArrow=oval;startFill=1;" parent="1" edge="1">
          <mxGeometry width="50" height="50" relative="1" as="geometry">
            <mxPoint x="540" y="546.74" as="sourcePoint" />
            <mxPoint x="540" y="596.74" as="targetPoint" />
          </mxGeometry>
        </mxCell>
        <mxCell id="NyVXkolvV2H5l8ZxX0Ff-147" value="" style="endArrow=none;html=1;rounded=0;startArrow=oval;startFill=1;" parent="1" edge="1">
          <mxGeometry width="50" height="50" relative="1" as="geometry">
            <mxPoint x="550" y="383.65" as="sourcePoint" />
            <mxPoint x="550" y="433.65" as="targetPoint" />
          </mxGeometry>
        </mxCell>
        <mxCell id="NyVXkolvV2H5l8ZxX0Ff-149" value="" style="endArrow=none;html=1;rounded=0;startArrow=oval;startFill=1;" parent="1" edge="1">
          <mxGeometry width="50" height="50" relative="1" as="geometry">
            <mxPoint x="570" y="344" as="sourcePoint" />
            <mxPoint x="570" y="394" as="targetPoint" />
          </mxGeometry>
        </mxCell>
        <mxCell id="NyVXkolvV2H5l8ZxX0Ff-151" value="" style="endArrow=none;html=1;rounded=0;startArrow=oval;startFill=1;" parent="1" edge="1">
          <mxGeometry width="50" height="50" relative="1" as="geometry">
            <mxPoint x="600" y="596.74" as="sourcePoint" />
            <mxPoint x="600" y="646.74" as="targetPoint" />
          </mxGeometry>
        </mxCell>
        <mxCell id="NyVXkolvV2H5l8ZxX0Ff-154" value="" style="endArrow=none;html=1;rounded=0;startArrow=oval;startFill=1;" parent="1" edge="1">
          <mxGeometry width="50" height="50" relative="1" as="geometry">
            <mxPoint x="450" y="664.55" as="sourcePoint" />
            <mxPoint x="480" y="664.55" as="targetPoint" />
          </mxGeometry>
        </mxCell>
        <mxCell id="NyVXkolvV2H5l8ZxX0Ff-156" value="" style="endArrow=none;html=1;rounded=0;startArrow=oval;startFill=1;" parent="1" edge="1">
          <mxGeometry width="50" height="50" relative="1" as="geometry">
            <mxPoint x="490" y="675.91" as="sourcePoint" />
            <mxPoint x="520" y="675.91" as="targetPoint" />
          </mxGeometry>
        </mxCell>
        <mxCell id="NyVXkolvV2H5l8ZxX0Ff-158" value="" style="endArrow=none;html=1;rounded=0;startArrow=oval;startFill=1;" parent="1" edge="1">
          <mxGeometry width="50" height="50" relative="1" as="geometry">
            <mxPoint x="470" y="529.74" as="sourcePoint" />
            <mxPoint x="470" y="579.74" as="targetPoint" />
          </mxGeometry>
        </mxCell>
        <mxCell id="NyVXkolvV2H5l8ZxX0Ff-160" value="" style="endArrow=none;html=1;rounded=0;startArrow=oval;startFill=1;" parent="1" edge="1">
          <mxGeometry width="50" height="50" relative="1" as="geometry">
            <mxPoint x="620" y="566.74" as="sourcePoint" />
            <mxPoint x="620" y="616.74" as="targetPoint" />
          </mxGeometry>
        </mxCell>
        <mxCell id="NyVXkolvV2H5l8ZxX0Ff-165" value="" style="endArrow=none;html=1;rounded=0;startArrow=oval;startFill=1;" parent="1" edge="1">
          <mxGeometry width="50" height="50" relative="1" as="geometry">
            <mxPoint x="650" y="618" as="sourcePoint" />
            <mxPoint x="650" y="668" as="targetPoint" />
          </mxGeometry>
        </mxCell>
        <mxCell id="NyVXkolvV2H5l8ZxX0Ff-167" value="" style="endArrow=none;html=1;rounded=0;startArrow=oval;startFill=1;" parent="1" edge="1">
          <mxGeometry width="50" height="50" relative="1" as="geometry">
            <mxPoint x="660" y="705.28" as="sourcePoint" />
            <mxPoint x="660" y="755.28" as="targetPoint" />
          </mxGeometry>
        </mxCell>
        <mxCell id="NyVXkolvV2H5l8ZxX0Ff-170" value="" style="endArrow=none;html=1;rounded=0;startArrow=oval;startFill=1;" parent="1" edge="1">
          <mxGeometry width="50" height="50" relative="1" as="geometry">
            <mxPoint x="680" y="608" as="sourcePoint" />
            <mxPoint x="680" y="658" as="targetPoint" />
          </mxGeometry>
        </mxCell>
        <mxCell id="NyVXkolvV2H5l8ZxX0Ff-172" value="" style="endArrow=none;html=1;rounded=0;startArrow=oval;startFill=1;" parent="1" edge="1">
          <mxGeometry width="50" height="50" relative="1" as="geometry">
            <mxPoint x="490" y="776.01" as="sourcePoint" />
            <mxPoint x="520" y="776.01" as="targetPoint" />
          </mxGeometry>
        </mxCell>
        <mxCell id="NyVXkolvV2H5l8ZxX0Ff-194" style="edgeStyle=orthogonalEdgeStyle;rounded=0;orthogonalLoop=1;jettySize=auto;html=1;entryX=0.175;entryY=0.75;entryDx=0;entryDy=0;entryPerimeter=0;" parent="1" target="NyVXkolvV2H5l8ZxX0Ff-173" edge="1">
          <mxGeometry relative="1" as="geometry">
            <mxPoint x="700" y="770" as="sourcePoint" />
            <Array as="points">
              <mxPoint x="700" y="771" />
              <mxPoint x="700" y="938" />
            </Array>
          </mxGeometry>
        </mxCell>
        <mxCell id="NyVXkolvV2H5l8ZxX0Ff-173" value="" style="shape=xor;whiteSpace=wrap;html=1;" parent="1" vertex="1">
          <mxGeometry x="1195" y="907" width="40" height="41.46" as="geometry" />
        </mxCell>
        <mxCell id="NyVXkolvV2H5l8ZxX0Ff-196" style="edgeStyle=orthogonalEdgeStyle;rounded=0;orthogonalLoop=1;jettySize=auto;html=1;entryX=0.175;entryY=0.25;entryDx=0;entryDy=0;entryPerimeter=0;" parent="1" target="NyVXkolvV2H5l8ZxX0Ff-174" edge="1">
          <mxGeometry relative="1" as="geometry">
            <mxPoint x="710" y="920" as="sourcePoint" />
            <Array as="points">
              <mxPoint x="710" y="967" />
            </Array>
          </mxGeometry>
        </mxCell>
        <mxCell id="NyVXkolvV2H5l8ZxX0Ff-198" style="edgeStyle=orthogonalEdgeStyle;rounded=0;orthogonalLoop=1;jettySize=auto;html=1;entryX=0.175;entryY=0.75;entryDx=0;entryDy=0;entryPerimeter=0;" parent="1" target="NyVXkolvV2H5l8ZxX0Ff-174" edge="1">
          <mxGeometry relative="1" as="geometry">
            <mxPoint x="720" y="680" as="sourcePoint" />
            <Array as="points">
              <mxPoint x="720" y="988" />
            </Array>
          </mxGeometry>
        </mxCell>
        <mxCell id="NyVXkolvV2H5l8ZxX0Ff-174" value="" style="shape=xor;whiteSpace=wrap;html=1;" parent="1" vertex="1">
          <mxGeometry x="1195" y="957" width="40" height="41.46" as="geometry" />
        </mxCell>
        <mxCell id="NyVXkolvV2H5l8ZxX0Ff-200" style="edgeStyle=orthogonalEdgeStyle;rounded=0;orthogonalLoop=1;jettySize=auto;html=1;entryX=0.175;entryY=0.25;entryDx=0;entryDy=0;entryPerimeter=0;" parent="1" target="NyVXkolvV2H5l8ZxX0Ff-175" edge="1">
          <mxGeometry relative="1" as="geometry">
            <mxPoint x="730" y="760" as="sourcePoint" />
            <Array as="points">
              <mxPoint x="730" y="1025" />
            </Array>
          </mxGeometry>
        </mxCell>
        <mxCell id="NyVXkolvV2H5l8ZxX0Ff-202" style="edgeStyle=orthogonalEdgeStyle;rounded=0;orthogonalLoop=1;jettySize=auto;html=1;entryX=0.175;entryY=0.75;entryDx=0;entryDy=0;entryPerimeter=0;" parent="1" target="NyVXkolvV2H5l8ZxX0Ff-175" edge="1">
          <mxGeometry relative="1" as="geometry">
            <mxPoint x="740" y="720" as="sourcePoint" />
            <Array as="points">
              <mxPoint x="740" y="1046" />
            </Array>
          </mxGeometry>
        </mxCell>
        <mxCell id="NyVXkolvV2H5l8ZxX0Ff-175" value="" style="shape=xor;whiteSpace=wrap;html=1;" parent="1" vertex="1">
          <mxGeometry x="1195" y="1015.1700000000001" width="40" height="41.46" as="geometry" />
        </mxCell>
        <mxCell id="NyVXkolvV2H5l8ZxX0Ff-204" style="edgeStyle=orthogonalEdgeStyle;rounded=0;orthogonalLoop=1;jettySize=auto;html=1;entryX=0.175;entryY=0.25;entryDx=0;entryDy=0;entryPerimeter=0;" parent="1" target="NyVXkolvV2H5l8ZxX0Ff-176" edge="1">
          <mxGeometry relative="1" as="geometry">
            <mxPoint x="750" y="970" as="sourcePoint" />
            <Array as="points">
              <mxPoint x="750" y="1076" />
            </Array>
          </mxGeometry>
        </mxCell>
        <mxCell id="NyVXkolvV2H5l8ZxX0Ff-208" style="edgeStyle=orthogonalEdgeStyle;rounded=0;orthogonalLoop=1;jettySize=auto;html=1;entryX=0.175;entryY=0.75;entryDx=0;entryDy=0;entryPerimeter=0;" parent="1" target="NyVXkolvV2H5l8ZxX0Ff-176" edge="1">
          <mxGeometry relative="1" as="geometry">
            <mxPoint x="770" y="460" as="sourcePoint" />
            <Array as="points">
              <mxPoint x="770" y="1097" />
            </Array>
          </mxGeometry>
        </mxCell>
        <mxCell id="NyVXkolvV2H5l8ZxX0Ff-176" value="" style="shape=xor;whiteSpace=wrap;html=1;" parent="1" vertex="1">
          <mxGeometry x="1195" y="1065.54" width="40" height="41.46" as="geometry" />
        </mxCell>
        <mxCell id="NyVXkolvV2H5l8ZxX0Ff-210" style="edgeStyle=orthogonalEdgeStyle;rounded=0;orthogonalLoop=1;jettySize=auto;html=1;entryX=0.175;entryY=0.25;entryDx=0;entryDy=0;entryPerimeter=0;" parent="1" target="NyVXkolvV2H5l8ZxX0Ff-177" edge="1">
          <mxGeometry relative="1" as="geometry">
            <mxPoint x="800" y="950" as="sourcePoint" />
            <Array as="points">
              <mxPoint x="800" y="950" />
              <mxPoint x="800" y="1127" />
            </Array>
          </mxGeometry>
        </mxCell>
        <mxCell id="NyVXkolvV2H5l8ZxX0Ff-212" style="edgeStyle=orthogonalEdgeStyle;rounded=0;orthogonalLoop=1;jettySize=auto;html=1;entryX=0.175;entryY=0.75;entryDx=0;entryDy=0;entryPerimeter=0;" parent="1" target="NyVXkolvV2H5l8ZxX0Ff-177" edge="1">
          <mxGeometry relative="1" as="geometry">
            <mxPoint x="820" y="990" as="sourcePoint" />
            <Array as="points">
              <mxPoint x="820" y="1147" />
            </Array>
          </mxGeometry>
        </mxCell>
        <mxCell id="NyVXkolvV2H5l8ZxX0Ff-177" value="" style="shape=xor;whiteSpace=wrap;html=1;" parent="1" vertex="1">
          <mxGeometry x="1195" y="1116.27" width="40" height="41.46" as="geometry" />
        </mxCell>
        <mxCell id="NyVXkolvV2H5l8ZxX0Ff-178" value="OR" style="text;strokeColor=none;align=center;fillColor=none;html=1;verticalAlign=middle;whiteSpace=wrap;rounded=0;fontStyle=1" parent="1" vertex="1">
          <mxGeometry x="1210" y="917.73" width="10" height="20" as="geometry" />
        </mxCell>
        <mxCell id="NyVXkolvV2H5l8ZxX0Ff-179" value="OR" style="text;strokeColor=none;align=center;fillColor=none;html=1;verticalAlign=middle;whiteSpace=wrap;rounded=0;fontStyle=1" parent="1" vertex="1">
          <mxGeometry x="1210" y="967.73" width="10" height="20" as="geometry" />
        </mxCell>
        <mxCell id="NyVXkolvV2H5l8ZxX0Ff-180" value="OR" style="text;strokeColor=none;align=center;fillColor=none;html=1;verticalAlign=middle;whiteSpace=wrap;rounded=0;fontStyle=1" parent="1" vertex="1">
          <mxGeometry x="1210" y="1025.9" width="10" height="20" as="geometry" />
        </mxCell>
        <mxCell id="NyVXkolvV2H5l8ZxX0Ff-181" value="OR" style="text;strokeColor=none;align=center;fillColor=none;html=1;verticalAlign=middle;whiteSpace=wrap;rounded=0;fontStyle=1" parent="1" vertex="1">
          <mxGeometry x="1210" y="1076.27" width="10" height="20" as="geometry" />
        </mxCell>
        <mxCell id="NyVXkolvV2H5l8ZxX0Ff-182" value="OR" style="text;strokeColor=none;align=center;fillColor=none;html=1;verticalAlign=middle;whiteSpace=wrap;rounded=0;fontStyle=1" parent="1" vertex="1">
          <mxGeometry x="1210" y="1127" width="10" height="20" as="geometry" />
        </mxCell>
        <mxCell id="NyVXkolvV2H5l8ZxX0Ff-183" style="edgeStyle=orthogonalEdgeStyle;rounded=0;orthogonalLoop=1;jettySize=auto;html=1;exitX=1;exitY=0.5;exitDx=0;exitDy=0;exitPerimeter=0;" parent="1" source="NyVXkolvV2H5l8ZxX0Ff-184" edge="1">
          <mxGeometry relative="1" as="geometry">
            <mxPoint x="1506" y="1050.3846153846152" as="targetPoint" />
          </mxGeometry>
        </mxCell>
        <mxCell id="NyVXkolvV2H5l8ZxX0Ff-184" value="" style="shape=or;whiteSpace=wrap;html=1;" parent="1" vertex="1">
          <mxGeometry x="1366" y="998.46" width="80" height="104.54" as="geometry" />
        </mxCell>
        <mxCell id="NyVXkolvV2H5l8ZxX0Ff-185" style="edgeStyle=orthogonalEdgeStyle;rounded=0;orthogonalLoop=1;jettySize=auto;html=1;exitX=1;exitY=0.5;exitDx=0;exitDy=0;exitPerimeter=0;entryX=-0.013;entryY=0.081;entryDx=0;entryDy=0;entryPerimeter=0;" parent="1" source="NyVXkolvV2H5l8ZxX0Ff-173" target="NyVXkolvV2H5l8ZxX0Ff-184" edge="1">
          <mxGeometry relative="1" as="geometry" />
        </mxCell>
        <mxCell id="NyVXkolvV2H5l8ZxX0Ff-186" style="edgeStyle=orthogonalEdgeStyle;rounded=0;orthogonalLoop=1;jettySize=auto;html=1;exitX=1;exitY=0.5;exitDx=0;exitDy=0;exitPerimeter=0;" parent="1" edge="1">
          <mxGeometry relative="1" as="geometry">
            <mxPoint x="1235" y="974.73" as="sourcePoint" />
            <mxPoint x="1366" y="1028" as="targetPoint" />
            <Array as="points">
              <mxPoint x="1276" y="975" />
              <mxPoint x="1276" y="1028" />
            </Array>
          </mxGeometry>
        </mxCell>
        <mxCell id="NyVXkolvV2H5l8ZxX0Ff-187" style="edgeStyle=orthogonalEdgeStyle;rounded=0;orthogonalLoop=1;jettySize=auto;html=1;exitX=1;exitY=0.5;exitDx=0;exitDy=0;exitPerimeter=0;entryX=-0.006;entryY=0.458;entryDx=0;entryDy=0;entryPerimeter=0;" parent="1" source="NyVXkolvV2H5l8ZxX0Ff-175" target="NyVXkolvV2H5l8ZxX0Ff-184" edge="1">
          <mxGeometry relative="1" as="geometry" />
        </mxCell>
        <mxCell id="NyVXkolvV2H5l8ZxX0Ff-188" style="edgeStyle=orthogonalEdgeStyle;rounded=0;orthogonalLoop=1;jettySize=auto;html=1;exitX=1;exitY=0.5;exitDx=0;exitDy=0;exitPerimeter=0;entryX=0;entryY=0.714;entryDx=0;entryDy=0;entryPerimeter=0;" parent="1" source="NyVXkolvV2H5l8ZxX0Ff-176" target="NyVXkolvV2H5l8ZxX0Ff-184" edge="1">
          <mxGeometry relative="1" as="geometry">
            <Array as="points">
              <mxPoint x="1301" y="1085.99" />
              <mxPoint x="1301" y="1072.99" />
            </Array>
          </mxGeometry>
        </mxCell>
        <mxCell id="NyVXkolvV2H5l8ZxX0Ff-189" style="edgeStyle=orthogonalEdgeStyle;rounded=0;orthogonalLoop=1;jettySize=auto;html=1;exitX=1;exitY=0.5;exitDx=0;exitDy=0;exitPerimeter=0;" parent="1" source="NyVXkolvV2H5l8ZxX0Ff-177" edge="1">
          <mxGeometry relative="1" as="geometry">
            <Array as="points">
              <mxPoint x="1316" y="1136.99" />
              <mxPoint x="1316" y="1090.99" />
            </Array>
            <mxPoint x="1366" y="1090.99" as="targetPoint" />
          </mxGeometry>
        </mxCell>
        <mxCell id="NyVXkolvV2H5l8ZxX0Ff-190" value="AND" style="text;strokeColor=none;align=center;fillColor=none;html=1;verticalAlign=middle;whiteSpace=wrap;rounded=0;fontStyle=1" parent="1" vertex="1">
          <mxGeometry x="1376" y="1040.73" width="30" height="20" as="geometry" />
        </mxCell>
        <mxCell id="NyVXkolvV2H5l8ZxX0Ff-191" value="segC" style="text;strokeColor=none;align=center;fillColor=none;html=1;verticalAlign=middle;whiteSpace=wrap;rounded=0;fontStyle=1" parent="1" vertex="1">
          <mxGeometry x="1516" y="1040.73" width="10" height="20" as="geometry" />
        </mxCell>
        <mxCell id="NyVXkolvV2H5l8ZxX0Ff-192" style="edgeStyle=orthogonalEdgeStyle;rounded=0;orthogonalLoop=1;jettySize=auto;html=1;entryX=0.175;entryY=0.25;entryDx=0;entryDy=0;entryPerimeter=0;" parent="1" target="NyVXkolvV2H5l8ZxX0Ff-173" edge="1">
          <mxGeometry relative="1" as="geometry">
            <mxPoint x="690" y="660" as="sourcePoint" />
            <mxPoint x="1119" y="917.695" as="targetPoint" />
            <Array as="points">
              <mxPoint x="690" y="917" />
            </Array>
          </mxGeometry>
        </mxCell>
        <mxCell id="NyVXkolvV2H5l8ZxX0Ff-193" value="" style="endArrow=none;html=1;rounded=0;startArrow=oval;startFill=1;" parent="1" edge="1">
          <mxGeometry width="50" height="50" relative="1" as="geometry">
            <mxPoint x="690" y="655.28" as="sourcePoint" />
            <mxPoint x="690" y="705.28" as="targetPoint" />
          </mxGeometry>
        </mxCell>
        <mxCell id="NyVXkolvV2H5l8ZxX0Ff-195" value="" style="endArrow=none;html=1;rounded=0;startArrow=oval;startFill=1;" parent="1" edge="1">
          <mxGeometry width="50" height="50" relative="1" as="geometry">
            <mxPoint x="700" y="765.38" as="sourcePoint" />
            <mxPoint x="700" y="815.38" as="targetPoint" />
          </mxGeometry>
        </mxCell>
        <mxCell id="NyVXkolvV2H5l8ZxX0Ff-197" value="" style="endArrow=none;html=1;rounded=0;startArrow=oval;startFill=1;" parent="1" edge="1">
          <mxGeometry width="50" height="50" relative="1" as="geometry">
            <mxPoint x="710" y="917.73" as="sourcePoint" />
            <mxPoint x="710" y="967.73" as="targetPoint" />
          </mxGeometry>
        </mxCell>
        <mxCell id="NyVXkolvV2H5l8ZxX0Ff-199" value="" style="endArrow=none;html=1;rounded=0;startArrow=oval;startFill=1;" parent="1" edge="1">
          <mxGeometry width="50" height="50" relative="1" as="geometry">
            <mxPoint x="720" y="675.28" as="sourcePoint" />
            <mxPoint x="720" y="725.28" as="targetPoint" />
          </mxGeometry>
        </mxCell>
        <mxCell id="NyVXkolvV2H5l8ZxX0Ff-201" value="" style="endArrow=none;html=1;rounded=0;startArrow=oval;startFill=1;" parent="1" edge="1">
          <mxGeometry width="50" height="50" relative="1" as="geometry">
            <mxPoint x="730" y="756.01" as="sourcePoint" />
            <mxPoint x="730" y="806.01" as="targetPoint" />
          </mxGeometry>
        </mxCell>
        <mxCell id="NyVXkolvV2H5l8ZxX0Ff-203" value="" style="endArrow=none;html=1;rounded=0;startArrow=oval;startFill=1;" parent="1" edge="1">
          <mxGeometry width="50" height="50" relative="1" as="geometry">
            <mxPoint x="740" y="715.38" as="sourcePoint" />
            <mxPoint x="740" y="765.38" as="targetPoint" />
          </mxGeometry>
        </mxCell>
        <mxCell id="NyVXkolvV2H5l8ZxX0Ff-205" value="" style="endArrow=none;html=1;rounded=0;startArrow=oval;startFill=1;" parent="1" edge="1">
          <mxGeometry width="50" height="50" relative="1" as="geometry">
            <mxPoint x="750" y="967.73" as="sourcePoint" />
            <mxPoint x="750" y="1017.73" as="targetPoint" />
          </mxGeometry>
        </mxCell>
        <mxCell id="NyVXkolvV2H5l8ZxX0Ff-207" value="" style="endArrow=none;html=1;rounded=0;startArrow=oval;startFill=1;" parent="1" edge="1">
          <mxGeometry width="50" height="50" relative="1" as="geometry">
            <mxPoint x="540" y="184.73" as="sourcePoint" />
            <mxPoint x="540" y="230" as="targetPoint" />
          </mxGeometry>
        </mxCell>
        <mxCell id="NyVXkolvV2H5l8ZxX0Ff-209" value="" style="endArrow=none;html=1;rounded=0;startArrow=oval;startFill=1;" parent="1" edge="1">
          <mxGeometry width="50" height="50" relative="1" as="geometry">
            <mxPoint x="770" y="440" as="sourcePoint" />
            <mxPoint x="770" y="490" as="targetPoint" />
          </mxGeometry>
        </mxCell>
        <mxCell id="NyVXkolvV2H5l8ZxX0Ff-211" value="" style="endArrow=none;html=1;rounded=0;startArrow=oval;startFill=1;" parent="1" edge="1">
          <mxGeometry width="50" height="50" relative="1" as="geometry">
            <mxPoint x="800" y="937.73" as="sourcePoint" />
            <mxPoint x="800" y="987.73" as="targetPoint" />
          </mxGeometry>
        </mxCell>
        <mxCell id="NyVXkolvV2H5l8ZxX0Ff-213" value="" style="endArrow=none;html=1;rounded=0;startArrow=oval;startFill=1;" parent="1" edge="1">
          <mxGeometry width="50" height="50" relative="1" as="geometry">
            <mxPoint x="820" y="987.73" as="sourcePoint" />
            <mxPoint x="820" y="1037.73" as="targetPoint" />
          </mxGeometry>
        </mxCell>
        <mxCell id="NyVXkolvV2H5l8ZxX0Ff-242" style="edgeStyle=orthogonalEdgeStyle;rounded=0;orthogonalLoop=1;jettySize=auto;html=1;" parent="1" target="NyVXkolvV2H5l8ZxX0Ff-216" edge="1">
          <mxGeometry relative="1" as="geometry">
            <mxPoint x="1250" y="1240" as="targetPoint" />
            <mxPoint x="850" y="670" as="sourcePoint" />
            <Array as="points">
              <mxPoint x="850" y="1240" />
            </Array>
          </mxGeometry>
        </mxCell>
        <mxCell id="NyVXkolvV2H5l8ZxX0Ff-250" style="edgeStyle=orthogonalEdgeStyle;rounded=0;orthogonalLoop=1;jettySize=auto;html=1;exitX=0;exitY=0.75;exitDx=0;exitDy=0;exitPerimeter=0;entryX=0.02;entryY=0.803;entryDx=0;entryDy=0;entryPerimeter=0;" parent="1" target="NyVXkolvV2H5l8ZxX0Ff-214" edge="1">
          <mxGeometry relative="1" as="geometry">
            <mxPoint x="1270" y="1250" as="targetPoint" />
            <mxPoint x="880" y="1150" as="sourcePoint" />
            <Array as="points">
              <mxPoint x="880" y="1250" />
            </Array>
          </mxGeometry>
        </mxCell>
        <mxCell id="NyVXkolvV2H5l8ZxX0Ff-214" value="" style="shape=or;whiteSpace=wrap;html=1;" parent="1" vertex="1">
          <mxGeometry x="1205" y="1210" width="34" height="50" as="geometry" />
        </mxCell>
        <mxCell id="NyVXkolvV2H5l8ZxX0Ff-235" style="edgeStyle=orthogonalEdgeStyle;rounded=0;orthogonalLoop=1;jettySize=auto;html=1;entryX=0.012;entryY=0.203;entryDx=0;entryDy=0;entryPerimeter=0;" parent="1" target="NyVXkolvV2H5l8ZxX0Ff-214" edge="1">
          <mxGeometry relative="1" as="geometry">
            <mxPoint x="1270" y="1220" as="targetPoint" />
            <mxPoint x="826" y="1032" as="sourcePoint" />
            <Array as="points">
              <mxPoint x="826" y="1220" />
            </Array>
          </mxGeometry>
        </mxCell>
        <mxCell id="NyVXkolvV2H5l8ZxX0Ff-239" style="edgeStyle=orthogonalEdgeStyle;rounded=0;orthogonalLoop=1;jettySize=auto;html=1;entryX=0.009;entryY=0.386;entryDx=0;entryDy=0;entryPerimeter=0;" parent="1" target="NyVXkolvV2H5l8ZxX0Ff-216" edge="1">
          <mxGeometry relative="1" as="geometry">
            <mxPoint x="1250" y="1229" as="targetPoint" />
            <mxPoint x="840" y="570" as="sourcePoint" />
            <Array as="points">
              <mxPoint x="840" y="1229" />
            </Array>
          </mxGeometry>
        </mxCell>
        <mxCell id="NyVXkolvV2H5l8ZxX0Ff-216" value="&lt;span style=&quot;color: rgb(0, 0, 0); font-family: Helvetica; font-size: 12px; font-style: normal; font-variant-ligatures: normal; font-variant-caps: normal; font-weight: 700; letter-spacing: normal; orphans: 2; text-align: center; text-indent: 0px; text-transform: none; widows: 2; word-spacing: 0px; -webkit-text-stroke-width: 0px; white-space: normal; background-color: rgb(251, 251, 251); text-decoration-thickness: initial; text-decoration-style: initial; text-decoration-color: initial; display: inline !important; float: none;&quot;&gt;AND&lt;/span&gt;" style="text;whiteSpace=wrap;html=1;" parent="1" vertex="1">
          <mxGeometry x="1205" y="1220.5" width="24" height="23" as="geometry" />
        </mxCell>
        <mxCell id="NyVXkolvV2H5l8ZxX0Ff-228" style="edgeStyle=orthogonalEdgeStyle;rounded=0;orthogonalLoop=1;jettySize=auto;html=1;exitX=1;exitY=0.5;exitDx=0;exitDy=0;exitPerimeter=0;" parent="1" source="NyVXkolvV2H5l8ZxX0Ff-226" edge="1">
          <mxGeometry relative="1" as="geometry">
            <mxPoint x="1509" y="1313" as="targetPoint" />
          </mxGeometry>
        </mxCell>
        <mxCell id="NyVXkolvV2H5l8ZxX0Ff-226" value="" style="shape=xor;whiteSpace=wrap;html=1;" parent="1" vertex="1">
          <mxGeometry x="1332" y="1265.54" width="113" height="94.46" as="geometry" />
        </mxCell>
        <mxCell id="NyVXkolvV2H5l8ZxX0Ff-227" value="OR" style="text;strokeColor=none;align=center;fillColor=none;html=1;verticalAlign=middle;whiteSpace=wrap;rounded=0;fontStyle=1" parent="1" vertex="1">
          <mxGeometry x="1365" y="1290" width="60" height="50" as="geometry" />
        </mxCell>
        <mxCell id="NyVXkolvV2H5l8ZxX0Ff-229" value="segD" style="text;strokeColor=none;align=center;fillColor=none;html=1;verticalAlign=middle;whiteSpace=wrap;rounded=0;fontStyle=1" parent="1" vertex="1">
          <mxGeometry x="1519" y="1302.77" width="10" height="20" as="geometry" />
        </mxCell>
        <mxCell id="NyVXkolvV2H5l8ZxX0Ff-238" value="" style="endArrow=none;html=1;rounded=0;startArrow=oval;startFill=1;" parent="1" edge="1">
          <mxGeometry width="50" height="50" relative="1" as="geometry">
            <mxPoint x="826" y="1025.27" as="sourcePoint" />
            <mxPoint x="826" y="1075.27" as="targetPoint" />
          </mxGeometry>
        </mxCell>
        <mxCell id="NyVXkolvV2H5l8ZxX0Ff-240" value="" style="endArrow=none;html=1;rounded=0;startArrow=oval;startFill=1;" parent="1" edge="1">
          <mxGeometry width="50" height="50" relative="1" as="geometry">
            <mxPoint x="840" y="567" as="sourcePoint" />
            <mxPoint x="840" y="712" as="targetPoint" />
          </mxGeometry>
        </mxCell>
        <mxCell id="NyVXkolvV2H5l8ZxX0Ff-251" value="" style="endArrow=none;html=1;rounded=0;startArrow=oval;startFill=1;" parent="1" edge="1">
          <mxGeometry width="50" height="50" relative="1" as="geometry">
            <mxPoint x="880" y="1147" as="sourcePoint" />
            <mxPoint x="880" y="1197" as="targetPoint" />
          </mxGeometry>
        </mxCell>
        <mxCell id="NyVXkolvV2H5l8ZxX0Ff-270" style="edgeStyle=orthogonalEdgeStyle;rounded=0;orthogonalLoop=1;jettySize=auto;html=1;entryX=-0.006;entryY=0.143;entryDx=0;entryDy=0;entryPerimeter=0;" parent="1" target="NyVXkolvV2H5l8ZxX0Ff-252" edge="1">
          <mxGeometry relative="1" as="geometry">
            <mxPoint x="1286" y="1279.27" as="targetPoint" />
            <mxPoint x="890" y="1220" as="sourcePoint" />
            <Array as="points">
              <mxPoint x="890" y="1280" />
            </Array>
          </mxGeometry>
        </mxCell>
        <mxCell id="NyVXkolvV2H5l8ZxX0Ff-278" style="edgeStyle=orthogonalEdgeStyle;rounded=0;orthogonalLoop=1;jettySize=auto;html=1;exitX=0;exitY=0.75;exitDx=0;exitDy=0;exitPerimeter=0;entryX=0.01;entryY=0.831;entryDx=0;entryDy=0;entryPerimeter=0;" parent="1" target="NyVXkolvV2H5l8ZxX0Ff-252" edge="1">
          <mxGeometry relative="1" as="geometry">
            <mxPoint x="1286" y="1314.2700000000002" as="targetPoint" />
            <mxPoint x="920" y="734" as="sourcePoint" />
            <Array as="points">
              <mxPoint x="920" y="1314" />
            </Array>
          </mxGeometry>
        </mxCell>
        <mxCell id="NyVXkolvV2H5l8ZxX0Ff-252" value="" style="shape=or;whiteSpace=wrap;html=1;" parent="1" vertex="1">
          <mxGeometry x="1205" y="1272.77" width="34" height="50" as="geometry" />
        </mxCell>
        <mxCell id="NyVXkolvV2H5l8ZxX0Ff-272" style="edgeStyle=orthogonalEdgeStyle;rounded=0;orthogonalLoop=1;jettySize=auto;html=1;exitX=0;exitY=0.25;exitDx=0;exitDy=0;entryX=0;entryY=0.25;entryDx=0;entryDy=0;" parent="1" target="NyVXkolvV2H5l8ZxX0Ff-253" edge="1">
          <mxGeometry relative="1" as="geometry">
            <mxPoint x="900" y="1100" as="sourcePoint" />
            <Array as="points">
              <mxPoint x="900" y="1292" />
            </Array>
          </mxGeometry>
        </mxCell>
        <mxCell id="NyVXkolvV2H5l8ZxX0Ff-276" style="edgeStyle=orthogonalEdgeStyle;rounded=0;orthogonalLoop=1;jettySize=auto;html=1;exitX=0;exitY=0.75;exitDx=0;exitDy=0;entryX=0;entryY=0.75;entryDx=0;entryDy=0;" parent="1" target="NyVXkolvV2H5l8ZxX0Ff-253" edge="1">
          <mxGeometry relative="1" as="geometry">
            <mxPoint x="910" y="1240" as="sourcePoint" />
            <Array as="points">
              <mxPoint x="910" y="1304" />
            </Array>
          </mxGeometry>
        </mxCell>
        <mxCell id="NyVXkolvV2H5l8ZxX0Ff-253" value="&lt;span style=&quot;color: rgb(0, 0, 0); font-family: Helvetica; font-size: 12px; font-style: normal; font-variant-ligatures: normal; font-variant-caps: normal; font-weight: 700; letter-spacing: normal; orphans: 2; text-align: center; text-indent: 0px; text-transform: none; widows: 2; word-spacing: 0px; -webkit-text-stroke-width: 0px; white-space: normal; background-color: rgb(251, 251, 251); text-decoration-thickness: initial; text-decoration-style: initial; text-decoration-color: initial; display: inline !important; float: none;&quot;&gt;AND&lt;/span&gt;" style="text;whiteSpace=wrap;html=1;" parent="1" vertex="1">
          <mxGeometry x="1205" y="1286.27" width="24" height="23" as="geometry" />
        </mxCell>
        <mxCell id="NyVXkolvV2H5l8ZxX0Ff-281" style="edgeStyle=orthogonalEdgeStyle;rounded=0;orthogonalLoop=1;jettySize=auto;html=1;exitX=0;exitY=0.25;exitDx=0;exitDy=0;exitPerimeter=0;entryX=0.008;entryY=0.158;entryDx=0;entryDy=0;entryPerimeter=0;" parent="1" target="NyVXkolvV2H5l8ZxX0Ff-254" edge="1">
          <mxGeometry relative="1" as="geometry">
            <mxPoint x="1286" y="1350.5000000000002" as="targetPoint" />
            <mxPoint x="940" y="1128" as="sourcePoint" />
            <Array as="points">
              <mxPoint x="940" y="1350" />
            </Array>
          </mxGeometry>
        </mxCell>
        <mxCell id="NyVXkolvV2H5l8ZxX0Ff-283" style="edgeStyle=orthogonalEdgeStyle;rounded=0;orthogonalLoop=1;jettySize=auto;html=1;entryX=0.019;entryY=0.376;entryDx=0;entryDy=0;entryPerimeter=0;" parent="1" target="NyVXkolvV2H5l8ZxX0Ff-255" edge="1">
          <mxGeometry relative="1" as="geometry">
            <mxPoint x="1286" y="1362" as="targetPoint" />
            <mxPoint x="950" y="1290" as="sourcePoint" />
            <Array as="points">
              <mxPoint x="950" y="1362" />
            </Array>
          </mxGeometry>
        </mxCell>
        <mxCell id="NyVXkolvV2H5l8ZxX0Ff-286" style="edgeStyle=orthogonalEdgeStyle;rounded=0;orthogonalLoop=1;jettySize=auto;html=1;exitX=0;exitY=0.75;exitDx=0;exitDy=0;exitPerimeter=0;entryX=0.006;entryY=0.922;entryDx=0;entryDy=0;entryPerimeter=0;" parent="1" target="NyVXkolvV2H5l8ZxX0Ff-255" edge="1">
          <mxGeometry relative="1" as="geometry">
            <mxPoint x="1286" y="1374.5" as="targetPoint" />
            <mxPoint x="960" y="1127" as="sourcePoint" />
            <Array as="points">
              <mxPoint x="960" y="1374" />
            </Array>
          </mxGeometry>
        </mxCell>
        <mxCell id="NyVXkolvV2H5l8ZxX0Ff-254" value="" style="shape=or;whiteSpace=wrap;html=1;" parent="1" vertex="1">
          <mxGeometry x="1205" y="1342" width="34" height="50" as="geometry" />
        </mxCell>
        <mxCell id="NyVXkolvV2H5l8ZxX0Ff-255" value="&lt;span style=&quot;color: rgb(0, 0, 0); font-family: Helvetica; font-size: 12px; font-style: normal; font-variant-ligatures: normal; font-variant-caps: normal; font-weight: 700; letter-spacing: normal; orphans: 2; text-align: center; text-indent: 0px; text-transform: none; widows: 2; word-spacing: 0px; -webkit-text-stroke-width: 0px; white-space: normal; background-color: rgb(251, 251, 251); text-decoration-thickness: initial; text-decoration-style: initial; text-decoration-color: initial; display: inline !important; float: none;&quot;&gt;AND&lt;/span&gt;" style="text;whiteSpace=wrap;html=1;" parent="1" vertex="1">
          <mxGeometry x="1205" y="1353" width="22" height="22.5" as="geometry" />
        </mxCell>
        <mxCell id="NyVXkolvV2H5l8ZxX0Ff-290" style="edgeStyle=orthogonalEdgeStyle;rounded=0;orthogonalLoop=1;jettySize=auto;html=1;exitX=0;exitY=0.25;exitDx=0;exitDy=0;exitPerimeter=0;entryX=0;entryY=0.25;entryDx=0;entryDy=0;entryPerimeter=0;" parent="1" target="NyVXkolvV2H5l8ZxX0Ff-256" edge="1">
          <mxGeometry relative="1" as="geometry">
            <mxPoint x="980" y="1230" as="sourcePoint" />
            <Array as="points">
              <mxPoint x="980" y="1423" />
            </Array>
          </mxGeometry>
        </mxCell>
        <mxCell id="NyVXkolvV2H5l8ZxX0Ff-295" style="edgeStyle=orthogonalEdgeStyle;rounded=0;orthogonalLoop=1;jettySize=auto;html=1;exitX=0;exitY=0.5;exitDx=0;exitDy=0;exitPerimeter=0;entryX=0;entryY=0.5;entryDx=0;entryDy=0;entryPerimeter=0;" parent="1" target="NyVXkolvV2H5l8ZxX0Ff-256" edge="1">
          <mxGeometry relative="1" as="geometry">
            <mxPoint x="990" y="1380" as="sourcePoint" />
            <Array as="points">
              <mxPoint x="990" y="1435" />
            </Array>
          </mxGeometry>
        </mxCell>
        <mxCell id="NyVXkolvV2H5l8ZxX0Ff-297" style="edgeStyle=orthogonalEdgeStyle;rounded=0;orthogonalLoop=1;jettySize=auto;html=1;exitX=0;exitY=0.75;exitDx=0;exitDy=0;exitPerimeter=0;entryX=0;entryY=0.75;entryDx=0;entryDy=0;entryPerimeter=0;" parent="1" target="NyVXkolvV2H5l8ZxX0Ff-256" edge="1">
          <mxGeometry relative="1" as="geometry">
            <mxPoint x="1000" y="1320" as="sourcePoint" />
            <Array as="points">
              <mxPoint x="1000" y="1448" />
            </Array>
          </mxGeometry>
        </mxCell>
        <mxCell id="NyVXkolvV2H5l8ZxX0Ff-256" value="" style="shape=or;whiteSpace=wrap;html=1;" parent="1" vertex="1">
          <mxGeometry x="1205" y="1410" width="34" height="50" as="geometry" />
        </mxCell>
        <mxCell id="NyVXkolvV2H5l8ZxX0Ff-257" value="&lt;span style=&quot;color: rgb(0, 0, 0); font-family: Helvetica; font-size: 12px; font-style: normal; font-variant-ligatures: normal; font-variant-caps: normal; font-weight: 700; letter-spacing: normal; orphans: 2; text-align: center; text-indent: 0px; text-transform: none; widows: 2; word-spacing: 0px; -webkit-text-stroke-width: 0px; white-space: normal; background-color: rgb(251, 251, 251); text-decoration-thickness: initial; text-decoration-style: initial; text-decoration-color: initial; display: inline !important; float: none;&quot;&gt;AND&lt;/span&gt;" style="text;whiteSpace=wrap;html=1;" parent="1" vertex="1">
          <mxGeometry x="1206" y="1420.5" width="24" height="23" as="geometry" />
        </mxCell>
        <mxCell id="NyVXkolvV2H5l8ZxX0Ff-258" style="edgeStyle=orthogonalEdgeStyle;rounded=0;orthogonalLoop=1;jettySize=auto;html=1;exitX=1;exitY=0.5;exitDx=0;exitDy=0;exitPerimeter=0;entryX=0.175;entryY=0.25;entryDx=0;entryDy=0;entryPerimeter=0;" parent="1" source="NyVXkolvV2H5l8ZxX0Ff-214" target="NyVXkolvV2H5l8ZxX0Ff-226" edge="1">
          <mxGeometry relative="1" as="geometry">
            <Array as="points">
              <mxPoint x="1269" y="1235" />
              <mxPoint x="1269" y="1289" />
            </Array>
          </mxGeometry>
        </mxCell>
        <mxCell id="NyVXkolvV2H5l8ZxX0Ff-259" style="edgeStyle=orthogonalEdgeStyle;rounded=0;orthogonalLoop=1;jettySize=auto;html=1;exitX=1;exitY=0.5;exitDx=0;exitDy=0;exitPerimeter=0;entryX=0.228;entryY=0.34;entryDx=0;entryDy=0;entryPerimeter=0;" parent="1" source="NyVXkolvV2H5l8ZxX0Ff-252" target="NyVXkolvV2H5l8ZxX0Ff-226" edge="1">
          <mxGeometry relative="1" as="geometry">
            <Array as="points" />
          </mxGeometry>
        </mxCell>
        <mxCell id="NyVXkolvV2H5l8ZxX0Ff-260" style="edgeStyle=orthogonalEdgeStyle;rounded=0;orthogonalLoop=1;jettySize=auto;html=1;exitX=1;exitY=0.5;exitDx=0;exitDy=0;exitPerimeter=0;entryX=0.25;entryY=0.5;entryDx=0;entryDy=0;entryPerimeter=0;" parent="1" source="NyVXkolvV2H5l8ZxX0Ff-254" target="NyVXkolvV2H5l8ZxX0Ff-226" edge="1">
          <mxGeometry relative="1" as="geometry" />
        </mxCell>
        <mxCell id="NyVXkolvV2H5l8ZxX0Ff-261" style="edgeStyle=orthogonalEdgeStyle;rounded=0;orthogonalLoop=1;jettySize=auto;html=1;exitX=1;exitY=0.5;exitDx=0;exitDy=0;exitPerimeter=0;entryX=0.222;entryY=0.673;entryDx=0;entryDy=0;entryPerimeter=0;" parent="1" source="NyVXkolvV2H5l8ZxX0Ff-256" target="NyVXkolvV2H5l8ZxX0Ff-226" edge="1">
          <mxGeometry relative="1" as="geometry">
            <mxPoint x="1339" y="1330" as="targetPoint" />
            <Array as="points">
              <mxPoint x="1299" y="1435" />
              <mxPoint x="1299" y="1329" />
            </Array>
          </mxGeometry>
        </mxCell>
        <mxCell id="NyVXkolvV2H5l8ZxX0Ff-273" value="" style="endArrow=none;html=1;rounded=0;startArrow=oval;startFill=1;" parent="1" edge="1">
          <mxGeometry width="50" height="50" relative="1" as="geometry">
            <mxPoint x="900" y="1097" as="sourcePoint" />
            <mxPoint x="900" y="1147" as="targetPoint" />
          </mxGeometry>
        </mxCell>
        <mxCell id="NyVXkolvV2H5l8ZxX0Ff-277" value="" style="endArrow=none;html=1;rounded=0;startArrow=oval;startFill=1;" parent="1" edge="1">
          <mxGeometry width="50" height="50" relative="1" as="geometry">
            <mxPoint x="910" y="1240" as="sourcePoint" />
            <mxPoint x="910" y="1290" as="targetPoint" />
          </mxGeometry>
        </mxCell>
        <mxCell id="NyVXkolvV2H5l8ZxX0Ff-279" value="" style="endArrow=none;html=1;rounded=0;startArrow=oval;startFill=1;" parent="1" edge="1">
          <mxGeometry width="50" height="50" relative="1" as="geometry">
            <mxPoint x="920" y="726.01" as="sourcePoint" />
            <mxPoint x="920" y="776.01" as="targetPoint" />
          </mxGeometry>
        </mxCell>
        <mxCell id="NyVXkolvV2H5l8ZxX0Ff-282" value="" style="endArrow=none;html=1;rounded=0;startArrow=oval;startFill=1;" parent="1" edge="1">
          <mxGeometry width="50" height="50" relative="1" as="geometry">
            <mxPoint x="940" y="1075" as="sourcePoint" />
            <mxPoint x="940" y="1182" as="targetPoint" />
          </mxGeometry>
        </mxCell>
        <mxCell id="NyVXkolvV2H5l8ZxX0Ff-285" value="" style="endArrow=none;html=1;rounded=0;startArrow=oval;startFill=1;" parent="1" edge="1">
          <mxGeometry width="50" height="50" relative="1" as="geometry">
            <mxPoint x="950" y="1292" as="sourcePoint" />
            <mxPoint x="950" y="1342" as="targetPoint" />
          </mxGeometry>
        </mxCell>
        <mxCell id="NyVXkolvV2H5l8ZxX0Ff-287" value="" style="endArrow=none;html=1;rounded=0;startArrow=oval;startFill=1;" parent="1" edge="1">
          <mxGeometry width="50" height="50" relative="1" as="geometry">
            <mxPoint x="960" y="1127" as="sourcePoint" />
            <mxPoint x="960" y="1177" as="targetPoint" />
          </mxGeometry>
        </mxCell>
        <mxCell id="NyVXkolvV2H5l8ZxX0Ff-288" style="edgeStyle=orthogonalEdgeStyle;rounded=0;orthogonalLoop=1;jettySize=auto;html=1;entryX=0.017;entryY=0.861;entryDx=0;entryDy=0;entryPerimeter=0;" parent="1" target="NyVXkolvV2H5l8ZxX0Ff-254" edge="1">
          <mxGeometry relative="1" as="geometry">
            <mxPoint x="1286" y="1385.5" as="targetPoint" />
            <mxPoint x="970" y="1260" as="sourcePoint" />
            <Array as="points">
              <mxPoint x="970" y="1385" />
            </Array>
          </mxGeometry>
        </mxCell>
        <mxCell id="NyVXkolvV2H5l8ZxX0Ff-289" value="" style="endArrow=none;html=1;rounded=0;startArrow=oval;startFill=1;" parent="1" edge="1">
          <mxGeometry width="50" height="50" relative="1" as="geometry">
            <mxPoint x="970" y="1250" as="sourcePoint" />
            <mxPoint x="970" y="1300" as="targetPoint" />
          </mxGeometry>
        </mxCell>
        <mxCell id="NyVXkolvV2H5l8ZxX0Ff-291" value="" style="endArrow=none;html=1;rounded=0;startArrow=oval;startFill=1;" parent="1" edge="1">
          <mxGeometry width="50" height="50" relative="1" as="geometry">
            <mxPoint x="980" y="1230" as="sourcePoint" />
            <mxPoint x="980" y="1280" as="targetPoint" />
          </mxGeometry>
        </mxCell>
        <mxCell id="NyVXkolvV2H5l8ZxX0Ff-292" value="" style="endArrow=none;html=1;rounded=0;startArrow=oval;startFill=1;" parent="1" edge="1">
          <mxGeometry width="50" height="50" relative="1" as="geometry">
            <mxPoint x="850" y="665" as="sourcePoint" />
            <mxPoint x="850" y="715" as="targetPoint" />
          </mxGeometry>
        </mxCell>
        <mxCell id="NyVXkolvV2H5l8ZxX0Ff-296" value="" style="endArrow=none;html=1;rounded=0;startArrow=oval;startFill=1;" parent="1" edge="1">
          <mxGeometry width="50" height="50" relative="1" as="geometry">
            <mxPoint x="990" y="1375" as="sourcePoint" />
            <mxPoint x="990" y="1425" as="targetPoint" />
          </mxGeometry>
        </mxCell>
        <mxCell id="NyVXkolvV2H5l8ZxX0Ff-298" value="" style="endArrow=none;html=1;rounded=0;startArrow=oval;startFill=1;" parent="1" edge="1">
          <mxGeometry width="50" height="50" relative="1" as="geometry">
            <mxPoint x="1000" y="1315" as="sourcePoint" />
            <mxPoint x="1000" y="1365" as="targetPoint" />
          </mxGeometry>
        </mxCell>
        <mxCell id="NyVXkolvV2H5l8ZxX0Ff-299" value="" style="endArrow=none;html=1;rounded=0;startArrow=oval;startFill=1;" parent="1" edge="1">
          <mxGeometry width="50" height="50" relative="1" as="geometry">
            <mxPoint x="890" y="1220.5" as="sourcePoint" />
            <mxPoint x="890" y="1270.5" as="targetPoint" />
          </mxGeometry>
        </mxCell>
        <mxCell id="NyVXkolvV2H5l8ZxX0Ff-320" style="edgeStyle=orthogonalEdgeStyle;rounded=0;orthogonalLoop=1;jettySize=auto;html=1;exitX=0;exitY=0.25;exitDx=0;exitDy=0;exitPerimeter=0;entryX=0;entryY=0.25;entryDx=0;entryDy=0;entryPerimeter=0;" parent="1" target="NyVXkolvV2H5l8ZxX0Ff-300" edge="1">
          <mxGeometry relative="1" as="geometry">
            <mxPoint x="1010" y="1280" as="sourcePoint" />
            <Array as="points">
              <mxPoint x="1010" y="1533" />
            </Array>
          </mxGeometry>
        </mxCell>
        <mxCell id="NyVXkolvV2H5l8ZxX0Ff-338" style="edgeStyle=orthogonalEdgeStyle;rounded=0;orthogonalLoop=1;jettySize=auto;html=1;exitX=0;exitY=0.75;exitDx=0;exitDy=0;exitPerimeter=0;entryX=0;entryY=0.75;entryDx=0;entryDy=0;entryPerimeter=0;" parent="1" target="NyVXkolvV2H5l8ZxX0Ff-300" edge="1">
          <mxGeometry relative="1" as="geometry">
            <mxPoint x="1020" y="1450" as="sourcePoint" />
            <Array as="points">
              <mxPoint x="1020" y="1558" />
            </Array>
          </mxGeometry>
        </mxCell>
        <mxCell id="NyVXkolvV2H5l8ZxX0Ff-300" value="" style="shape=or;whiteSpace=wrap;html=1;" parent="1" vertex="1">
          <mxGeometry x="1205" y="1520" width="34" height="50" as="geometry" />
        </mxCell>
        <mxCell id="NyVXkolvV2H5l8ZxX0Ff-301" value="&lt;span style=&quot;color: rgb(0, 0, 0); font-family: Helvetica; font-size: 12px; font-style: normal; font-variant-ligatures: normal; font-variant-caps: normal; font-weight: 700; letter-spacing: normal; orphans: 2; text-align: center; text-indent: 0px; text-transform: none; widows: 2; word-spacing: 0px; -webkit-text-stroke-width: 0px; white-space: normal; background-color: rgb(251, 251, 251); text-decoration-thickness: initial; text-decoration-style: initial; text-decoration-color: initial; display: inline !important; float: none;&quot;&gt;AND&lt;/span&gt;" style="text;whiteSpace=wrap;html=1;" parent="1" vertex="1">
          <mxGeometry x="1205" y="1530.5" width="24" height="23" as="geometry" />
        </mxCell>
        <mxCell id="NyVXkolvV2H5l8ZxX0Ff-302" style="edgeStyle=orthogonalEdgeStyle;rounded=0;orthogonalLoop=1;jettySize=auto;html=1;exitX=1;exitY=0.5;exitDx=0;exitDy=0;exitPerimeter=0;" parent="1" source="NyVXkolvV2H5l8ZxX0Ff-303" edge="1">
          <mxGeometry relative="1" as="geometry">
            <mxPoint x="1509" y="1623" as="targetPoint" />
          </mxGeometry>
        </mxCell>
        <mxCell id="NyVXkolvV2H5l8ZxX0Ff-303" value="" style="shape=xor;whiteSpace=wrap;html=1;" parent="1" vertex="1">
          <mxGeometry x="1332" y="1575.54" width="113" height="94.46" as="geometry" />
        </mxCell>
        <mxCell id="NyVXkolvV2H5l8ZxX0Ff-304" value="OR" style="text;strokeColor=none;align=center;fillColor=none;html=1;verticalAlign=middle;whiteSpace=wrap;rounded=0;fontStyle=1" parent="1" vertex="1">
          <mxGeometry x="1365" y="1600" width="60" height="50" as="geometry" />
        </mxCell>
        <mxCell id="NyVXkolvV2H5l8ZxX0Ff-305" value="segE" style="text;strokeColor=none;align=center;fillColor=none;html=1;verticalAlign=middle;whiteSpace=wrap;rounded=0;fontStyle=1" parent="1" vertex="1">
          <mxGeometry x="1519" y="1612.77" width="10" height="20" as="geometry" />
        </mxCell>
        <mxCell id="NyVXkolvV2H5l8ZxX0Ff-340" style="edgeStyle=orthogonalEdgeStyle;rounded=0;orthogonalLoop=1;jettySize=auto;html=1;entryX=0;entryY=0.25;entryDx=0;entryDy=0;entryPerimeter=0;" parent="1" target="NyVXkolvV2H5l8ZxX0Ff-306" edge="1">
          <mxGeometry relative="1" as="geometry">
            <mxPoint x="1040" y="1540" as="sourcePoint" />
            <Array as="points">
              <mxPoint x="1040" y="1595" />
            </Array>
          </mxGeometry>
        </mxCell>
        <mxCell id="NyVXkolvV2H5l8ZxX0Ff-344" style="edgeStyle=orthogonalEdgeStyle;rounded=0;orthogonalLoop=1;jettySize=auto;html=1;exitX=0;exitY=0.5;exitDx=0;exitDy=0;exitPerimeter=0;entryX=0;entryY=0.5;entryDx=0;entryDy=0;entryPerimeter=0;" parent="1" target="NyVXkolvV2H5l8ZxX0Ff-306" edge="1">
          <mxGeometry relative="1" as="geometry">
            <mxPoint x="1050" y="1430" as="sourcePoint" />
            <Array as="points">
              <mxPoint x="1050" y="1608" />
            </Array>
          </mxGeometry>
        </mxCell>
        <mxCell id="NyVXkolvV2H5l8ZxX0Ff-345" style="edgeStyle=orthogonalEdgeStyle;rounded=0;orthogonalLoop=1;jettySize=auto;html=1;entryX=0;entryY=0.75;entryDx=0;entryDy=0;entryPerimeter=0;" parent="1" target="NyVXkolvV2H5l8ZxX0Ff-306" edge="1">
          <mxGeometry relative="1" as="geometry">
            <mxPoint x="1070" y="1310" as="sourcePoint" />
            <Array as="points">
              <mxPoint x="1070" y="1620" />
            </Array>
          </mxGeometry>
        </mxCell>
        <mxCell id="NyVXkolvV2H5l8ZxX0Ff-306" value="" style="shape=or;whiteSpace=wrap;html=1;" parent="1" vertex="1">
          <mxGeometry x="1205" y="1582.77" width="34" height="50" as="geometry" />
        </mxCell>
        <mxCell id="NyVXkolvV2H5l8ZxX0Ff-307" value="&lt;span style=&quot;color: rgb(0, 0, 0); font-family: Helvetica; font-size: 12px; font-style: normal; font-variant-ligatures: normal; font-variant-caps: normal; font-weight: 700; letter-spacing: normal; orphans: 2; text-align: center; text-indent: 0px; text-transform: none; widows: 2; word-spacing: 0px; -webkit-text-stroke-width: 0px; white-space: normal; background-color: rgb(251, 251, 251); text-decoration-thickness: initial; text-decoration-style: initial; text-decoration-color: initial; display: inline !important; float: none;&quot;&gt;AND&lt;/span&gt;" style="text;whiteSpace=wrap;html=1;" parent="1" vertex="1">
          <mxGeometry x="1207" y="1594.27" width="24" height="23" as="geometry" />
        </mxCell>
        <mxCell id="NyVXkolvV2H5l8ZxX0Ff-349" style="edgeStyle=orthogonalEdgeStyle;rounded=0;orthogonalLoop=1;jettySize=auto;html=1;exitX=0;exitY=0.25;exitDx=0;exitDy=0;exitPerimeter=0;entryX=0;entryY=0.25;entryDx=0;entryDy=0;entryPerimeter=0;" parent="1" target="NyVXkolvV2H5l8ZxX0Ff-308" edge="1">
          <mxGeometry relative="1" as="geometry">
            <mxPoint x="1089.9999999999998" y="1368.896484375" as="sourcePoint" />
            <Array as="points">
              <mxPoint x="1090" y="1664" />
            </Array>
          </mxGeometry>
        </mxCell>
        <mxCell id="NyVXkolvV2H5l8ZxX0Ff-351" style="edgeStyle=orthogonalEdgeStyle;rounded=0;orthogonalLoop=1;jettySize=auto;html=1;exitX=0;exitY=0.5;exitDx=0;exitDy=0;exitPerimeter=0;entryX=0;entryY=0.5;entryDx=0;entryDy=0;entryPerimeter=0;" parent="1" target="NyVXkolvV2H5l8ZxX0Ff-308" edge="1">
          <mxGeometry relative="1" as="geometry">
            <mxPoint x="1099.9999999999998" y="1620" as="sourcePoint" />
            <Array as="points">
              <mxPoint x="1100" y="1677" />
            </Array>
          </mxGeometry>
        </mxCell>
        <mxCell id="NyVXkolvV2H5l8ZxX0Ff-353" style="edgeStyle=orthogonalEdgeStyle;rounded=0;orthogonalLoop=1;jettySize=auto;html=1;exitX=0;exitY=0.75;exitDx=0;exitDy=0;exitPerimeter=0;entryX=0;entryY=0.75;entryDx=0;entryDy=0;entryPerimeter=0;" parent="1" target="NyVXkolvV2H5l8ZxX0Ff-308" edge="1">
          <mxGeometry relative="1" as="geometry">
            <mxPoint x="1109.9999999999998" y="1560" as="sourcePoint" />
            <Array as="points">
              <mxPoint x="1110" y="1690" />
            </Array>
          </mxGeometry>
        </mxCell>
        <mxCell id="NyVXkolvV2H5l8ZxX0Ff-308" value="" style="shape=or;whiteSpace=wrap;html=1;" parent="1" vertex="1">
          <mxGeometry x="1205" y="1652" width="34" height="50" as="geometry" />
        </mxCell>
        <mxCell id="NyVXkolvV2H5l8ZxX0Ff-309" value="&lt;span style=&quot;color: rgb(0, 0, 0); font-family: Helvetica; font-size: 12px; font-style: normal; font-variant-ligatures: normal; font-variant-caps: normal; font-weight: 700; letter-spacing: normal; orphans: 2; text-align: center; text-indent: 0px; text-transform: none; widows: 2; word-spacing: 0px; -webkit-text-stroke-width: 0px; white-space: normal; background-color: rgb(251, 251, 251); text-decoration-thickness: initial; text-decoration-style: initial; text-decoration-color: initial; display: inline !important; float: none;&quot;&gt;AND&lt;/span&gt;" style="text;whiteSpace=wrap;html=1;" parent="1" vertex="1">
          <mxGeometry x="1211" y="1663" width="22" height="22.5" as="geometry" />
        </mxCell>
        <mxCell id="NyVXkolvV2H5l8ZxX0Ff-312" style="edgeStyle=orthogonalEdgeStyle;rounded=0;orthogonalLoop=1;jettySize=auto;html=1;exitX=1;exitY=0.5;exitDx=0;exitDy=0;exitPerimeter=0;entryX=0.175;entryY=0.25;entryDx=0;entryDy=0;entryPerimeter=0;" parent="1" source="NyVXkolvV2H5l8ZxX0Ff-300" target="NyVXkolvV2H5l8ZxX0Ff-303" edge="1">
          <mxGeometry relative="1" as="geometry">
            <Array as="points">
              <mxPoint x="1269" y="1545" />
              <mxPoint x="1269" y="1599" />
            </Array>
          </mxGeometry>
        </mxCell>
        <mxCell id="NyVXkolvV2H5l8ZxX0Ff-316" style="edgeStyle=orthogonalEdgeStyle;rounded=0;orthogonalLoop=1;jettySize=auto;html=1;exitX=1;exitY=0.5;exitDx=0;exitDy=0;exitPerimeter=0;entryX=0.25;entryY=0.5;entryDx=0;entryDy=0;entryPerimeter=0;" parent="1" source="NyVXkolvV2H5l8ZxX0Ff-306" target="NyVXkolvV2H5l8ZxX0Ff-303" edge="1">
          <mxGeometry relative="1" as="geometry" />
        </mxCell>
        <mxCell id="NyVXkolvV2H5l8ZxX0Ff-317" style="edgeStyle=orthogonalEdgeStyle;rounded=0;orthogonalLoop=1;jettySize=auto;html=1;exitX=1;exitY=0.5;exitDx=0;exitDy=0;exitPerimeter=0;entryX=0.175;entryY=0.75;entryDx=0;entryDy=0;entryPerimeter=0;" parent="1" source="NyVXkolvV2H5l8ZxX0Ff-308" target="NyVXkolvV2H5l8ZxX0Ff-303" edge="1">
          <mxGeometry relative="1" as="geometry" />
        </mxCell>
        <mxCell id="NyVXkolvV2H5l8ZxX0Ff-337" value="" style="endArrow=none;html=1;rounded=0;startArrow=oval;startFill=1;" parent="1" edge="1">
          <mxGeometry width="50" height="50" relative="1" as="geometry">
            <mxPoint x="1010" y="1280" as="sourcePoint" />
            <mxPoint x="1010" y="1330" as="targetPoint" />
          </mxGeometry>
        </mxCell>
        <mxCell id="NyVXkolvV2H5l8ZxX0Ff-339" value="" style="endArrow=none;html=1;rounded=0;startArrow=oval;startFill=1;" parent="1" edge="1">
          <mxGeometry width="50" height="50" relative="1" as="geometry">
            <mxPoint x="1020" y="1448" as="sourcePoint" />
            <mxPoint x="1020" y="1498" as="targetPoint" />
          </mxGeometry>
        </mxCell>
        <mxCell id="NyVXkolvV2H5l8ZxX0Ff-346" value="" style="endArrow=none;html=1;rounded=0;startArrow=oval;startFill=1;" parent="1" edge="1">
          <mxGeometry width="50" height="50" relative="1" as="geometry">
            <mxPoint x="1040" y="1532.77" as="sourcePoint" />
            <mxPoint x="1040" y="1582.77" as="targetPoint" />
          </mxGeometry>
        </mxCell>
        <mxCell id="NyVXkolvV2H5l8ZxX0Ff-347" value="" style="endArrow=none;html=1;rounded=0;startArrow=oval;startFill=1;" parent="1" edge="1">
          <mxGeometry width="50" height="50" relative="1" as="geometry">
            <mxPoint x="1050" y="1422.5" as="sourcePoint" />
            <mxPoint x="1050" y="1472.5" as="targetPoint" />
          </mxGeometry>
        </mxCell>
        <mxCell id="NyVXkolvV2H5l8ZxX0Ff-348" value="" style="endArrow=none;html=1;rounded=0;startArrow=oval;startFill=1;" parent="1" edge="1">
          <mxGeometry width="50" height="50" relative="1" as="geometry">
            <mxPoint x="1070" y="1303" as="sourcePoint" />
            <mxPoint x="1070" y="1353" as="targetPoint" />
          </mxGeometry>
        </mxCell>
        <mxCell id="NyVXkolvV2H5l8ZxX0Ff-350" value="" style="endArrow=none;html=1;rounded=0;startArrow=oval;startFill=1;" parent="1" edge="1">
          <mxGeometry width="50" height="50" relative="1" as="geometry">
            <mxPoint x="1090" y="1362" as="sourcePoint" />
            <mxPoint x="1090" y="1412" as="targetPoint" />
          </mxGeometry>
        </mxCell>
        <mxCell id="NyVXkolvV2H5l8ZxX0Ff-352" value="" style="endArrow=none;html=1;rounded=0;startArrow=oval;startFill=1;" parent="1" edge="1">
          <mxGeometry width="50" height="50" relative="1" as="geometry">
            <mxPoint x="1100" y="1620" as="sourcePoint" />
            <mxPoint x="1100" y="1670" as="targetPoint" />
          </mxGeometry>
        </mxCell>
        <mxCell id="NyVXkolvV2H5l8ZxX0Ff-354" value="" style="endArrow=none;html=1;rounded=0;startArrow=oval;startFill=1;" parent="1" edge="1">
          <mxGeometry width="50" height="50" relative="1" as="geometry">
            <mxPoint x="1110" y="1557.77" as="sourcePoint" />
            <mxPoint x="1110" y="1607.77" as="targetPoint" />
          </mxGeometry>
        </mxCell>
        <mxCell id="NyVXkolvV2H5l8ZxX0Ff-393" style="edgeStyle=orthogonalEdgeStyle;rounded=0;orthogonalLoop=1;jettySize=auto;html=1;entryX=0.175;entryY=0.25;entryDx=0;entryDy=0;entryPerimeter=0;" parent="1" target="NyVXkolvV2H5l8ZxX0Ff-355" edge="1">
          <mxGeometry relative="1" as="geometry">
            <mxPoint x="1120" y="1391" as="sourcePoint" />
            <Array as="points">
              <mxPoint x="1120" y="1770" />
            </Array>
          </mxGeometry>
        </mxCell>
        <mxCell id="NyVXkolvV2H5l8ZxX0Ff-433" style="edgeStyle=orthogonalEdgeStyle;rounded=0;orthogonalLoop=1;jettySize=auto;html=1;entryX=0.175;entryY=0.75;entryDx=0;entryDy=0;entryPerimeter=0;" parent="1" target="NyVXkolvV2H5l8ZxX0Ff-355" edge="1">
          <mxGeometry relative="1" as="geometry">
            <mxPoint x="1140" y="1700" as="sourcePoint" />
            <Array as="points">
              <mxPoint x="1140" y="1791" />
            </Array>
          </mxGeometry>
        </mxCell>
        <mxCell id="NyVXkolvV2H5l8ZxX0Ff-355" value="" style="shape=xor;whiteSpace=wrap;html=1;" parent="1" vertex="1">
          <mxGeometry x="1205" y="1760" width="40" height="41.46" as="geometry" />
        </mxCell>
        <mxCell id="NyVXkolvV2H5l8ZxX0Ff-435" style="edgeStyle=orthogonalEdgeStyle;rounded=0;orthogonalLoop=1;jettySize=auto;html=1;entryX=0.175;entryY=0.25;entryDx=0;entryDy=0;entryPerimeter=0;" parent="1" target="NyVXkolvV2H5l8ZxX0Ff-356" edge="1">
          <mxGeometry relative="1" as="geometry">
            <mxPoint x="470" y="710" as="sourcePoint" />
            <Array as="points">
              <mxPoint x="470" y="1820" />
            </Array>
          </mxGeometry>
        </mxCell>
        <mxCell id="NyVXkolvV2H5l8ZxX0Ff-437" style="edgeStyle=orthogonalEdgeStyle;rounded=0;orthogonalLoop=1;jettySize=auto;html=1;entryX=0.175;entryY=0.75;entryDx=0;entryDy=0;entryPerimeter=0;" parent="1" target="NyVXkolvV2H5l8ZxX0Ff-356" edge="1">
          <mxGeometry relative="1" as="geometry">
            <mxPoint x="250" y="640" as="sourcePoint" />
            <Array as="points">
              <mxPoint x="250" y="1841" />
            </Array>
          </mxGeometry>
        </mxCell>
        <mxCell id="NyVXkolvV2H5l8ZxX0Ff-356" value="" style="shape=xor;whiteSpace=wrap;html=1;" parent="1" vertex="1">
          <mxGeometry x="1205" y="1810" width="40" height="41.46" as="geometry" />
        </mxCell>
        <mxCell id="NyVXkolvV2H5l8ZxX0Ff-438" style="edgeStyle=orthogonalEdgeStyle;rounded=0;orthogonalLoop=1;jettySize=auto;html=1;entryX=0.175;entryY=0.25;entryDx=0;entryDy=0;entryPerimeter=0;" parent="1" target="NyVXkolvV2H5l8ZxX0Ff-357" edge="1">
          <mxGeometry relative="1" as="geometry">
            <mxPoint x="470" y="1820" as="sourcePoint" />
            <Array as="points">
              <mxPoint x="470" y="1879" />
            </Array>
          </mxGeometry>
        </mxCell>
        <mxCell id="NyVXkolvV2H5l8ZxX0Ff-440" style="edgeStyle=orthogonalEdgeStyle;rounded=0;orthogonalLoop=1;jettySize=auto;html=1;exitX=0.175;exitY=0.75;exitDx=0;exitDy=0;exitPerimeter=0;entryX=0.175;entryY=0.75;entryDx=0;entryDy=0;entryPerimeter=0;" parent="1" target="NyVXkolvV2H5l8ZxX0Ff-357" edge="1">
          <mxGeometry relative="1" as="geometry">
            <mxPoint x="450" y="760" as="sourcePoint" />
            <Array as="points">
              <mxPoint x="450" y="1899" />
            </Array>
          </mxGeometry>
        </mxCell>
        <mxCell id="NyVXkolvV2H5l8ZxX0Ff-357" value="" style="shape=xor;whiteSpace=wrap;html=1;" parent="1" vertex="1">
          <mxGeometry x="1205" y="1868.17" width="40" height="41.46" as="geometry" />
        </mxCell>
        <mxCell id="NyVXkolvV2H5l8ZxX0Ff-442" style="edgeStyle=orthogonalEdgeStyle;rounded=0;orthogonalLoop=1;jettySize=auto;html=1;exitX=0.175;exitY=0.25;exitDx=0;exitDy=0;exitPerimeter=0;entryX=0.175;entryY=0.25;entryDx=0;entryDy=0;entryPerimeter=0;" parent="1" target="NyVXkolvV2H5l8ZxX0Ff-358" edge="1">
          <mxGeometry relative="1" as="geometry">
            <mxPoint x="440" y="650" as="sourcePoint" />
            <Array as="points">
              <mxPoint x="440" y="1929" />
            </Array>
          </mxGeometry>
        </mxCell>
        <mxCell id="NyVXkolvV2H5l8ZxX0Ff-444" style="edgeStyle=orthogonalEdgeStyle;rounded=0;orthogonalLoop=1;jettySize=auto;html=1;entryX=0.25;entryY=0.5;entryDx=0;entryDy=0;entryPerimeter=0;" parent="1" target="NyVXkolvV2H5l8ZxX0Ff-358" edge="1">
          <mxGeometry relative="1" as="geometry">
            <mxPoint x="450" y="1910" as="sourcePoint" />
            <Array as="points">
              <mxPoint x="450" y="1940" />
              <mxPoint x="1355" y="1940" />
            </Array>
          </mxGeometry>
        </mxCell>
        <mxCell id="NyVXkolvV2H5l8ZxX0Ff-447" style="edgeStyle=orthogonalEdgeStyle;rounded=0;orthogonalLoop=1;jettySize=auto;html=1;exitX=0.175;exitY=0.75;exitDx=0;exitDy=0;exitPerimeter=0;entryX=0.175;entryY=0.75;entryDx=0;entryDy=0;entryPerimeter=0;" parent="1" target="NyVXkolvV2H5l8ZxX0Ff-358" edge="1">
          <mxGeometry relative="1" as="geometry">
            <mxPoint x="170.00000000000023" y="886.3077486478363" as="sourcePoint" />
            <Array as="points">
              <mxPoint x="170" y="1950" />
            </Array>
          </mxGeometry>
        </mxCell>
        <mxCell id="NyVXkolvV2H5l8ZxX0Ff-358" value="" style="shape=xor;whiteSpace=wrap;html=1;" parent="1" vertex="1">
          <mxGeometry x="1205" y="1918.54" width="40" height="41.46" as="geometry" />
        </mxCell>
        <mxCell id="NyVXkolvV2H5l8ZxX0Ff-449" style="edgeStyle=orthogonalEdgeStyle;rounded=0;orthogonalLoop=1;jettySize=auto;html=1;exitX=0.25;exitY=0.5;exitDx=0;exitDy=0;exitPerimeter=0;entryX=0.25;entryY=0.5;entryDx=0;entryDy=0;entryPerimeter=0;" parent="1" target="NyVXkolvV2H5l8ZxX0Ff-359" edge="1">
          <mxGeometry relative="1" as="geometry">
            <mxPoint x="440" y="1930" as="sourcePoint" />
            <Array as="points">
              <mxPoint x="440" y="1990" />
            </Array>
          </mxGeometry>
        </mxCell>
        <mxCell id="NyVXkolvV2H5l8ZxX0Ff-452" style="edgeStyle=orthogonalEdgeStyle;rounded=0;orthogonalLoop=1;jettySize=auto;html=1;exitX=0.175;exitY=0.75;exitDx=0;exitDy=0;exitPerimeter=0;entryX=0.175;entryY=0.75;entryDx=0;entryDy=0;entryPerimeter=0;" parent="1" target="NyVXkolvV2H5l8ZxX0Ff-359" edge="1">
          <mxGeometry relative="1" as="geometry">
            <mxPoint x="1120" y="1770.0000000000005" as="sourcePoint" />
            <Array as="points">
              <mxPoint x="1120" y="2000" />
            </Array>
          </mxGeometry>
        </mxCell>
        <mxCell id="NyVXkolvV2H5l8ZxX0Ff-454" style="edgeStyle=orthogonalEdgeStyle;rounded=0;orthogonalLoop=1;jettySize=auto;html=1;exitX=0.175;exitY=0.25;exitDx=0;exitDy=0;exitPerimeter=0;entryX=0.175;entryY=0.25;entryDx=0;entryDy=0;entryPerimeter=0;" parent="1" target="NyVXkolvV2H5l8ZxX0Ff-359" edge="1">
          <mxGeometry relative="1" as="geometry">
            <mxPoint x="230" y="530" as="sourcePoint" />
            <Array as="points">
              <mxPoint x="230" y="1980" />
            </Array>
          </mxGeometry>
        </mxCell>
        <mxCell id="NyVXkolvV2H5l8ZxX0Ff-359" value="" style="shape=xor;whiteSpace=wrap;html=1;" parent="1" vertex="1">
          <mxGeometry x="1205" y="1969.27" width="40" height="41.46" as="geometry" />
        </mxCell>
        <mxCell id="NyVXkolvV2H5l8ZxX0Ff-360" value="OR" style="text;strokeColor=none;align=center;fillColor=none;html=1;verticalAlign=middle;whiteSpace=wrap;rounded=0;fontStyle=1" parent="1" vertex="1">
          <mxGeometry x="1220" y="1770.73" width="10" height="20" as="geometry" />
        </mxCell>
        <mxCell id="NyVXkolvV2H5l8ZxX0Ff-361" value="OR" style="text;strokeColor=none;align=center;fillColor=none;html=1;verticalAlign=middle;whiteSpace=wrap;rounded=0;fontStyle=1" parent="1" vertex="1">
          <mxGeometry x="1220" y="1820.73" width="10" height="20" as="geometry" />
        </mxCell>
        <mxCell id="NyVXkolvV2H5l8ZxX0Ff-362" value="OR" style="text;strokeColor=none;align=center;fillColor=none;html=1;verticalAlign=middle;whiteSpace=wrap;rounded=0;fontStyle=1" parent="1" vertex="1">
          <mxGeometry x="1220" y="1878.9" width="10" height="20" as="geometry" />
        </mxCell>
        <mxCell id="NyVXkolvV2H5l8ZxX0Ff-363" value="OR" style="text;strokeColor=none;align=center;fillColor=none;html=1;verticalAlign=middle;whiteSpace=wrap;rounded=0;fontStyle=1" parent="1" vertex="1">
          <mxGeometry x="1220" y="1929.27" width="10" height="20" as="geometry" />
        </mxCell>
        <mxCell id="NyVXkolvV2H5l8ZxX0Ff-364" value="OR" style="text;strokeColor=none;align=center;fillColor=none;html=1;verticalAlign=middle;whiteSpace=wrap;rounded=0;fontStyle=1" parent="1" vertex="1">
          <mxGeometry x="1220" y="1980" width="10" height="20" as="geometry" />
        </mxCell>
        <mxCell id="NyVXkolvV2H5l8ZxX0Ff-365" style="edgeStyle=orthogonalEdgeStyle;rounded=0;orthogonalLoop=1;jettySize=auto;html=1;exitX=1;exitY=0.5;exitDx=0;exitDy=0;exitPerimeter=0;" parent="1" source="NyVXkolvV2H5l8ZxX0Ff-366" edge="1">
          <mxGeometry relative="1" as="geometry">
            <mxPoint x="1516" y="1903.3846153846152" as="targetPoint" />
          </mxGeometry>
        </mxCell>
        <mxCell id="NyVXkolvV2H5l8ZxX0Ff-366" value="" style="shape=or;whiteSpace=wrap;html=1;" parent="1" vertex="1">
          <mxGeometry x="1376" y="1851.46" width="80" height="104.54" as="geometry" />
        </mxCell>
        <mxCell id="NyVXkolvV2H5l8ZxX0Ff-367" style="edgeStyle=orthogonalEdgeStyle;rounded=0;orthogonalLoop=1;jettySize=auto;html=1;exitX=1;exitY=0.5;exitDx=0;exitDy=0;exitPerimeter=0;entryX=-0.013;entryY=0.081;entryDx=0;entryDy=0;entryPerimeter=0;" parent="1" source="NyVXkolvV2H5l8ZxX0Ff-355" target="NyVXkolvV2H5l8ZxX0Ff-366" edge="1">
          <mxGeometry relative="1" as="geometry" />
        </mxCell>
        <mxCell id="NyVXkolvV2H5l8ZxX0Ff-368" style="edgeStyle=orthogonalEdgeStyle;rounded=0;orthogonalLoop=1;jettySize=auto;html=1;exitX=1;exitY=0.5;exitDx=0;exitDy=0;exitPerimeter=0;" parent="1" edge="1">
          <mxGeometry relative="1" as="geometry">
            <mxPoint x="1245" y="1827.73" as="sourcePoint" />
            <mxPoint x="1376" y="1881" as="targetPoint" />
            <Array as="points">
              <mxPoint x="1286" y="1828" />
              <mxPoint x="1286" y="1881" />
            </Array>
          </mxGeometry>
        </mxCell>
        <mxCell id="NyVXkolvV2H5l8ZxX0Ff-369" style="edgeStyle=orthogonalEdgeStyle;rounded=0;orthogonalLoop=1;jettySize=auto;html=1;exitX=1;exitY=0.5;exitDx=0;exitDy=0;exitPerimeter=0;entryX=-0.006;entryY=0.458;entryDx=0;entryDy=0;entryPerimeter=0;" parent="1" source="NyVXkolvV2H5l8ZxX0Ff-357" target="NyVXkolvV2H5l8ZxX0Ff-366" edge="1">
          <mxGeometry relative="1" as="geometry" />
        </mxCell>
        <mxCell id="NyVXkolvV2H5l8ZxX0Ff-370" style="edgeStyle=orthogonalEdgeStyle;rounded=0;orthogonalLoop=1;jettySize=auto;html=1;exitX=1;exitY=0.5;exitDx=0;exitDy=0;exitPerimeter=0;entryX=0;entryY=0.714;entryDx=0;entryDy=0;entryPerimeter=0;" parent="1" source="NyVXkolvV2H5l8ZxX0Ff-358" target="NyVXkolvV2H5l8ZxX0Ff-366" edge="1">
          <mxGeometry relative="1" as="geometry">
            <Array as="points">
              <mxPoint x="1311" y="1938.99" />
              <mxPoint x="1311" y="1925.99" />
            </Array>
          </mxGeometry>
        </mxCell>
        <mxCell id="NyVXkolvV2H5l8ZxX0Ff-371" style="edgeStyle=orthogonalEdgeStyle;rounded=0;orthogonalLoop=1;jettySize=auto;html=1;exitX=1;exitY=0.5;exitDx=0;exitDy=0;exitPerimeter=0;" parent="1" source="NyVXkolvV2H5l8ZxX0Ff-359" edge="1">
          <mxGeometry relative="1" as="geometry">
            <Array as="points">
              <mxPoint x="1326" y="1989.99" />
              <mxPoint x="1326" y="1943.99" />
            </Array>
            <mxPoint x="1376" y="1943.99" as="targetPoint" />
          </mxGeometry>
        </mxCell>
        <mxCell id="NyVXkolvV2H5l8ZxX0Ff-372" value="AND" style="text;strokeColor=none;align=center;fillColor=none;html=1;verticalAlign=middle;whiteSpace=wrap;rounded=0;fontStyle=1" parent="1" vertex="1">
          <mxGeometry x="1386" y="1893.73" width="30" height="20" as="geometry" />
        </mxCell>
        <mxCell id="NyVXkolvV2H5l8ZxX0Ff-373" value="segF" style="text;strokeColor=none;align=center;fillColor=none;html=1;verticalAlign=middle;whiteSpace=wrap;rounded=0;fontStyle=1" parent="1" vertex="1">
          <mxGeometry x="1526" y="1893.73" width="10" height="20" as="geometry" />
        </mxCell>
        <mxCell id="NyVXkolvV2H5l8ZxX0Ff-457" style="edgeStyle=orthogonalEdgeStyle;rounded=0;orthogonalLoop=1;jettySize=auto;html=1;exitX=0.175;exitY=0.75;exitDx=0;exitDy=0;exitPerimeter=0;entryX=0.175;entryY=0.75;entryDx=0;entryDy=0;entryPerimeter=0;" parent="1" target="NyVXkolvV2H5l8ZxX0Ff-374" edge="1">
          <mxGeometry relative="1" as="geometry">
            <mxPoint x="170" y="1960" as="sourcePoint" />
            <Array as="points">
              <mxPoint x="170" y="2178" />
            </Array>
          </mxGeometry>
        </mxCell>
        <mxCell id="NyVXkolvV2H5l8ZxX0Ff-461" style="edgeStyle=orthogonalEdgeStyle;rounded=0;orthogonalLoop=1;jettySize=auto;html=1;exitX=0.175;exitY=0.25;exitDx=0;exitDy=0;exitPerimeter=0;entryX=0.175;entryY=0.25;entryDx=0;entryDy=0;entryPerimeter=0;" parent="1" target="NyVXkolvV2H5l8ZxX0Ff-374" edge="1">
          <mxGeometry relative="1" as="geometry">
            <mxPoint x="449.9999999999998" y="1939.9999999999995" as="sourcePoint" />
            <Array as="points">
              <mxPoint x="450" y="2157" />
            </Array>
          </mxGeometry>
        </mxCell>
        <mxCell id="NyVXkolvV2H5l8ZxX0Ff-374" value="" style="shape=xor;whiteSpace=wrap;html=1;" parent="1" vertex="1">
          <mxGeometry x="1205" y="2147" width="40" height="41.46" as="geometry" />
        </mxCell>
        <mxCell id="NyVXkolvV2H5l8ZxX0Ff-463" style="edgeStyle=orthogonalEdgeStyle;rounded=0;orthogonalLoop=1;jettySize=auto;html=1;exitX=0.175;exitY=0.25;exitDx=0;exitDy=0;exitPerimeter=0;entryX=0.175;entryY=0.25;entryDx=0;entryDy=0;entryPerimeter=0;" parent="1" target="NyVXkolvV2H5l8ZxX0Ff-376" edge="1">
          <mxGeometry relative="1" as="geometry">
            <mxPoint x="470" y="1880.0000000000005" as="sourcePoint" />
            <Array as="points">
              <mxPoint x="470" y="2209" />
            </Array>
          </mxGeometry>
        </mxCell>
        <mxCell id="NyVXkolvV2H5l8ZxX0Ff-465" style="edgeStyle=orthogonalEdgeStyle;rounded=0;orthogonalLoop=1;jettySize=auto;html=1;exitX=0.175;exitY=0.75;exitDx=0;exitDy=0;exitPerimeter=0;entryX=0.175;entryY=0.75;entryDx=0;entryDy=0;entryPerimeter=0;" parent="1" target="NyVXkolvV2H5l8ZxX0Ff-376" edge="1">
          <mxGeometry relative="1" as="geometry">
            <mxPoint x="490.0000000000002" y="875.4284667968748" as="sourcePoint" />
            <Array as="points">
              <mxPoint x="490" y="2229" />
            </Array>
          </mxGeometry>
        </mxCell>
        <mxCell id="NyVXkolvV2H5l8ZxX0Ff-376" value="" style="shape=xor;whiteSpace=wrap;html=1;" parent="1" vertex="1">
          <mxGeometry x="1205" y="2198.17" width="40" height="41.46" as="geometry" />
        </mxCell>
        <mxCell id="NyVXkolvV2H5l8ZxX0Ff-473" style="edgeStyle=orthogonalEdgeStyle;rounded=0;orthogonalLoop=1;jettySize=auto;html=1;exitX=0.175;exitY=0.75;exitDx=0;exitDy=0;exitPerimeter=0;entryX=0.175;entryY=0.75;entryDx=0;entryDy=0;entryPerimeter=0;" parent="1" target="NyVXkolvV2H5l8ZxX0Ff-377" edge="1">
          <mxGeometry relative="1" as="geometry">
            <mxPoint x="1120" y="1999.9999999999995" as="sourcePoint" />
            <Array as="points">
              <mxPoint x="1120" y="2280" />
            </Array>
          </mxGeometry>
        </mxCell>
        <mxCell id="NyVXkolvV2H5l8ZxX0Ff-481" style="edgeStyle=orthogonalEdgeStyle;rounded=0;orthogonalLoop=1;jettySize=auto;html=1;exitX=0.175;exitY=0.25;exitDx=0;exitDy=0;exitPerimeter=0;entryX=0.175;entryY=0.25;entryDx=0;entryDy=0;entryPerimeter=0;" parent="1" target="NyVXkolvV2H5l8ZxX0Ff-377" edge="1">
          <mxGeometry relative="1" as="geometry">
            <mxPoint x="230" y="1980" as="sourcePoint" />
            <Array as="points">
              <mxPoint x="230" y="2259" />
            </Array>
          </mxGeometry>
        </mxCell>
        <mxCell id="NyVXkolvV2H5l8ZxX0Ff-377" value="" style="shape=xor;whiteSpace=wrap;html=1;" parent="1" vertex="1">
          <mxGeometry x="1205" y="2248.54" width="40" height="41.46" as="geometry" />
        </mxCell>
        <mxCell id="NyVXkolvV2H5l8ZxX0Ff-483" style="edgeStyle=orthogonalEdgeStyle;rounded=0;orthogonalLoop=1;jettySize=auto;html=1;exitX=0.175;exitY=0.25;exitDx=0;exitDy=0;exitPerimeter=0;entryX=0.175;entryY=0.25;entryDx=0;entryDy=0;entryPerimeter=0;" parent="1" target="NyVXkolvV2H5l8ZxX0Ff-378" edge="1">
          <mxGeometry relative="1" as="geometry">
            <mxPoint x="250" y="1850" as="sourcePoint" />
            <Array as="points">
              <mxPoint x="250" y="2310" />
            </Array>
          </mxGeometry>
        </mxCell>
        <mxCell id="NyVXkolvV2H5l8ZxX0Ff-485" style="edgeStyle=orthogonalEdgeStyle;rounded=0;orthogonalLoop=1;jettySize=auto;html=1;entryX=0.25;entryY=0.5;entryDx=0;entryDy=0;entryPerimeter=0;" parent="1" target="NyVXkolvV2H5l8ZxX0Ff-378" edge="1">
          <mxGeometry relative="1" as="geometry">
            <mxPoint x="450" y="2160" as="sourcePoint" />
            <Array as="points">
              <mxPoint x="450" y="2320" />
            </Array>
          </mxGeometry>
        </mxCell>
        <mxCell id="NyVXkolvV2H5l8ZxX0Ff-487" style="edgeStyle=orthogonalEdgeStyle;rounded=0;orthogonalLoop=1;jettySize=auto;html=1;exitX=0.175;exitY=0.75;exitDx=0;exitDy=0;exitPerimeter=0;entryX=0.175;entryY=0.75;entryDx=0;entryDy=0;entryPerimeter=0;" parent="1" target="NyVXkolvV2H5l8ZxX0Ff-378" edge="1">
          <mxGeometry relative="1" as="geometry">
            <mxPoint x="490" y="2230.0000000000005" as="sourcePoint" />
            <Array as="points">
              <mxPoint x="490" y="2330" />
            </Array>
          </mxGeometry>
        </mxCell>
        <mxCell id="NyVXkolvV2H5l8ZxX0Ff-378" value="" style="shape=xor;whiteSpace=wrap;html=1;" parent="1" vertex="1">
          <mxGeometry x="1206" y="2299.27" width="40" height="41.46" as="geometry" />
        </mxCell>
        <mxCell id="NyVXkolvV2H5l8ZxX0Ff-379" value="OR" style="text;strokeColor=none;align=center;fillColor=none;html=1;verticalAlign=middle;whiteSpace=wrap;rounded=0;fontStyle=1" parent="1" vertex="1">
          <mxGeometry x="1220" y="2157.73" width="10" height="20" as="geometry" />
        </mxCell>
        <mxCell id="NyVXkolvV2H5l8ZxX0Ff-381" value="OR" style="text;strokeColor=none;align=center;fillColor=none;html=1;verticalAlign=middle;whiteSpace=wrap;rounded=0;fontStyle=1" parent="1" vertex="1">
          <mxGeometry x="1220" y="2208.9" width="10" height="20" as="geometry" />
        </mxCell>
        <mxCell id="NyVXkolvV2H5l8ZxX0Ff-471" style="edgeStyle=orthogonalEdgeStyle;rounded=0;orthogonalLoop=1;jettySize=auto;html=1;entryX=0;entryY=0.5;entryDx=0;entryDy=0;" parent="1" edge="1">
          <mxGeometry relative="1" as="geometry">
            <mxPoint x="1355" y="2269.27" as="targetPoint" />
            <mxPoint x="440" y="1990" as="sourcePoint" />
            <Array as="points">
              <mxPoint x="440" y="2269" />
            </Array>
          </mxGeometry>
        </mxCell>
        <mxCell id="NyVXkolvV2H5l8ZxX0Ff-382" value="OR" style="text;strokeColor=none;align=center;fillColor=none;html=1;verticalAlign=middle;whiteSpace=wrap;rounded=0;fontStyle=1" parent="1" vertex="1">
          <mxGeometry x="1220" y="2259.27" width="10" height="20" as="geometry" />
        </mxCell>
        <mxCell id="NyVXkolvV2H5l8ZxX0Ff-383" value="OR" style="text;strokeColor=none;align=center;fillColor=none;html=1;verticalAlign=middle;whiteSpace=wrap;rounded=0;fontStyle=1" parent="1" vertex="1">
          <mxGeometry x="1220" y="2310" width="10" height="20" as="geometry" />
        </mxCell>
        <mxCell id="NyVXkolvV2H5l8ZxX0Ff-384" style="edgeStyle=orthogonalEdgeStyle;rounded=0;orthogonalLoop=1;jettySize=auto;html=1;exitX=1;exitY=0.5;exitDx=0;exitDy=0;exitPerimeter=0;" parent="1" source="NyVXkolvV2H5l8ZxX0Ff-385" edge="1">
          <mxGeometry relative="1" as="geometry">
            <mxPoint x="1516" y="2233.3846153846152" as="targetPoint" />
          </mxGeometry>
        </mxCell>
        <mxCell id="NyVXkolvV2H5l8ZxX0Ff-455" style="edgeStyle=orthogonalEdgeStyle;rounded=0;orthogonalLoop=1;jettySize=auto;html=1;entryX=0;entryY=0.25;entryDx=0;entryDy=0;entryPerimeter=0;" parent="1" target="NyVXkolvV2H5l8ZxX0Ff-385" edge="1">
          <mxGeometry relative="1" as="geometry">
            <mxPoint x="1350" y="1890" as="sourcePoint" />
            <Array as="points">
              <mxPoint x="1350" y="2208" />
            </Array>
          </mxGeometry>
        </mxCell>
        <mxCell id="NyVXkolvV2H5l8ZxX0Ff-385" value="" style="shape=or;whiteSpace=wrap;html=1;" parent="1" vertex="1">
          <mxGeometry x="1376" y="2181.46" width="80" height="104.54" as="geometry" />
        </mxCell>
        <mxCell id="NyVXkolvV2H5l8ZxX0Ff-386" style="edgeStyle=orthogonalEdgeStyle;rounded=0;orthogonalLoop=1;jettySize=auto;html=1;exitX=1;exitY=0.5;exitDx=0;exitDy=0;exitPerimeter=0;entryX=-0.013;entryY=0.081;entryDx=0;entryDy=0;entryPerimeter=0;" parent="1" source="NyVXkolvV2H5l8ZxX0Ff-374" target="NyVXkolvV2H5l8ZxX0Ff-385" edge="1">
          <mxGeometry relative="1" as="geometry" />
        </mxCell>
        <mxCell id="NyVXkolvV2H5l8ZxX0Ff-388" style="edgeStyle=orthogonalEdgeStyle;rounded=0;orthogonalLoop=1;jettySize=auto;html=1;exitX=1;exitY=0.5;exitDx=0;exitDy=0;exitPerimeter=0;entryX=-0.006;entryY=0.458;entryDx=0;entryDy=0;entryPerimeter=0;" parent="1" source="NyVXkolvV2H5l8ZxX0Ff-376" target="NyVXkolvV2H5l8ZxX0Ff-385" edge="1">
          <mxGeometry relative="1" as="geometry" />
        </mxCell>
        <mxCell id="NyVXkolvV2H5l8ZxX0Ff-389" style="edgeStyle=orthogonalEdgeStyle;rounded=0;orthogonalLoop=1;jettySize=auto;html=1;exitX=1;exitY=0.5;exitDx=0;exitDy=0;exitPerimeter=0;entryX=0;entryY=0.714;entryDx=0;entryDy=0;entryPerimeter=0;" parent="1" source="NyVXkolvV2H5l8ZxX0Ff-377" target="NyVXkolvV2H5l8ZxX0Ff-385" edge="1">
          <mxGeometry relative="1" as="geometry">
            <Array as="points">
              <mxPoint x="1311" y="2268.99" />
              <mxPoint x="1311" y="2255.99" />
            </Array>
          </mxGeometry>
        </mxCell>
        <mxCell id="NyVXkolvV2H5l8ZxX0Ff-390" style="edgeStyle=orthogonalEdgeStyle;rounded=0;orthogonalLoop=1;jettySize=auto;html=1;exitX=1;exitY=0.5;exitDx=0;exitDy=0;exitPerimeter=0;" parent="1" edge="1">
          <mxGeometry relative="1" as="geometry">
            <Array as="points">
              <mxPoint x="1326" y="2319.99" />
              <mxPoint x="1326" y="2273.99" />
            </Array>
            <mxPoint x="1376" y="2273.99" as="targetPoint" />
            <mxPoint x="1245" y="2320" as="sourcePoint" />
          </mxGeometry>
        </mxCell>
        <mxCell id="NyVXkolvV2H5l8ZxX0Ff-391" value="AND" style="text;strokeColor=none;align=center;fillColor=none;html=1;verticalAlign=middle;whiteSpace=wrap;rounded=0;fontStyle=1" parent="1" vertex="1">
          <mxGeometry x="1386" y="2223.73" width="30" height="20" as="geometry" />
        </mxCell>
        <mxCell id="NyVXkolvV2H5l8ZxX0Ff-392" value="segG" style="text;strokeColor=none;align=center;fillColor=none;html=1;verticalAlign=middle;whiteSpace=wrap;rounded=0;fontStyle=1" parent="1" vertex="1">
          <mxGeometry x="1526" y="2223.73" width="10" height="20" as="geometry" />
        </mxCell>
        <mxCell id="NyVXkolvV2H5l8ZxX0Ff-432" value="" style="endArrow=none;html=1;rounded=0;startArrow=oval;startFill=1;" parent="1" edge="1">
          <mxGeometry width="50" height="50" relative="1" as="geometry">
            <mxPoint x="1120" y="1373" as="sourcePoint" />
            <mxPoint x="1120" y="1423" as="targetPoint" />
          </mxGeometry>
        </mxCell>
        <mxCell id="NyVXkolvV2H5l8ZxX0Ff-434" value="" style="endArrow=none;html=1;rounded=0;startArrow=oval;startFill=1;" parent="1" edge="1">
          <mxGeometry width="50" height="50" relative="1" as="geometry">
            <mxPoint x="1140" y="1690" as="sourcePoint" />
            <mxPoint x="1140" y="1740" as="targetPoint" />
          </mxGeometry>
        </mxCell>
        <mxCell id="NyVXkolvV2H5l8ZxX0Ff-436" value="" style="endArrow=none;html=1;rounded=0;startArrow=oval;startFill=1;" parent="1" edge="1">
          <mxGeometry width="50" height="50" relative="1" as="geometry">
            <mxPoint x="470" y="704.28" as="sourcePoint" />
            <mxPoint x="470" y="754.28" as="targetPoint" />
          </mxGeometry>
        </mxCell>
        <mxCell id="NyVXkolvV2H5l8ZxX0Ff-439" value="" style="endArrow=none;html=1;rounded=0;startArrow=oval;startFill=1;" parent="1" edge="1">
          <mxGeometry width="50" height="50" relative="1" as="geometry">
            <mxPoint x="470" y="1820.73" as="sourcePoint" />
            <mxPoint x="470" y="1870.73" as="targetPoint" />
          </mxGeometry>
        </mxCell>
        <mxCell id="NyVXkolvV2H5l8ZxX0Ff-441" value="" style="endArrow=none;html=1;rounded=0;startArrow=oval;startFill=1;" parent="1" edge="1">
          <mxGeometry width="50" height="50" relative="1" as="geometry">
            <mxPoint x="450" y="760.38" as="sourcePoint" />
            <mxPoint x="450" y="810.38" as="targetPoint" />
          </mxGeometry>
        </mxCell>
        <mxCell id="NyVXkolvV2H5l8ZxX0Ff-443" value="" style="endArrow=none;html=1;rounded=0;startArrow=oval;startFill=1;" parent="1" edge="1">
          <mxGeometry width="50" height="50" relative="1" as="geometry">
            <mxPoint x="440" y="639.91" as="sourcePoint" />
            <mxPoint x="440" y="689.91" as="targetPoint" />
          </mxGeometry>
        </mxCell>
        <mxCell id="NyVXkolvV2H5l8ZxX0Ff-446" value="" style="endArrow=none;html=1;rounded=0;startArrow=oval;startFill=1;" parent="1" edge="1">
          <mxGeometry width="50" height="50" relative="1" as="geometry">
            <mxPoint x="450" y="1899.27" as="sourcePoint" />
            <mxPoint x="450" y="1940" as="targetPoint" />
          </mxGeometry>
        </mxCell>
        <mxCell id="NyVXkolvV2H5l8ZxX0Ff-448" value="" style="endArrow=none;html=1;rounded=0;startArrow=oval;startFill=1;" parent="1" edge="1">
          <mxGeometry width="50" height="50" relative="1" as="geometry">
            <mxPoint x="170.00000000000003" y="880" as="sourcePoint" />
            <mxPoint x="170.00000000000003" y="930" as="targetPoint" />
          </mxGeometry>
        </mxCell>
        <mxCell id="NyVXkolvV2H5l8ZxX0Ff-450" value="" style="endArrow=none;html=1;rounded=0;startArrow=oval;startFill=1;" parent="1" edge="1">
          <mxGeometry width="50" height="50" relative="1" as="geometry">
            <mxPoint x="440" y="1929" as="sourcePoint" />
            <mxPoint x="440" y="1979" as="targetPoint" />
          </mxGeometry>
        </mxCell>
        <mxCell id="NyVXkolvV2H5l8ZxX0Ff-453" value="" style="endArrow=none;html=1;rounded=0;startArrow=oval;startFill=1;" parent="1" edge="1">
          <mxGeometry width="50" height="50" relative="1" as="geometry">
            <mxPoint x="1120" y="1770.73" as="sourcePoint" />
            <mxPoint x="1120" y="1820.73" as="targetPoint" />
          </mxGeometry>
        </mxCell>
        <mxCell id="NyVXkolvV2H5l8ZxX0Ff-456" value="" style="endArrow=none;html=1;rounded=0;startArrow=oval;startFill=1;" parent="1" edge="1">
          <mxGeometry width="50" height="50" relative="1" as="geometry">
            <mxPoint x="1350" y="1859.73" as="sourcePoint" />
            <mxPoint x="1350" y="1909.73" as="targetPoint" />
          </mxGeometry>
        </mxCell>
        <mxCell id="NyVXkolvV2H5l8ZxX0Ff-458" value="" style="endArrow=none;html=1;rounded=0;startArrow=oval;startFill=1;" parent="1" edge="1">
          <mxGeometry width="50" height="50" relative="1" as="geometry">
            <mxPoint x="170" y="1949.27" as="sourcePoint" />
            <mxPoint x="170" y="1999.27" as="targetPoint" />
          </mxGeometry>
        </mxCell>
        <mxCell id="NyVXkolvV2H5l8ZxX0Ff-462" value="" style="endArrow=none;html=1;rounded=0;startArrow=oval;startFill=1;" parent="1" edge="1">
          <mxGeometry width="50" height="50" relative="1" as="geometry">
            <mxPoint x="450" y="1939.27" as="sourcePoint" />
            <mxPoint x="450" y="1980" as="targetPoint" />
          </mxGeometry>
        </mxCell>
        <mxCell id="NyVXkolvV2H5l8ZxX0Ff-464" value="" style="endArrow=none;html=1;rounded=0;startArrow=oval;startFill=1;" parent="1" edge="1">
          <mxGeometry width="50" height="50" relative="1" as="geometry">
            <mxPoint x="470" y="1878.27" as="sourcePoint" />
            <mxPoint x="470" y="1928.27" as="targetPoint" />
          </mxGeometry>
        </mxCell>
        <mxCell id="NyVXkolvV2H5l8ZxX0Ff-467" value="" style="endArrow=none;html=1;rounded=0;startArrow=oval;startFill=1;" parent="1" edge="1">
          <mxGeometry width="50" height="50" relative="1" as="geometry">
            <mxPoint x="490" y="877" as="sourcePoint" />
            <mxPoint x="490" y="927" as="targetPoint" />
          </mxGeometry>
        </mxCell>
        <mxCell id="NyVXkolvV2H5l8ZxX0Ff-472" value="" style="endArrow=none;html=1;rounded=0;startArrow=oval;startFill=1;" parent="1" edge="1">
          <mxGeometry width="50" height="50" relative="1" as="geometry">
            <mxPoint x="440" y="1990" as="sourcePoint" />
            <mxPoint x="440" y="2030.73" as="targetPoint" />
          </mxGeometry>
        </mxCell>
        <mxCell id="NyVXkolvV2H5l8ZxX0Ff-474" value="" style="endArrow=none;html=1;rounded=0;startArrow=oval;startFill=1;" parent="1" edge="1">
          <mxGeometry width="50" height="50" relative="1" as="geometry">
            <mxPoint x="1120" y="2000" as="sourcePoint" />
            <mxPoint x="1120" y="2040.73" as="targetPoint" />
          </mxGeometry>
        </mxCell>
        <mxCell id="NyVXkolvV2H5l8ZxX0Ff-482" value="" style="endArrow=none;html=1;rounded=0;startArrow=oval;startFill=1;" parent="1" edge="1">
          <mxGeometry width="50" height="50" relative="1" as="geometry">
            <mxPoint x="230" y="1980" as="sourcePoint" />
            <mxPoint x="230" y="2030" as="targetPoint" />
          </mxGeometry>
        </mxCell>
        <mxCell id="NyVXkolvV2H5l8ZxX0Ff-484" value="" style="endArrow=none;html=1;rounded=0;startArrow=oval;startFill=1;" parent="1" edge="1">
          <mxGeometry width="50" height="50" relative="1" as="geometry">
            <mxPoint x="250" y="1840.73" as="sourcePoint" />
            <mxPoint x="250" y="1890.73" as="targetPoint" />
          </mxGeometry>
        </mxCell>
        <mxCell id="NyVXkolvV2H5l8ZxX0Ff-486" value="" style="endArrow=none;html=1;rounded=0;startArrow=oval;startFill=1;" parent="1" edge="1">
          <mxGeometry width="50" height="50" relative="1" as="geometry">
            <mxPoint x="450" y="2157.73" as="sourcePoint" />
            <mxPoint x="450" y="2198.46" as="targetPoint" />
          </mxGeometry>
        </mxCell>
        <mxCell id="NyVXkolvV2H5l8ZxX0Ff-488" value="" style="endArrow=none;html=1;rounded=0;startArrow=oval;startFill=1;" parent="1" edge="1">
          <mxGeometry width="50" height="50" relative="1" as="geometry">
            <mxPoint x="490" y="2228.9" as="sourcePoint" />
            <mxPoint x="490" y="2269.63" as="targetPoint" />
          </mxGeometry>
        </mxCell>
        <mxCell id="LIZc8kX5cgw8Bf9auB0h-5" value="" style="endArrow=classic;html=1;rounded=0;" parent="1" edge="1">
          <mxGeometry width="50" height="50" relative="1" as="geometry">
            <mxPoint x="1628" y="1155.67" as="sourcePoint" />
            <mxPoint x="1768" y="1155.67" as="targetPoint" />
          </mxGeometry>
        </mxCell>
        <mxCell id="LIZc8kX5cgw8Bf9auB0h-6" value="" style="endArrow=none;html=1;rounded=0;" parent="1" edge="1">
          <mxGeometry width="50" height="50" relative="1" as="geometry">
            <mxPoint x="1678" y="1165.67" as="sourcePoint" />
            <mxPoint x="1698" y="1145.67" as="targetPoint" />
          </mxGeometry>
        </mxCell>
        <mxCell id="LIZc8kX5cgw8Bf9auB0h-7" value="sel" style="text;strokeColor=none;align=center;fillColor=none;html=1;verticalAlign=middle;whiteSpace=wrap;rounded=0;fontStyle=1" parent="1" vertex="1">
          <mxGeometry x="1610" y="1145.67" width="10" height="20" as="geometry" />
        </mxCell>
        <mxCell id="LIZc8kX5cgw8Bf9auB0h-8" value="4" style="text;html=1;align=center;verticalAlign=middle;resizable=0;points=[];autosize=1;strokeColor=none;fillColor=none;" parent="1" vertex="1">
          <mxGeometry x="80" y="489.63" width="30" height="30" as="geometry" />
        </mxCell>
        <mxCell id="LIZc8kX5cgw8Bf9auB0h-9" value="3" style="text;html=1;align=center;verticalAlign=middle;resizable=0;points=[];autosize=1;strokeColor=none;fillColor=none;" parent="1" vertex="1">
          <mxGeometry x="1680" y="1109.83" width="30" height="30" as="geometry" />
        </mxCell>
        <mxCell id="LIZc8kX5cgw8Bf9auB0h-10" value="" style="endArrow=none;html=1;rounded=0;" parent="1" edge="1">
          <mxGeometry width="50" height="50" relative="1" as="geometry">
            <mxPoint x="1770" y="1390.1999999999998" as="sourcePoint" />
            <mxPoint x="1768" y="1155.94" as="targetPoint" />
          </mxGeometry>
        </mxCell>
        <mxCell id="LIZc8kX5cgw8Bf9auB0h-13" value="" style="endArrow=classic;html=1;rounded=0;" parent="1" edge="1">
          <mxGeometry width="50" height="50" relative="1" as="geometry">
            <mxPoint x="1768" y="1156.27" as="sourcePoint" />
            <mxPoint x="1960" y="1156.1999999999998" as="targetPoint" />
          </mxGeometry>
        </mxCell>
        <mxCell id="LIZc8kX5cgw8Bf9auB0h-14" value="" style="endArrow=classic;html=1;rounded=0;" parent="1" edge="1">
          <mxGeometry width="50" height="50" relative="1" as="geometry">
            <mxPoint x="1770" y="1267.7799999999997" as="sourcePoint" />
            <mxPoint x="1962" y="1267.71" as="targetPoint" />
          </mxGeometry>
        </mxCell>
        <mxCell id="LIZc8kX5cgw8Bf9auB0h-15" value="" style="endArrow=classic;html=1;rounded=0;" parent="1" edge="1">
          <mxGeometry width="50" height="50" relative="1" as="geometry">
            <mxPoint x="1770" y="1390.27" as="sourcePoint" />
            <mxPoint x="1962" y="1390.1999999999998" as="targetPoint" />
          </mxGeometry>
        </mxCell>
        <mxCell id="LIZc8kX5cgw8Bf9auB0h-16" value="" style="triangle;whiteSpace=wrap;html=1;" parent="1" vertex="1">
          <mxGeometry x="1960" y="1129.7399999999998" width="70" height="60" as="geometry" />
        </mxCell>
        <mxCell id="LIZc8kX5cgw8Bf9auB0h-18" value="" style="ellipse;whiteSpace=wrap;html=1;aspect=fixed;" parent="1" vertex="1">
          <mxGeometry x="2031.245098039216" y="1153" width="12.75" height="12.75" as="geometry" />
        </mxCell>
        <mxCell id="LIZc8kX5cgw8Bf9auB0h-19" value="NOT" style="text;strokeColor=none;align=center;fillColor=none;html=1;verticalAlign=middle;whiteSpace=wrap;rounded=0;fontStyle=1" parent="1" vertex="1">
          <mxGeometry x="1980" y="1149.37" width="10" height="20" as="geometry" />
        </mxCell>
        <mxCell id="LIZc8kX5cgw8Bf9auB0h-20" value="~sel[2]" style="text;strokeColor=none;align=center;fillColor=none;html=1;verticalAlign=middle;whiteSpace=wrap;rounded=0;fontStyle=1" parent="1" vertex="1">
          <mxGeometry x="2034" y="1129.37" width="10" height="20" as="geometry" />
        </mxCell>
        <mxCell id="LIZc8kX5cgw8Bf9auB0h-23" value="" style="triangle;whiteSpace=wrap;html=1;" parent="1" vertex="1">
          <mxGeometry x="1960" y="1240.57" width="70" height="60" as="geometry" />
        </mxCell>
        <mxCell id="LIZc8kX5cgw8Bf9auB0h-24" value="" style="ellipse;whiteSpace=wrap;html=1;aspect=fixed;" parent="1" vertex="1">
          <mxGeometry x="2031.245098039216" y="1263.83" width="12.75" height="12.75" as="geometry" />
        </mxCell>
        <mxCell id="LIZc8kX5cgw8Bf9auB0h-25" value="NOT" style="text;strokeColor=none;align=center;fillColor=none;html=1;verticalAlign=middle;whiteSpace=wrap;rounded=0;fontStyle=1" parent="1" vertex="1">
          <mxGeometry x="1980" y="1260.1999999999998" width="10" height="20" as="geometry" />
        </mxCell>
        <mxCell id="LIZc8kX5cgw8Bf9auB0h-26" value="~sel[1]" style="text;strokeColor=none;align=center;fillColor=none;html=1;verticalAlign=middle;whiteSpace=wrap;rounded=0;fontStyle=1" parent="1" vertex="1">
          <mxGeometry x="2034" y="1240.1999999999998" width="10" height="20" as="geometry" />
        </mxCell>
        <mxCell id="LIZc8kX5cgw8Bf9auB0h-27" value="" style="triangle;whiteSpace=wrap;html=1;" parent="1" vertex="1">
          <mxGeometry x="1960" y="1359.57" width="70" height="60" as="geometry" />
        </mxCell>
        <mxCell id="LIZc8kX5cgw8Bf9auB0h-28" value="" style="ellipse;whiteSpace=wrap;html=1;aspect=fixed;" parent="1" vertex="1">
          <mxGeometry x="2031.245098039216" y="1382.83" width="12.75" height="12.75" as="geometry" />
        </mxCell>
        <mxCell id="LIZc8kX5cgw8Bf9auB0h-29" value="NOT" style="text;strokeColor=none;align=center;fillColor=none;html=1;verticalAlign=middle;whiteSpace=wrap;rounded=0;fontStyle=1" parent="1" vertex="1">
          <mxGeometry x="1980" y="1379.1999999999998" width="10" height="20" as="geometry" />
        </mxCell>
        <mxCell id="LIZc8kX5cgw8Bf9auB0h-30" value="~sel[0]" style="text;strokeColor=none;align=center;fillColor=none;html=1;verticalAlign=middle;whiteSpace=wrap;rounded=0;fontStyle=1" parent="1" vertex="1">
          <mxGeometry x="2034" y="1359.1999999999998" width="10" height="20" as="geometry" />
        </mxCell>
        <mxCell id="LIZc8kX5cgw8Bf9auB0h-34" value="sel[2]" style="text;strokeColor=none;align=center;fillColor=none;html=1;verticalAlign=middle;whiteSpace=wrap;rounded=0;fontStyle=1" parent="1" vertex="1">
          <mxGeometry x="1783" y="1133" width="10" height="20" as="geometry" />
        </mxCell>
        <mxCell id="LIZc8kX5cgw8Bf9auB0h-35" value="sel[1]" style="text;strokeColor=none;align=center;fillColor=none;html=1;verticalAlign=middle;whiteSpace=wrap;rounded=0;fontStyle=1" parent="1" vertex="1">
          <mxGeometry x="1783" y="1243.83" width="10" height="20" as="geometry" />
        </mxCell>
        <mxCell id="LIZc8kX5cgw8Bf9auB0h-36" value="sel[0]" style="text;strokeColor=none;align=center;fillColor=none;html=1;verticalAlign=middle;whiteSpace=wrap;rounded=0;fontStyle=1" parent="1" vertex="1">
          <mxGeometry x="1783" y="1362.83" width="10" height="20" as="geometry" />
        </mxCell>
        <mxCell id="LIZc8kX5cgw8Bf9auB0h-53" style="edgeStyle=orthogonalEdgeStyle;rounded=0;orthogonalLoop=1;jettySize=auto;html=1;entryX=0.175;entryY=0.25;entryDx=0;entryDy=0;entryPerimeter=0;" parent="1" target="LIZc8kX5cgw8Bf9auB0h-37" edge="1">
          <mxGeometry relative="1" as="geometry">
            <mxPoint x="1810" y="1150.1999999999998" as="sourcePoint" />
            <Array as="points">
              <mxPoint x="1810" y="1040.1999999999998" />
            </Array>
          </mxGeometry>
        </mxCell>
        <mxCell id="LIZc8kX5cgw8Bf9auB0h-54" style="edgeStyle=orthogonalEdgeStyle;rounded=0;orthogonalLoop=1;jettySize=auto;html=1;entryX=0.25;entryY=0.5;entryDx=0;entryDy=0;entryPerimeter=0;" parent="1" target="LIZc8kX5cgw8Bf9auB0h-37" edge="1">
          <mxGeometry relative="1" as="geometry">
            <mxPoint x="1831" y="1260.1999999999998" as="sourcePoint" />
            <Array as="points">
              <mxPoint x="1831" y="1260.1999999999998" />
              <mxPoint x="1831" y="1051.1999999999998" />
            </Array>
          </mxGeometry>
        </mxCell>
        <mxCell id="LIZc8kX5cgw8Bf9auB0h-55" style="edgeStyle=orthogonalEdgeStyle;rounded=0;orthogonalLoop=1;jettySize=auto;html=1;exitX=0.175;exitY=0.75;exitDx=0;exitDy=0;exitPerimeter=0;entryX=0.175;entryY=0.75;entryDx=0;entryDy=0;entryPerimeter=0;" parent="1" target="LIZc8kX5cgw8Bf9auB0h-37" edge="1">
          <mxGeometry relative="1" as="geometry">
            <mxPoint x="1850" y="1390.6102814503206" as="sourcePoint" />
            <Array as="points">
              <mxPoint x="1850" y="1061.1999999999998" />
            </Array>
          </mxGeometry>
        </mxCell>
        <mxCell id="LIZc8kX5cgw8Bf9auB0h-37" value="" style="shape=xor;whiteSpace=wrap;html=1;" parent="1" vertex="1">
          <mxGeometry x="2324" y="1030" width="40" height="41.46" as="geometry" />
        </mxCell>
        <mxCell id="LIZc8kX5cgw8Bf9auB0h-38" value="OR" style="text;strokeColor=none;align=center;fillColor=none;html=1;verticalAlign=middle;whiteSpace=wrap;rounded=0;fontStyle=1" parent="1" vertex="1">
          <mxGeometry x="2339" y="1040.73" width="10" height="20" as="geometry" />
        </mxCell>
        <mxCell id="LIZc8kX5cgw8Bf9auB0h-59" style="edgeStyle=orthogonalEdgeStyle;rounded=0;orthogonalLoop=1;jettySize=auto;html=1;exitX=0.175;exitY=0.25;exitDx=0;exitDy=0;exitPerimeter=0;entryX=0.175;entryY=0.25;entryDx=0;entryDy=0;entryPerimeter=0;" parent="1" target="LIZc8kX5cgw8Bf9auB0h-39" edge="1">
          <mxGeometry relative="1" as="geometry">
            <mxPoint x="2070" y="1040.1999999999998" as="sourcePoint" />
            <Array as="points">
              <mxPoint x="2070" y="1097.1999999999998" />
            </Array>
          </mxGeometry>
        </mxCell>
        <mxCell id="LIZc8kX5cgw8Bf9auB0h-60" style="edgeStyle=orthogonalEdgeStyle;rounded=0;orthogonalLoop=1;jettySize=auto;html=1;exitX=0.25;exitY=0.5;exitDx=0;exitDy=0;exitPerimeter=0;entryX=0.25;entryY=0.5;entryDx=0;entryDy=0;entryPerimeter=0;" parent="1" target="LIZc8kX5cgw8Bf9auB0h-39" edge="1">
          <mxGeometry relative="1" as="geometry">
            <mxPoint x="2090" y="1050.1999999999998" as="sourcePoint" />
            <Array as="points">
              <mxPoint x="2090" y="1107.1999999999998" />
            </Array>
          </mxGeometry>
        </mxCell>
        <mxCell id="LIZc8kX5cgw8Bf9auB0h-39" value="" style="shape=xor;whiteSpace=wrap;html=1;" parent="1" vertex="1">
          <mxGeometry x="2324" y="1086.7399999999998" width="40" height="41.46" as="geometry" />
        </mxCell>
        <mxCell id="LIZc8kX5cgw8Bf9auB0h-40" value="OR" style="text;strokeColor=none;align=center;fillColor=none;html=1;verticalAlign=middle;whiteSpace=wrap;rounded=0;fontStyle=1" parent="1" vertex="1">
          <mxGeometry x="2339" y="1097.4699999999998" width="10" height="20" as="geometry" />
        </mxCell>
        <mxCell id="LIZc8kX5cgw8Bf9auB0h-64" style="edgeStyle=orthogonalEdgeStyle;rounded=0;orthogonalLoop=1;jettySize=auto;html=1;exitX=0.175;exitY=0.25;exitDx=0;exitDy=0;exitPerimeter=0;entryX=0.175;entryY=0.25;entryDx=0;entryDy=0;entryPerimeter=0;" parent="1" target="LIZc8kX5cgw8Bf9auB0h-41" edge="1">
          <mxGeometry relative="1" as="geometry">
            <mxPoint x="2110" y="1040.1999999999998" as="sourcePoint" />
            <Array as="points">
              <mxPoint x="2110" y="1161.1999999999998" />
            </Array>
          </mxGeometry>
        </mxCell>
        <mxCell id="LIZc8kX5cgw8Bf9auB0h-65" style="edgeStyle=orthogonalEdgeStyle;rounded=0;orthogonalLoop=1;jettySize=auto;html=1;exitX=0.175;exitY=0.75;exitDx=0;exitDy=0;exitPerimeter=0;entryX=0.175;entryY=0.75;entryDx=0;entryDy=0;entryPerimeter=0;" parent="1" target="LIZc8kX5cgw8Bf9auB0h-41" edge="1">
          <mxGeometry relative="1" as="geometry">
            <mxPoint x="2130" y="1060.1999999999998" as="sourcePoint" />
            <Array as="points">
              <mxPoint x="2130" y="1182.1999999999998" />
            </Array>
          </mxGeometry>
        </mxCell>
        <mxCell id="LIZc8kX5cgw8Bf9auB0h-41" value="" style="shape=xor;whiteSpace=wrap;html=1;" parent="1" vertex="1">
          <mxGeometry x="2324" y="1151.02" width="40" height="41.46" as="geometry" />
        </mxCell>
        <mxCell id="LIZc8kX5cgw8Bf9auB0h-42" value="OR" style="text;strokeColor=none;align=center;fillColor=none;html=1;verticalAlign=middle;whiteSpace=wrap;rounded=0;fontStyle=1" parent="1" vertex="1">
          <mxGeometry x="2339" y="1161.75" width="10" height="20" as="geometry" />
        </mxCell>
        <mxCell id="LIZc8kX5cgw8Bf9auB0h-69" style="edgeStyle=orthogonalEdgeStyle;rounded=0;orthogonalLoop=1;jettySize=auto;html=1;exitX=0.175;exitY=0.25;exitDx=0;exitDy=0;exitPerimeter=0;entryX=0.175;entryY=0.25;entryDx=0;entryDy=0;entryPerimeter=0;" parent="1" target="LIZc8kX5cgw8Bf9auB0h-43" edge="1">
          <mxGeometry relative="1" as="geometry">
            <mxPoint x="2150" y="1040.1999999999998" as="sourcePoint" />
            <Array as="points">
              <mxPoint x="2150" y="1223.1999999999998" />
            </Array>
          </mxGeometry>
        </mxCell>
        <mxCell id="LIZc8kX5cgw8Bf9auB0h-70" style="edgeStyle=orthogonalEdgeStyle;rounded=0;orthogonalLoop=1;jettySize=auto;html=1;exitX=0.25;exitY=0.5;exitDx=0;exitDy=0;exitPerimeter=0;entryX=0.25;entryY=0.5;entryDx=0;entryDy=0;entryPerimeter=0;" parent="1" target="LIZc8kX5cgw8Bf9auB0h-43" edge="1">
          <mxGeometry relative="1" as="geometry">
            <mxPoint x="2080" y="1233.5333333333333" as="sourcePoint" />
          </mxGeometry>
        </mxCell>
        <mxCell id="LIZc8kX5cgw8Bf9auB0h-74" style="edgeStyle=orthogonalEdgeStyle;rounded=0;orthogonalLoop=1;jettySize=auto;html=1;exitX=0.175;exitY=0.75;exitDx=0;exitDy=0;exitPerimeter=0;entryX=0.175;entryY=0.75;entryDx=0;entryDy=0;entryPerimeter=0;" parent="1" edge="1">
          <mxGeometry relative="1" as="geometry">
            <mxPoint x="2331" y="1243.5749999999998" as="targetPoint" />
            <mxPoint x="2070.0000000000005" y="1390.1999999999998" as="sourcePoint" />
            <Array as="points">
              <mxPoint x="2070" y="1243.1999999999998" />
            </Array>
          </mxGeometry>
        </mxCell>
        <mxCell id="LIZc8kX5cgw8Bf9auB0h-43" value="" style="shape=xor;whiteSpace=wrap;html=1;" parent="1" vertex="1">
          <mxGeometry x="2324" y="1212.48" width="40" height="41.46" as="geometry" />
        </mxCell>
        <mxCell id="LIZc8kX5cgw8Bf9auB0h-44" value="OR" style="text;strokeColor=none;align=center;fillColor=none;html=1;verticalAlign=middle;whiteSpace=wrap;rounded=0;fontStyle=1" parent="1" vertex="1">
          <mxGeometry x="2339" y="1223.21" width="10" height="20" as="geometry" />
        </mxCell>
        <mxCell id="LIZc8kX5cgw8Bf9auB0h-77" style="edgeStyle=orthogonalEdgeStyle;rounded=0;orthogonalLoop=1;jettySize=auto;html=1;exitX=0.25;exitY=0.5;exitDx=0;exitDy=0;exitPerimeter=0;entryX=0.25;entryY=0.5;entryDx=0;entryDy=0;entryPerimeter=0;" parent="1" target="LIZc8kX5cgw8Bf9auB0h-45" edge="1">
          <mxGeometry relative="1" as="geometry">
            <mxPoint x="2160" y="1050.1999999999998" as="sourcePoint" />
            <Array as="points">
              <mxPoint x="2160" y="1300.1999999999998" />
            </Array>
          </mxGeometry>
        </mxCell>
        <mxCell id="LIZc8kX5cgw8Bf9auB0h-78" style="edgeStyle=orthogonalEdgeStyle;rounded=0;orthogonalLoop=1;jettySize=auto;html=1;exitX=0.175;exitY=0.75;exitDx=0;exitDy=0;exitPerimeter=0;entryX=0.175;entryY=0.75;entryDx=0;entryDy=0;entryPerimeter=0;" parent="1" target="LIZc8kX5cgw8Bf9auB0h-45" edge="1">
          <mxGeometry relative="1" as="geometry">
            <mxPoint x="2180" y="1060.1999999999998" as="sourcePoint" />
            <Array as="points">
              <mxPoint x="2180" y="1311.1999999999998" />
            </Array>
          </mxGeometry>
        </mxCell>
        <mxCell id="LIZc8kX5cgw8Bf9auB0h-45" value="" style="shape=xor;whiteSpace=wrap;html=1;" parent="1" vertex="1">
          <mxGeometry x="2324" y="1279.83" width="40" height="41.46" as="geometry" />
        </mxCell>
        <mxCell id="LIZc8kX5cgw8Bf9auB0h-46" value="OR" style="text;strokeColor=none;align=center;fillColor=none;html=1;verticalAlign=middle;whiteSpace=wrap;rounded=0;fontStyle=1" parent="1" vertex="1">
          <mxGeometry x="2339" y="1290.56" width="10" height="20" as="geometry" />
        </mxCell>
        <mxCell id="LIZc8kX5cgw8Bf9auB0h-81" style="edgeStyle=orthogonalEdgeStyle;rounded=0;orthogonalLoop=1;jettySize=auto;html=1;exitX=0.175;exitY=0.25;exitDx=0;exitDy=0;exitPerimeter=0;entryX=0.175;entryY=0.25;entryDx=0;entryDy=0;entryPerimeter=0;" parent="1" target="LIZc8kX5cgw8Bf9auB0h-47" edge="1">
          <mxGeometry relative="1" as="geometry">
            <mxPoint x="2060" y="1290.1999999999998" as="sourcePoint" />
            <Array as="points">
              <mxPoint x="2060" y="1354.1999999999998" />
            </Array>
          </mxGeometry>
        </mxCell>
        <mxCell id="LIZc8kX5cgw8Bf9auB0h-89" style="edgeStyle=orthogonalEdgeStyle;rounded=0;orthogonalLoop=1;jettySize=auto;html=1;exitX=0.25;exitY=0.5;exitDx=0;exitDy=0;exitPerimeter=0;entryX=0.25;entryY=0.5;entryDx=0;entryDy=0;entryPerimeter=0;" parent="1" target="LIZc8kX5cgw8Bf9auB0h-47" edge="1">
          <mxGeometry relative="1" as="geometry">
            <mxPoint x="2200" y="1050.1999999999998" as="sourcePoint" />
            <Array as="points">
              <mxPoint x="2200" y="1364.1999999999998" />
            </Array>
          </mxGeometry>
        </mxCell>
        <mxCell id="LIZc8kX5cgw8Bf9auB0h-47" value="" style="shape=xor;whiteSpace=wrap;html=1;" parent="1" vertex="1">
          <mxGeometry x="2324" y="1343.4699999999998" width="40" height="41.46" as="geometry" />
        </mxCell>
        <mxCell id="LIZc8kX5cgw8Bf9auB0h-48" value="OR" style="text;strokeColor=none;align=center;fillColor=none;html=1;verticalAlign=middle;whiteSpace=wrap;rounded=0;fontStyle=1" parent="1" vertex="1">
          <mxGeometry x="2339" y="1354.1999999999998" width="10" height="20" as="geometry" />
        </mxCell>
        <mxCell id="LIZc8kX5cgw8Bf9auB0h-82" style="edgeStyle=orthogonalEdgeStyle;rounded=0;orthogonalLoop=1;jettySize=auto;html=1;exitX=0.175;exitY=0.25;exitDx=0;exitDy=0;exitPerimeter=0;entryX=0.175;entryY=0.25;entryDx=0;entryDy=0;entryPerimeter=0;" parent="1" target="LIZc8kX5cgw8Bf9auB0h-49" edge="1">
          <mxGeometry relative="1" as="geometry">
            <mxPoint x="2060" y="1350.1999999999998" as="sourcePoint" />
            <Array as="points">
              <mxPoint x="2060" y="1424.1999999999998" />
            </Array>
          </mxGeometry>
        </mxCell>
        <mxCell id="LIZc8kX5cgw8Bf9auB0h-90" style="edgeStyle=orthogonalEdgeStyle;rounded=0;orthogonalLoop=1;jettySize=auto;html=1;exitX=0.175;exitY=0.75;exitDx=0;exitDy=0;exitPerimeter=0;entryX=0.175;entryY=0.75;entryDx=0;entryDy=0;entryPerimeter=0;" parent="1" target="LIZc8kX5cgw8Bf9auB0h-49" edge="1">
          <mxGeometry relative="1" as="geometry">
            <mxPoint x="2300" y="1070.1999999999998" as="sourcePoint" />
            <Array as="points">
              <mxPoint x="2300" y="1444.1999999999998" />
            </Array>
          </mxGeometry>
        </mxCell>
        <mxCell id="LIZc8kX5cgw8Bf9auB0h-49" value="" style="shape=xor;whiteSpace=wrap;html=1;" parent="1" vertex="1">
          <mxGeometry x="2324" y="1413.4699999999998" width="40" height="41.46" as="geometry" />
        </mxCell>
        <mxCell id="LIZc8kX5cgw8Bf9auB0h-50" value="OR" style="text;strokeColor=none;align=center;fillColor=none;html=1;verticalAlign=middle;whiteSpace=wrap;rounded=0;fontStyle=1" parent="1" vertex="1">
          <mxGeometry x="2339" y="1424.1999999999998" width="10" height="20" as="geometry" />
        </mxCell>
        <mxCell id="LIZc8kX5cgw8Bf9auB0h-83" style="edgeStyle=orthogonalEdgeStyle;rounded=0;orthogonalLoop=1;jettySize=auto;html=1;exitX=0.175;exitY=0.25;exitDx=0;exitDy=0;exitPerimeter=0;entryX=0.175;entryY=0.25;entryDx=0;entryDy=0;entryPerimeter=0;" parent="1" target="LIZc8kX5cgw8Bf9auB0h-51" edge="1">
          <mxGeometry relative="1" as="geometry">
            <mxPoint x="2060" y="1420.1999999999998" as="sourcePoint" />
            <Array as="points">
              <mxPoint x="2060" y="1490.1999999999998" />
            </Array>
          </mxGeometry>
        </mxCell>
        <mxCell id="LIZc8kX5cgw8Bf9auB0h-100" style="edgeStyle=orthogonalEdgeStyle;rounded=0;orthogonalLoop=1;jettySize=auto;html=1;exitX=0.25;exitY=0.5;exitDx=0;exitDy=0;exitPerimeter=0;entryX=0.25;entryY=0.5;entryDx=0;entryDy=0;entryPerimeter=0;" parent="1" target="LIZc8kX5cgw8Bf9auB0h-51" edge="1">
          <mxGeometry relative="1" as="geometry">
            <mxPoint x="2080" y="1440.1999999999998" as="sourcePoint" />
            <Array as="points">
              <mxPoint x="2080" y="1500.1999999999998" />
            </Array>
          </mxGeometry>
        </mxCell>
        <mxCell id="LIZc8kX5cgw8Bf9auB0h-104" style="edgeStyle=orthogonalEdgeStyle;rounded=0;orthogonalLoop=1;jettySize=auto;html=1;exitX=0.175;exitY=0.75;exitDx=0;exitDy=0;exitPerimeter=0;entryX=0.175;entryY=0.75;entryDx=0;entryDy=0;entryPerimeter=0;" parent="1" target="LIZc8kX5cgw8Bf9auB0h-51" edge="1">
          <mxGeometry relative="1" as="geometry">
            <mxPoint x="2070" y="1390.1999999999998" as="sourcePoint" />
            <Array as="points">
              <mxPoint x="2070" y="1511.1999999999998" />
            </Array>
          </mxGeometry>
        </mxCell>
        <mxCell id="LIZc8kX5cgw8Bf9auB0h-51" value="" style="shape=xor;whiteSpace=wrap;html=1;" parent="1" vertex="1">
          <mxGeometry x="2324" y="1479.6599999999999" width="40" height="41.46" as="geometry" />
        </mxCell>
        <mxCell id="LIZc8kX5cgw8Bf9auB0h-52" value="OR" style="text;strokeColor=none;align=center;fillColor=none;html=1;verticalAlign=middle;whiteSpace=wrap;rounded=0;fontStyle=1" parent="1" vertex="1">
          <mxGeometry x="2339" y="1490.3899999999999" width="10" height="20" as="geometry" />
        </mxCell>
        <mxCell id="LIZc8kX5cgw8Bf9auB0h-56" value="" style="endArrow=none;html=1;rounded=0;startArrow=oval;startFill=1;" parent="1" edge="1">
          <mxGeometry width="50" height="50" relative="1" as="geometry">
            <mxPoint x="1831" y="1267.83" as="sourcePoint" />
            <mxPoint x="1831" y="1217.83" as="targetPoint" />
          </mxGeometry>
        </mxCell>
        <mxCell id="LIZc8kX5cgw8Bf9auB0h-57" value="" style="endArrow=none;html=1;rounded=0;startArrow=oval;startFill=1;" parent="1" edge="1">
          <mxGeometry width="50" height="50" relative="1" as="geometry">
            <mxPoint x="1810" y="1156.94" as="sourcePoint" />
            <mxPoint x="1810" y="1106.94" as="targetPoint" />
          </mxGeometry>
        </mxCell>
        <mxCell id="LIZc8kX5cgw8Bf9auB0h-58" value="" style="endArrow=none;html=1;rounded=0;startArrow=oval;startFill=1;" parent="1" edge="1">
          <mxGeometry width="50" height="50" relative="1" as="geometry">
            <mxPoint x="1850" y="1390.1999999999998" as="sourcePoint" />
            <mxPoint x="1850" y="1340.1999999999998" as="targetPoint" />
          </mxGeometry>
        </mxCell>
        <mxCell id="LIZc8kX5cgw8Bf9auB0h-61" style="edgeStyle=orthogonalEdgeStyle;rounded=0;orthogonalLoop=1;jettySize=auto;html=1;exitX=1;exitY=0.5;exitDx=0;exitDy=0;entryX=0.175;entryY=0.75;entryDx=0;entryDy=0;entryPerimeter=0;" parent="1" source="LIZc8kX5cgw8Bf9auB0h-28" target="LIZc8kX5cgw8Bf9auB0h-39" edge="1">
          <mxGeometry relative="1" as="geometry">
            <Array as="points">
              <mxPoint x="2070" y="1389.1999999999998" />
              <mxPoint x="2070" y="1118.1999999999998" />
            </Array>
          </mxGeometry>
        </mxCell>
        <mxCell id="LIZc8kX5cgw8Bf9auB0h-62" value="" style="endArrow=none;html=1;rounded=0;startArrow=oval;startFill=1;" parent="1" edge="1">
          <mxGeometry width="50" height="50" relative="1" as="geometry">
            <mxPoint x="2090" y="1050.58" as="sourcePoint" />
            <mxPoint x="2090" y="1100.58" as="targetPoint" />
          </mxGeometry>
        </mxCell>
        <mxCell id="LIZc8kX5cgw8Bf9auB0h-63" value="" style="endArrow=none;html=1;rounded=0;startArrow=oval;startFill=1;" parent="1" edge="1">
          <mxGeometry width="50" height="50" relative="1" as="geometry">
            <mxPoint x="2070" y="1039.85" as="sourcePoint" />
            <mxPoint x="2070" y="1089.85" as="targetPoint" />
          </mxGeometry>
        </mxCell>
        <mxCell id="LIZc8kX5cgw8Bf9auB0h-66" style="edgeStyle=orthogonalEdgeStyle;rounded=0;orthogonalLoop=1;jettySize=auto;html=1;exitX=1;exitY=0.5;exitDx=0;exitDy=0;entryX=0.25;entryY=0.5;entryDx=0;entryDy=0;entryPerimeter=0;" parent="1" source="LIZc8kX5cgw8Bf9auB0h-24" target="LIZc8kX5cgw8Bf9auB0h-41" edge="1">
          <mxGeometry relative="1" as="geometry">
            <Array as="points">
              <mxPoint x="2080" y="1270.1999999999998" />
              <mxPoint x="2080" y="1172.1999999999998" />
            </Array>
          </mxGeometry>
        </mxCell>
        <mxCell id="LIZc8kX5cgw8Bf9auB0h-67" value="" style="endArrow=none;html=1;rounded=0;startArrow=oval;startFill=1;" parent="1" edge="1">
          <mxGeometry width="50" height="50" relative="1" as="geometry">
            <mxPoint x="2110" y="1040.73" as="sourcePoint" />
            <mxPoint x="2110" y="1090.73" as="targetPoint" />
          </mxGeometry>
        </mxCell>
        <mxCell id="LIZc8kX5cgw8Bf9auB0h-68" value="" style="endArrow=none;html=1;rounded=0;startArrow=oval;startFill=1;" parent="1" edge="1">
          <mxGeometry width="50" height="50" relative="1" as="geometry">
            <mxPoint x="2130" y="1060.73" as="sourcePoint" />
            <mxPoint x="2130" y="1110.73" as="targetPoint" />
          </mxGeometry>
        </mxCell>
        <mxCell id="LIZc8kX5cgw8Bf9auB0h-71" value="" style="endArrow=none;html=1;rounded=0;startArrow=oval;startFill=1;" parent="1" edge="1">
          <mxGeometry width="50" height="50" relative="1" as="geometry">
            <mxPoint x="2150" y="1040.73" as="sourcePoint" />
            <mxPoint x="2150" y="1090.73" as="targetPoint" />
          </mxGeometry>
        </mxCell>
        <mxCell id="LIZc8kX5cgw8Bf9auB0h-72" value="" style="endArrow=none;html=1;rounded=0;startArrow=oval;startFill=1;" parent="1" edge="1">
          <mxGeometry width="50" height="50" relative="1" as="geometry">
            <mxPoint x="2080" y="1233.38" as="sourcePoint" />
            <mxPoint x="2120" y="1233.6399999999999" as="targetPoint" />
          </mxGeometry>
        </mxCell>
        <mxCell id="LIZc8kX5cgw8Bf9auB0h-75" value="" style="endArrow=none;html=1;rounded=0;startArrow=oval;startFill=1;" parent="1" edge="1">
          <mxGeometry width="50" height="50" relative="1" as="geometry">
            <mxPoint x="2070" y="1243.21" as="sourcePoint" />
            <mxPoint x="2110" y="1243.47" as="targetPoint" />
          </mxGeometry>
        </mxCell>
        <mxCell id="LIZc8kX5cgw8Bf9auB0h-76" style="edgeStyle=orthogonalEdgeStyle;rounded=0;orthogonalLoop=1;jettySize=auto;html=1;exitX=1;exitY=0.5;exitDx=0;exitDy=0;entryX=0.175;entryY=0.25;entryDx=0;entryDy=0;entryPerimeter=0;" parent="1" source="LIZc8kX5cgw8Bf9auB0h-18" target="LIZc8kX5cgw8Bf9auB0h-45" edge="1">
          <mxGeometry relative="1" as="geometry">
            <Array as="points">
              <mxPoint x="2060" y="1159.1999999999998" />
              <mxPoint x="2060" y="1290.1999999999998" />
            </Array>
          </mxGeometry>
        </mxCell>
        <mxCell id="LIZc8kX5cgw8Bf9auB0h-79" value="" style="endArrow=none;html=1;rounded=0;startArrow=oval;startFill=1;" parent="1" edge="1">
          <mxGeometry width="50" height="50" relative="1" as="geometry">
            <mxPoint x="2160" y="1050.58" as="sourcePoint" />
            <mxPoint x="2160" y="1100.58" as="targetPoint" />
          </mxGeometry>
        </mxCell>
        <mxCell id="LIZc8kX5cgw8Bf9auB0h-80" value="" style="endArrow=none;html=1;rounded=0;startArrow=oval;startFill=1;" parent="1" edge="1">
          <mxGeometry width="50" height="50" relative="1" as="geometry">
            <mxPoint x="2180" y="1060.73" as="sourcePoint" />
            <mxPoint x="2180" y="1110.73" as="targetPoint" />
          </mxGeometry>
        </mxCell>
        <mxCell id="LIZc8kX5cgw8Bf9auB0h-85" value="" style="endArrow=none;html=1;rounded=0;startArrow=oval;startFill=1;" parent="1" edge="1">
          <mxGeometry width="50" height="50" relative="1" as="geometry">
            <mxPoint x="2060" y="1290.56" as="sourcePoint" />
            <mxPoint x="2100" y="1290.8200000000002" as="targetPoint" />
          </mxGeometry>
        </mxCell>
        <mxCell id="LIZc8kX5cgw8Bf9auB0h-86" value="" style="endArrow=none;html=1;rounded=0;startArrow=oval;startFill=1;" parent="1" edge="1">
          <mxGeometry width="50" height="50" relative="1" as="geometry">
            <mxPoint x="2060" y="1354.2" as="sourcePoint" />
            <mxPoint x="2100" y="1354.46" as="targetPoint" />
          </mxGeometry>
        </mxCell>
        <mxCell id="LIZc8kX5cgw8Bf9auB0h-87" value="" style="endArrow=none;html=1;rounded=0;startArrow=oval;startFill=1;" parent="1" edge="1">
          <mxGeometry width="50" height="50" relative="1" as="geometry">
            <mxPoint x="2060" y="1424.2" as="sourcePoint" />
            <mxPoint x="2100" y="1424.46" as="targetPoint" />
          </mxGeometry>
        </mxCell>
        <mxCell id="LIZc8kX5cgw8Bf9auB0h-88" value="" style="endArrow=none;html=1;rounded=0;startArrow=oval;startFill=1;" parent="1" edge="1">
          <mxGeometry width="50" height="50" relative="1" as="geometry">
            <mxPoint x="2060" y="1490.1999999999998" as="sourcePoint" />
            <mxPoint x="2100" y="1490.1999999999998" as="targetPoint" />
          </mxGeometry>
        </mxCell>
        <mxCell id="LIZc8kX5cgw8Bf9auB0h-92" value="" style="endArrow=none;html=1;rounded=0;startArrow=oval;startFill=1;" parent="1" edge="1">
          <mxGeometry width="50" height="50" relative="1" as="geometry">
            <mxPoint x="2200" y="1050.58" as="sourcePoint" />
            <mxPoint x="2200" y="1100.58" as="targetPoint" />
          </mxGeometry>
        </mxCell>
        <mxCell id="LIZc8kX5cgw8Bf9auB0h-93" value="" style="endArrow=none;html=1;rounded=0;startArrow=oval;startFill=1;" parent="1" edge="1">
          <mxGeometry width="50" height="50" relative="1" as="geometry">
            <mxPoint x="2300" y="1061.46" as="sourcePoint" />
            <mxPoint x="2300" y="1111.46" as="targetPoint" />
          </mxGeometry>
        </mxCell>
        <mxCell id="LIZc8kX5cgw8Bf9auB0h-94" style="edgeStyle=orthogonalEdgeStyle;rounded=0;orthogonalLoop=1;jettySize=auto;html=1;exitX=1;exitY=0.5;exitDx=0;exitDy=0;entryX=0.175;entryY=0.75;entryDx=0;entryDy=0;entryPerimeter=0;" parent="1" source="LIZc8kX5cgw8Bf9auB0h-28" target="LIZc8kX5cgw8Bf9auB0h-47" edge="1">
          <mxGeometry relative="1" as="geometry" />
        </mxCell>
        <mxCell id="LIZc8kX5cgw8Bf9auB0h-95" value="" style="endArrow=none;html=1;rounded=0;startArrow=oval;startFill=1;" parent="1" edge="1">
          <mxGeometry width="50" height="50" relative="1" as="geometry">
            <mxPoint x="2070" y="1388.91" as="sourcePoint" />
            <mxPoint x="2110" y="1389.17" as="targetPoint" />
          </mxGeometry>
        </mxCell>
        <mxCell id="LIZc8kX5cgw8Bf9auB0h-97" style="edgeStyle=orthogonalEdgeStyle;rounded=0;orthogonalLoop=1;jettySize=auto;html=1;exitX=1;exitY=0.5;exitDx=0;exitDy=0;entryX=0.25;entryY=0.5;entryDx=0;entryDy=0;entryPerimeter=0;" parent="1" source="LIZc8kX5cgw8Bf9auB0h-24" target="LIZc8kX5cgw8Bf9auB0h-49" edge="1">
          <mxGeometry relative="1" as="geometry">
            <Array as="points">
              <mxPoint x="2080" y="1270.1999999999998" />
              <mxPoint x="2080" y="1434.1999999999998" />
            </Array>
          </mxGeometry>
        </mxCell>
        <mxCell id="LIZc8kX5cgw8Bf9auB0h-98" value="" style="endArrow=none;html=1;rounded=0;startArrow=oval;startFill=1;" parent="1" edge="1">
          <mxGeometry width="50" height="50" relative="1" as="geometry">
            <mxPoint x="2080" y="1270.1999999999998" as="sourcePoint" />
            <mxPoint x="2080" y="1320.1999999999998" as="targetPoint" />
          </mxGeometry>
        </mxCell>
        <mxCell id="LIZc8kX5cgw8Bf9auB0h-102" value="" style="endArrow=none;html=1;rounded=0;startArrow=oval;startFill=1;" parent="1" edge="1">
          <mxGeometry width="50" height="50" relative="1" as="geometry">
            <mxPoint x="2080" y="1434.1999999999998" as="sourcePoint" />
            <mxPoint x="2080" y="1484.1999999999998" as="targetPoint" />
          </mxGeometry>
        </mxCell>
        <mxCell id="LIZc8kX5cgw8Bf9auB0h-106" value="seg_no_0" style="text;strokeColor=none;align=center;fillColor=none;html=1;verticalAlign=middle;whiteSpace=wrap;rounded=0;fontStyle=1" parent="1" vertex="1">
          <mxGeometry x="2460" y="1040.73" width="10" height="20" as="geometry" />
        </mxCell>
        <mxCell id="LIZc8kX5cgw8Bf9auB0h-107" value="" style="endArrow=classic;html=1;rounded=0;" parent="1" edge="1">
          <mxGeometry width="50" height="50" relative="1" as="geometry">
            <mxPoint x="2364" y="1050.54" as="sourcePoint" />
            <mxPoint x="2434" y="1050.54" as="targetPoint" />
          </mxGeometry>
        </mxCell>
        <mxCell id="LIZc8kX5cgw8Bf9auB0h-110" value="seg_no_1" style="text;strokeColor=none;align=center;fillColor=none;html=1;verticalAlign=middle;whiteSpace=wrap;rounded=0;fontStyle=1" parent="1" vertex="1">
          <mxGeometry x="2460" y="1097.47" width="10" height="20" as="geometry" />
        </mxCell>
        <mxCell id="LIZc8kX5cgw8Bf9auB0h-111" value="" style="endArrow=classic;html=1;rounded=0;" parent="1" edge="1">
          <mxGeometry width="50" height="50" relative="1" as="geometry">
            <mxPoint x="2364" y="1107.28" as="sourcePoint" />
            <mxPoint x="2434" y="1107.28" as="targetPoint" />
          </mxGeometry>
        </mxCell>
        <mxCell id="LIZc8kX5cgw8Bf9auB0h-112" value="seg_no_2" style="text;strokeColor=none;align=center;fillColor=none;html=1;verticalAlign=middle;whiteSpace=wrap;rounded=0;fontStyle=1" parent="1" vertex="1">
          <mxGeometry x="2460" y="1161.75" width="10" height="20" as="geometry" />
        </mxCell>
        <mxCell id="LIZc8kX5cgw8Bf9auB0h-113" value="" style="endArrow=classic;html=1;rounded=0;" parent="1" edge="1">
          <mxGeometry width="50" height="50" relative="1" as="geometry">
            <mxPoint x="2364" y="1171.56" as="sourcePoint" />
            <mxPoint x="2434" y="1171.56" as="targetPoint" />
          </mxGeometry>
        </mxCell>
        <mxCell id="LIZc8kX5cgw8Bf9auB0h-114" value="seg_no_3" style="text;strokeColor=none;align=center;fillColor=none;html=1;verticalAlign=middle;whiteSpace=wrap;rounded=0;fontStyle=1" parent="1" vertex="1">
          <mxGeometry x="2460" y="1223.21" width="10" height="20" as="geometry" />
        </mxCell>
        <mxCell id="LIZc8kX5cgw8Bf9auB0h-115" value="" style="endArrow=classic;html=1;rounded=0;" parent="1" edge="1">
          <mxGeometry width="50" height="50" relative="1" as="geometry">
            <mxPoint x="2364" y="1233.02" as="sourcePoint" />
            <mxPoint x="2434" y="1233.02" as="targetPoint" />
          </mxGeometry>
        </mxCell>
        <mxCell id="LIZc8kX5cgw8Bf9auB0h-116" value="seg_no_4" style="text;strokeColor=none;align=center;fillColor=none;html=1;verticalAlign=middle;whiteSpace=wrap;rounded=0;fontStyle=1" parent="1" vertex="1">
          <mxGeometry x="2460" y="1290.56" width="10" height="20" as="geometry" />
        </mxCell>
        <mxCell id="LIZc8kX5cgw8Bf9auB0h-117" value="" style="endArrow=classic;html=1;rounded=0;" parent="1" edge="1">
          <mxGeometry width="50" height="50" relative="1" as="geometry">
            <mxPoint x="2364" y="1300.37" as="sourcePoint" />
            <mxPoint x="2434" y="1300.37" as="targetPoint" />
          </mxGeometry>
        </mxCell>
        <mxCell id="LIZc8kX5cgw8Bf9auB0h-118" value="seg_no_5" style="text;strokeColor=none;align=center;fillColor=none;html=1;verticalAlign=middle;whiteSpace=wrap;rounded=0;fontStyle=1" parent="1" vertex="1">
          <mxGeometry x="2460" y="1357" width="10" height="20" as="geometry" />
        </mxCell>
        <mxCell id="LIZc8kX5cgw8Bf9auB0h-119" value="" style="endArrow=classic;html=1;rounded=0;" parent="1" edge="1">
          <mxGeometry width="50" height="50" relative="1" as="geometry">
            <mxPoint x="2364" y="1366.81" as="sourcePoint" />
            <mxPoint x="2434" y="1366.81" as="targetPoint" />
          </mxGeometry>
        </mxCell>
        <mxCell id="LIZc8kX5cgw8Bf9auB0h-120" value="seg_no_6" style="text;strokeColor=none;align=center;fillColor=none;html=1;verticalAlign=middle;whiteSpace=wrap;rounded=0;fontStyle=1" parent="1" vertex="1">
          <mxGeometry x="2460" y="1425" width="10" height="20" as="geometry" />
        </mxCell>
        <mxCell id="LIZc8kX5cgw8Bf9auB0h-121" value="" style="endArrow=classic;html=1;rounded=0;" parent="1" edge="1">
          <mxGeometry width="50" height="50" relative="1" as="geometry">
            <mxPoint x="2364" y="1434.81" as="sourcePoint" />
            <mxPoint x="2434" y="1434.81" as="targetPoint" />
          </mxGeometry>
        </mxCell>
        <mxCell id="LIZc8kX5cgw8Bf9auB0h-122" value="seg_no_7" style="text;strokeColor=none;align=center;fillColor=none;html=1;verticalAlign=middle;whiteSpace=wrap;rounded=0;fontStyle=1" parent="1" vertex="1">
          <mxGeometry x="2460" y="1490.39" width="10" height="20" as="geometry" />
        </mxCell>
        <mxCell id="LIZc8kX5cgw8Bf9auB0h-123" value="" style="endArrow=classic;html=1;rounded=0;" parent="1" edge="1">
          <mxGeometry width="50" height="50" relative="1" as="geometry">
            <mxPoint x="2364" y="1500.2" as="sourcePoint" />
            <mxPoint x="2434" y="1500.2" as="targetPoint" />
          </mxGeometry>
        </mxCell>
      </root>
    </mxGraphModel>
  </diagram>
</mxfile>
